<svg xmlns="http://www.w3.org/2000/svg" xmlns:xlink="http://www.w3.org/1999/xlink" width="40.288" height="69.282" viewBox="0 0 40.288 69.282"><defs><clipPath id="a"><rect width="40.288" height="69.282" fill="#b73064"/></clipPath></defs><g clip-path="url(#a)"><path d="M20.12,142.229a20.133,20.133,0,0,0,.012,40.267,20.133,20.133,0,1,0-.012-40.267m.062,35.6a15.444,15.444,0,1,1,15.4-15.487,15.366,15.366,0,0,1-15.4,15.487" transform="translate(0 -113.216)" fill="#b73064"/><path d="M29.28,19.384a1.441,1.441,0,0,0,1.484.946c1.4-.032,2.8.01,4.206-.017.57-.011.772.2.746.762a21.373,21.373,0,0,0,0,2.217c.036.622-.222.784-.8.776-2.014-.026-4.028-.017-6.042-.007a2.41,2.41,0,0,0-2.611,2.553c-.025.841-.008,1.682-.007,2.524,0,1.187.009,1.185,1.051.69a21.318,21.318,0,0,1,12.2-1.875,20.678,20.678,0,0,1,6.472,1.988c.312.154.772.508.784-.24A29.951,29.951,0,0,0,46.7,26.19a2.25,2.25,0,0,0-2.443-2.127c-1.708-.013-3.416,0-5.124,0-1.8,0-1.8,0-1.8-1.822,0-1.858,0-1.858,1.871-1.917h.076c1.039-.049,1.385-.58.939-1.518Q35.938,9.789,31.639.784a1.171,1.171,0,0,0-1.2-.751c-1.453.023-2.906.008-4.359.008-1.428,0-2.855-.007-4.283,0-1.179.006-1.5.485-1,1.533q4.237,8.907,8.48,17.81" transform="translate(-16.377 -0.026)" fill="#b73064"/><path d="M106.859,17.99a2.977,2.977,0,0,1,.4,1.607c-.058.555.205.744.714.688.7.065,1.059-.336,1.335-.918q4.229-8.9,8.475-17.79C118.3.5,117.98.018,116.753.016c-2.8-.005-5.6.018-8.4-.015a1.406,1.406,0,0,0-1.476.922c-1.235,2.654-2.506,5.292-3.787,7.925a1.336,1.336,0,0,0,.01,1.29c1.267,2.611,2.507,5.236,3.763,7.852" transform="translate(-81.929 -0.001)" fill="#b73064"/><path d="M43.514,171.548a14.158,14.158,0,1,0,14.142,14.217,14.122,14.122,0,0,0-14.142-14.217" transform="translate(-23.378 -136.555)" fill="#b73064"/><path d="M79.734,218.159h2.395v-7.58l-2.436-.979v-1.02l3.748-1.874h1.6v11.453h2.312l-.208,2.52H79.526Z" transform="translate(-63.304 -164.541)" fill="#fff"/></g></svg>