<svg xmlns="http://www.w3.org/2000/svg" width="77" height="76.983" viewBox="0 0 77 76.983">
  <g id="OBJECTS" transform="translate(-0.006)">
    <g id="Group_4" data-name="Group 4" transform="translate(0.006 0)">
      <path id="Path_6" data-name="Path 6" d="M77,201.607a6.861,6.861,0,0,1-1.84,2.872q-9.576,9.54-19.118,19.114a11.472,11.472,0,0,1-8.266,3.482c-7.259.146-14.516.07-21.775.134-.7.006-1.4.07-2.1.08a1.353,1.353,0,0,0-.953.526c-1.662,1.666-3.335,3.319-4.983,5a1.7,1.7,0,0,1-1.319.554q-7.848-.024-15.694,0c-.724,0-.985-.215-.929-.937a11.284,11.284,0,0,0,0-2.1,2.485,2.485,0,0,1,.949-2.21q8.908-8.555,17.765-17.165a14.54,14.54,0,0,1,10.552-4.3c5.356.028,10.713,0,16.071-.006.851,0,1.7-.078,2.549-.07,1.756.018,2.388.825,2.037,2.555a5.233,5.233,0,0,1-5.234,4.2c-2.978.02-5.959,0-8.937.016a2.235,2.235,0,0,0-2.125,1.505,2.309,2.309,0,0,0,.716,2.575,2.183,2.183,0,0,0,1.453.516c3.279,0,6.567.128,9.836-.05a9.208,9.208,0,0,0,7.833-5.071,7.884,7.884,0,0,1,1.329-1.792c4.646-4.628,9.27-9.28,13.922-13.9a4.837,4.837,0,0,1,7.337.425,9.148,9.148,0,0,1,.929,1.792v2.254Z" transform="translate(-0.006 -156.389)" fill="#b73064"/>
      <path id="Path_7" data-name="Path 7" d="M135.563,0a4.205,4.205,0,0,1,1.284,1.341A131.792,131.792,0,0,1,147.07,19.507a24.245,24.245,0,0,1,1.878,5.531,13.114,13.114,0,0,1-3.129,11.183,13.664,13.664,0,0,1-14.454,4.716c-5.722-1.413-9.244-5.25-10.627-10.986-.743-3.085,0-6,1.146-8.852a101.8,101.8,0,0,1,7.885-15c.979-1.6,2.013-3.169,3.006-4.76A4.024,4.024,0,0,1,134.062,0h1.5Zm-.722,30.878a2.3,2.3,0,0,0,2.153-2.049c.07-.466-.169-1.028.149-1.385.331-.373.9-.112,1.365-.185a2.189,2.189,0,1,0-.215-4.373c-1.23-.06-1.222-.06-1.288-1.24a3.389,3.389,0,0,0-.159-.883,2.148,2.148,0,0,0-3.434-.931,2.349,2.349,0,0,0-.789,2.1c.066.769-.219,1.042-.975.965a2.4,2.4,0,0,0-1.708.44,2.1,2.1,0,0,0-.813,2.318,2.26,2.26,0,0,0,2.348,1.622c1.21.022,1.126-.032,1.144,1.162a3.342,3.342,0,0,0,.159.955,2.238,2.238,0,0,0,2.063,1.485Z" transform="translate(-96.271 0)" fill="#b73064"/>
    </g>
  </g>
</svg>
