<svg id="apps" xmlns="http://www.w3.org/2000/svg" width="20" height="20" viewBox="0 0 20 20">
  <path id="Path_64" data-name="Path 64" d="M3.333,0h2.5A3.333,3.333,0,0,1,9.167,3.333v2.5A3.333,3.333,0,0,1,5.833,9.167h-2.5A3.333,3.333,0,0,1,0,5.833v-2.5A3.333,3.333,0,0,1,3.333,0Z" fill="#fff"/>
  <path id="Path_65" data-name="Path 65" d="M280.667,0h2.5A3.333,3.333,0,0,1,286.5,3.333v2.5a3.333,3.333,0,0,1-3.333,3.333h-2.5a3.333,3.333,0,0,1-3.333-3.333v-2.5A3.333,3.333,0,0,1,280.667,0Z" transform="translate(-266.501)" fill="#fff"/>
  <path id="Path_66" data-name="Path 66" d="M3.333,277.333h2.5a3.333,3.333,0,0,1,3.333,3.333v2.5A3.333,3.333,0,0,1,5.833,286.5h-2.5A3.333,3.333,0,0,1,0,283.166v-2.5A3.333,3.333,0,0,1,3.333,277.333Z" transform="translate(0 -266.5)" fill="#fff"/>
  <path id="Path_67" data-name="Path 67" d="M280.667,277.333h2.5a3.333,3.333,0,0,1,3.333,3.333v2.5a3.333,3.333,0,0,1-3.333,3.333h-2.5a3.333,3.333,0,0,1-3.333-3.333v-2.5A3.333,3.333,0,0,1,280.667,277.333Z" transform="translate(-266.501 -266.5)" fill="#fff"/>
</svg>
