<?xml version="1.0" encoding="UTF-8"?>
<svg id="Layer_2" data-name="Layer 2" xmlns="http://www.w3.org/2000/svg" viewBox="0 0 336.23 383.52">
  <defs>
    <style>
      .cls-1 {
        fill: #b73064;
      }
    </style>
  </defs>
  <g id="Layer_1-2" data-name="Layer 1">
    <g>
      <path class="cls-1" d="m185.32,0c9.85,1.45,19.7,2.93,29.29,5.75,36.5,10.77,65.68,31.91,88.1,62.45,17.7,24.1,28.65,51.08,32.24,80.76,4.45,36.86-2.6,71.48-21.9,103.39-3.69,6.1-10.45,7.91-16.12,4.56-5.58-3.3-7.39-10.28-3.83-16.34,9.66-16.44,16.03-33.99,18.57-52.92,3.61-26.9-.17-52.84-11.41-77.39-20.03-43.79-52.72-73.6-100.3-83.85-50.53-10.89-95.64,1.39-132.79,38.08-24.18,23.88-38.39,53.14-42.72,87.02-3.88,30.33,1.85,58.77,16.64,85.46,1.32,2.39,2.99,4.63,3.56,7.38,1.19,5.77-1.74,11.3-7.06,13.37-5.34,2.09-11.02.14-14.24-5.04-7.48-12.05-13.4-24.86-17.01-38.55-15.53-58.89-2.25-111.37,36.56-157.52C66.28,28.82,96.23,11.16,131.76,3.27c6.31-1.4,12.75-2.2,19.12-3.27,11.48,0,22.96,0,34.43,0Z"/>
      <path class="cls-1" d="m160.19,233.23c-38.4-5.34-58.62-34.82-57.76-66.99,1.05-39.05,28.68-63.05,63.02-64.51,35.7-1.52,64.86,24,68.48,59.59,3.38,33.31-19.12,65.76-56.61,71.91,54.04,3.91,99.54,45.91,107.86,99.55,1.32,8.52,2.48,17.11.69,25.65-3.07,14.7-15.87,25.05-30.85,25.06-58.01.05-116.01.06-174.02,0-17.32-.02-31.27-14.18-31.4-31.54-.45-58.39,42.74-108.95,100.6-117.67,3.31-.5,6.63-1.25,10-1.04Z"/>
      <path class="cls-1" d="m167.97,71.54c-48.84-1.63-89.42,37.66-95.59,83.76-2.3,17.18-.3,33.79,6.7,49.74,3.28,7.49,1.38,14.13-4.74,17.04-5.98,2.85-12.65.47-15.7-5.8-5.06-10.4-8.57-21.39-9.6-32.87-4.66-52.08,15.84-92.06,59.68-119.83,21.92-13.88,46.48-17.63,72.21-15.32,53.3,4.78,97.49,49,105.79,102.27,3.33,21.35.87,41.97-7.39,61.91-1.14,2.76-2.24,5.56-4.55,7.65-4.12,3.71-9.61,4.24-14.13,1.31-4.52-2.92-6.51-8.47-4.46-13.81,2.73-7.1,5.56-14.15,6.88-21.69,5.25-29.96-2.11-56.69-21.23-80.07-15.99-19.56-36.73-31.11-61.91-34.22-3.93-.49-7.96-.07-11.95-.07Z"/>
    </g>
  </g>
</svg>