<svg xmlns="http://www.w3.org/2000/svg" xmlns:xlink="http://www.w3.org/1999/xlink" width="1100" height="1026" viewBox="0 0 1100 1026"><defs><clipPath id="a"><rect width="1100" height="583" fill="rgba(183,48,100,0)"/></clipPath></defs><g transform="translate(-133 -2384.708)"><rect width="1100" height="1026" transform="translate(133 2384.708)" fill="#b73064"/><g transform="translate(133 2827.708)" clip-path="url(#a)"><g transform="translate(-106.636 14.58)"><g transform="translate(150.374 72.57)"><path d="M139.014,84.7c-.966-4.67-1.8-8.358-2.469-12.093-1.33-7.535-2.58-15.085-3.815-22.636-.412-2.485-.522-5.018-1.061-7.471a43.667,43.667,0,0,0-2.5-8.564c-1.852-4.1-5.176-5.73-8.643-4.844-2.881.728-5.081,4.29-4.733,8.405.665,7.756,1.694,15.481,2.311,23.237a234.4,234.4,0,0,1,.823,25.722c-1.567-4.337-3.182-8.659-4.67-13.012-3.118-9.2-6.158-18.425-9.276-27.622a16.736,16.736,0,0,0-1.931-3.831c-1.789-2.707-4.5-3.055-7.345-2.343-2.849.7-3.752,3.087-3.451,5.6a133.047,133.047,0,0,0,2.279,13.439c2.675,11.809,5.524,23.585,8.294,35.378.253,1.045.776,2.248.475,3.166-.586,1.789-1.3,3.894-2.675,4.907-.728.522-3.419-.57-4.416-1.662C88.962,92.5,81.95,84.289,74.8,76.232a77.675,77.675,0,0,0-6.363-6.348c-1.646-1.472-3.5-3.657-5.92-1.884a6.441,6.441,0,0,0-2.279,7.709c2.643,7.851,7.123,14.594,12.442,20.879,2.39,2.833,4.685,5.762,6.807,8.8,4.638,6.6,6.395,14.215,8.374,21.955,3.15,12.283,7.266,24.345,11.587,36.28a41.944,41.944,0,0,1,2.39,19.739c-2.913,23.918-30.186,377.716-30.075,403.47,0,3.308.966,3.957,4.052,3.941,19.913-.127,39.842-.158,59.755.016,3.4.032,4.242-1.045,4.211-4.258C139.6,570.7,154.938,191.69,155.619,175.876a31.727,31.727,0,0,1,2.612-11.7,81.288,81.288,0,0,1,9.308-15.766c7.107-9.165,16.32-14.974,28.461-14.8.966,0,2.058.285,2.849-.079,2.374-1.076,6.11-2.01,6.6-3.752a9.571,9.571,0,0,0-2.184-7.978c-2.153-2.169-5.683-3.451-8.817-4.036-7.313-1.345-14.23.934-21.053,3.419-2.248.823-4.575,1.44-6.886,2.089-2.8.791-4.78-.3-5.619-3.008-2.359-7.551-4.986-15.054-1.741-23.095,4.733-11.777,5.255-24.3,6.221-36.724.412-5.255.76-10.526.791-15.782a10.315,10.315,0,0,0-4.1-8.817c-4.116-2.992-7.82-1.725-8.943,3.2-2.3,9.909-4.464,19.85-6.68,29.759-1.235,5.54-3.657,10.495-7.456,15.956Z" transform="translate(-59.793 -28.858)" fill="rgba(255,255,255,0.1)" fill-rule="evenodd"/><path d="M426.183,155.363c.966-4.67,1.8-8.358,2.469-12.093,1.33-7.535,2.58-15.085,3.815-22.636.412-2.485.522-5.018,1.061-7.471a43.66,43.66,0,0,1,2.5-8.564c1.852-4.1,5.176-5.73,8.643-4.844,2.881.728,5.081,4.29,4.733,8.405-.665,7.756-1.694,15.481-2.311,23.237a234.435,234.435,0,0,0-.823,25.722c1.567-4.337,3.182-8.659,4.67-13.012,3.118-9.2,6.158-18.425,9.276-27.622a16.729,16.729,0,0,1,1.931-3.831c1.789-2.707,4.5-3.055,7.345-2.343,2.849.7,3.751,3.087,3.451,5.6a133.046,133.046,0,0,1-2.279,13.439c-2.675,11.809-5.524,23.585-8.295,35.378-.253,1.045-.776,2.248-.475,3.166.586,1.789,1.3,3.894,2.675,4.907.728.522,3.419-.57,4.416-1.662,7.25-7.978,14.262-16.193,21.417-24.25a77.655,77.655,0,0,1,6.363-6.348c1.646-1.472,3.5-3.657,5.92-1.884a6.441,6.441,0,0,1,2.279,7.709c-2.643,7.851-7.123,14.594-12.442,20.879-2.39,2.833-4.685,5.762-6.807,8.8-4.638,6.6-6.395,14.215-8.374,21.955-3.15,12.283-7.266,24.345-11.587,36.28a41.944,41.944,0,0,0-2.39,19.739c2.913,23.918,30.186,377.716,30.076,403.47,0,3.308-.966,3.957-4.052,3.941-19.913-.127-39.842-.158-59.755.016-3.4.032-4.242-1.045-4.211-4.258.174-15.829-15.164-394.843-15.845-410.656a31.724,31.724,0,0,0-2.612-11.7,81.285,81.285,0,0,0-9.308-15.766c-7.107-9.165-16.32-14.974-28.461-14.8-.966,0-2.058.285-2.849-.079-2.374-1.076-6.11-2.01-6.6-3.751a9.571,9.571,0,0,1,2.184-7.978c2.153-2.169,5.683-3.451,8.8-4.036,7.313-1.346,14.23.934,21.053,3.419,2.248.823,4.575,1.44,6.886,2.089,2.8.791,4.78-.3,5.619-3.008,2.359-7.55,4.986-15.054,1.741-23.095-4.733-11.777-5.255-24.3-6.221-36.724-.411-5.255-.76-10.526-.791-15.782a10.315,10.315,0,0,1,4.1-8.817c4.116-2.992,7.82-1.725,8.944,3.2,2.3,9.909,4.464,19.85,6.68,29.759,1.235,5.54,3.657,10.495,7.456,15.956Z" transform="translate(394.192 78.161)" fill="rgba(255,255,255,0.1)" fill-rule="evenodd"/><path d="M481.02,199.744c-.966-4.67-1.8-8.358-2.454-12.094-1.33-7.535-2.58-15.085-3.815-22.636-.411-2.485-.522-5.018-1.06-7.471a43.663,43.663,0,0,0-2.5-8.564c-1.852-4.1-5.176-5.73-8.643-4.844-2.881.728-5.081,4.29-4.733,8.405.649,7.756,1.694,15.481,2.311,23.237a234.406,234.406,0,0,1,.823,25.722c-1.567-4.337-3.182-8.659-4.67-13.012-3.118-9.2-6.157-18.425-9.276-27.622a17.393,17.393,0,0,0-1.931-3.831c-1.789-2.707-4.5-3.055-7.345-2.343-2.849.7-3.751,3.087-3.451,5.6a133.09,133.09,0,0,0,2.28,13.439c2.675,11.809,5.524,23.585,8.294,35.378.253,1.045.776,2.248.475,3.166-.586,1.789-1.3,3.894-2.675,4.907-.728.522-3.419-.57-4.416-1.662-7.25-7.978-14.262-16.193-21.417-24.25a80.263,80.263,0,0,0-6.363-6.347c-1.646-1.472-3.5-3.657-5.92-1.884a6.441,6.441,0,0,0-2.279,7.709c2.643,7.851,7.123,14.595,12.442,20.879,2.39,2.833,4.685,5.762,6.807,8.8,4.638,6.6,6.395,14.215,8.374,21.955,3.166,12.283,7.266,24.345,11.587,36.281a41.941,41.941,0,0,1,2.39,19.739q-4.369,35.877-8.738,71.769c-3.1,25.485-6.442,50.938-6.332,76.677,0,3.308.965,3.957,4.052,3.941,19.913-.127,39.842-.158,59.755.016,3.4.032,4.242-1.045,4.21-4.258-.174-15.829-.032-31.658-.237-47.472-.063-5.382-1.219-10.764-1.187-16.13.095-14.848.522-29.7.886-44.543.38-15.829.7-31.658,1.377-47.472a31.724,31.724,0,0,1,2.612-11.7,81.292,81.292,0,0,1,9.308-15.766c7.107-9.165,16.336-14.974,28.461-14.8.965,0,2.058.285,2.849-.079,2.374-1.076,6.11-2.01,6.6-3.752a9.571,9.571,0,0,0-2.184-7.978c-2.153-2.169-5.683-3.451-8.817-4.036-7.313-1.346-14.23.934-21.053,3.419-2.248.823-4.575,1.44-6.886,2.089-2.8.791-4.78-.3-5.619-3.008-2.359-7.55-4.986-15.054-1.741-23.095,4.733-11.777,5.255-24.3,6.221-36.724.412-5.255.76-10.526.791-15.782a10.314,10.314,0,0,0-4.1-8.817c-4.116-2.992-7.82-1.725-8.944,3.2-2.3,9.909-4.464,19.85-6.68,29.759-1.235,5.54-3.657,10.495-7.456,15.956Z" transform="translate(458.201 145.376)" fill="rgba(255,255,255,0.1)" fill-rule="evenodd"/><path d="M178.721,209.59c-.966-4.67-1.8-8.358-2.454-12.093-1.33-7.535-2.58-15.085-3.815-22.636-.412-2.485-.522-5.018-1.061-7.471a43.666,43.666,0,0,0-2.5-8.564c-1.852-4.1-5.176-5.73-8.643-4.844-2.881.728-5.081,4.29-4.733,8.405.649,7.756,1.694,15.481,2.311,23.237a234.4,234.4,0,0,1,.823,25.722c-1.567-4.337-3.182-8.659-4.67-13.012-3.118-9.2-6.158-18.425-9.276-27.622a17.4,17.4,0,0,0-1.931-3.831c-1.789-2.707-4.5-3.055-7.345-2.343-2.849.7-3.751,3.087-3.451,5.6a133.039,133.039,0,0,0,2.279,13.439c2.675,11.809,5.524,23.585,8.294,35.378.253,1.045.776,2.248.475,3.166-.586,1.789-1.3,3.894-2.675,4.907-.728.522-3.419-.57-4.416-1.662-7.25-7.978-14.262-16.193-21.417-24.25a77.677,77.677,0,0,0-6.363-6.348c-1.646-1.472-3.5-3.657-5.92-1.884a6.447,6.447,0,0,0-2.279,7.709c2.643,7.851,7.123,14.595,12.442,20.879,2.39,2.833,4.685,5.762,6.807,8.8,4.638,6.6,6.395,14.215,8.374,21.955,3.166,12.283,7.266,24.345,11.587,36.281a41.944,41.944,0,0,1,2.39,19.739q-4.369,35.877-8.738,71.769c-3.1,25.485-6.442,50.938-6.332,76.677,0,3.308.966,3.957,4.052,3.941,19.913-.127,39.842-.158,59.755.016,3.4.032,4.242-1.045,4.211-4.258-.174-15.829-.032-31.658-.237-47.472-.063-5.382-1.219-10.764-1.187-16.13.095-14.848.522-29.7.886-44.543.38-15.829.7-31.658,1.377-47.472a31.727,31.727,0,0,1,2.612-11.7,81.289,81.289,0,0,1,9.308-15.766c7.107-9.165,16.336-14.974,28.461-14.8.966,0,2.058.285,2.849-.079,2.374-1.076,6.11-2.01,6.6-3.751a9.571,9.571,0,0,0-2.184-7.978c-2.153-2.169-5.683-3.451-8.817-4.036-7.313-1.345-14.23.934-21.053,3.419-2.248.823-4.575,1.44-6.886,2.089-2.8.792-4.78-.3-5.619-3.008-2.359-7.55-4.986-15.053-1.757-23.095,4.733-11.777,5.255-24.3,6.221-36.724.412-5.255.76-10.526.791-15.782a10.315,10.315,0,0,0-4.1-8.817c-4.116-2.992-7.82-1.725-8.944,3.2-2.3,9.909-4.464,19.834-6.68,29.759-1.235,5.54-3.657,10.495-7.456,15.956Z" transform="translate(0.367 160.288)" fill="rgba(255,255,255,0.1)" fill-rule="evenodd"/><path d="M287.1,167.638c2.248-4.606,4.67-9.165,6.7-13.835,2.279-5.271,4.147-10.669,6.332-15.988.792-1.947,2.184-3.846,5.129-3.356,3.023.507,3.672,2.612,3.387,4.86-1.409,10.574-3.562,20.958-8.8,30.835a40.02,40.02,0,0,0-4.717,21.48c.1,1.567,1.409,3.1,2.169,4.638a41.564,41.564,0,0,0,4.543-2.469c4.78-3.451,9.339-7.123,14.215-10.463,2.644-1.8,6-1.868,9.26-.95,2.469.7,2.517,1.52,1.029,3.213-6.015,6.822-12.869,13.3-17.475,20.72-2.96,4.78-6.933,7.867-11.587,11.033-5.16,3.5-10.083,7.25-14.832,11.112a8.2,8.2,0,0,0-2.343,4.416c-.681,2.865-5.018,30.693-4.5,41.647.412,8.769-14.088,208.47-14.357,222.7-.079,4.084-.332,4.068-5.287,4.068-14.943,0-29.87-.048-44.812.048-2.77.016-3.593-.665-3.482-2.96.206-4.654,28.382-205.336,31.373-223.983,2.248-14.056,3.989-50.068,3.023-53.993-2.849-11.555-3.831-23.047-.934-34.713.649-2.612-.063-5.7-1.108-8.31-2.675-6.727-6.015-13.249-8.8-19.945a11.8,11.8,0,0,1-.586-6.063c.142-.981,1.757-2.343,2.928-2.533a4.706,4.706,0,0,1,3.688,1.583c2.343,4.036,4.226,8.247,6.379,12.347a93.143,93.143,0,0,0,5.176,9.133c.681,1,2.485,1.488,3.783,2.2.839-1.076,2.232-2.074,2.438-3.229a77.253,77.253,0,0,0,.633-8.769c.412-7.677.76-15.354,1.282-23.016a10.045,10.045,0,0,1,1.409-3.926c1.013-1.82,2.818-3.625,5.255-2.58a5.719,5.719,0,0,1,2.849,4.321c.237,4.211-.269,8.453-.38,12.679-.1,4.226-.063,8.469-.079,12.711a10.309,10.309,0,0,0,.158,3.356,23.48,23.48,0,0,0,2.137,3.752c1.44-.839,3.482-1.425,4.21-2.564a27.419,27.419,0,0,0,3.071-7.281c2.643-9.513,5.049-19.058,7.693-28.572a5.557,5.557,0,0,1,2.454-3.134c1.314-.744,3.5-1.409,4.733-.981a4.3,4.3,0,0,1,2.454,3.451,75.5,75.5,0,0,1-1.44,12.616c-1.615,7.645-3.625,15.243-5.445,22.857a6.883,6.883,0,0,0,0,1.615c.364.063.744.127,1.108.206Z" transform="translate(164.154 119.39)" fill="rgba(255,255,255,0.1)" fill-rule="evenodd"/></g><g transform="translate(33.725)"><path d="M407.247,167.139c2.548-1.947,5.366-3.641,7.582-5.92,5.762-5.9,11.144-12.188,16.921-18.077a33.212,33.212,0,0,1,8.231-6.158c1.361-.712,4.068-.253,5.414.712,1.947,1.409.633,3.34-.6,4.986-5.572,7.345-11.35,14.547-16.526,22.161-7,10.273-12.378,21.2-12.98,34.064-.554,12.03-3.767,23.538-7.646,34.951-5.05,14.848-6.949,30.25-6.822,45.984.111,12.457-.887,24.931-1.013,37.4-.222,22.3-.127,44.622-.269,66.926-.032,5.762-3.593,138.458-3.625,144.22-.016,3.087-1.393,3.91-4.179,3.862-6.965-.095-13.914-.032-20.879-.032-11.634,0-27.78.032-39.415.032-5.825,0-6.253-.633-5.9-6.458.886-14.927,21.559-194.525,23.617-206.682,2.39-14.167,4.812-28.366,6.142-42.66,1.029-11.049.443-22.24.491-33.368.016-3.657-2.073-6.284-4.685-8.516-4.733-4.052-9.244-8.421-14.341-11.967-8.785-6.094-15.259-14.12-20.641-23.111-3.451-5.746-8.659-8.659-14.753-10.606-1.868-.6-3.514-1.915-5.255-2.9,1.377-2.39,2.2-5.619,4.274-7a13.411,13.411,0,0,1,15.307.047,218.937,218.937,0,0,1,18.663,14.5c2.438,2.042,4.749,2.438,7.139.712,6.158-4.448,10.431-10.052,10.891-18.061.6-10.637-1.583-20.863-3.372-31.278-1.947-11.365-1.9-23.126-2.264-34.713-.111-3.451.744-7.234,4.416-9.308,3.783-2.121,7.487-.728,8.2,3.546a105.353,105.353,0,0,1,1.377,13.93c.3,9.387,1.187,18.663,4.4,27.543a25.121,25.121,0,0,0,3.609,6.537c1.488,1.979,3.213,1.472,3.751-.918a29.453,29.453,0,0,0,.633-4.986c.712-15.085,1.3-30.17,2.105-45.256.253-4.638,1.678-8.991,5.334-12.188,3.213-2.8,6.585-1.915,7.6,2.232a34.634,34.634,0,0,1,.586,8.88q-.19,9.355-.728,18.694c-.491,8.738-1.108,17.46-1.63,26.2-.143,2.39-.269,4.8-.206,7.186.063,2.311,1.235,3.846,3.7,4.052a3.833,3.833,0,0,0,4.511-3.15c3.7-13.613,7.3-27.242,11.286-40.776a38.966,38.966,0,0,1,5.24-10.447,5.824,5.824,0,0,1,7.408-2.042c2.913,1.266,2.137,3.894,1.741,6.268A251.637,251.637,0,0,1,409.226,150c-1.8,5.081-2.469,10.558-3.656,15.845.57.427,1.14.839,1.709,1.266Z" transform="translate(414.762 132.497)" fill="rgba(255,255,255,0.1)" fill-rule="evenodd"/><path d="M202.682,145.374c-2.01-4.195.934-7.408,2.184-10.875,1.266-3.482,2.675-6.838,2.058-10.653a3.489,3.489,0,0,1,1.915-4.052c1.71-.807,3.118-.016,4.306,1.235a8.369,8.369,0,0,1,.871,1.33c.237-.079.475-.158.7-.237.269-1.377.57-2.738.823-4.116.57-3.055.934-6.189,1.789-9.165a4.93,4.93,0,0,1,2.786-2.818,3.537,3.537,0,0,1,3.229,1.14,14.372,14.372,0,0,1,1.868,6.458c-.206,6.268-1,12.505-1.409,18.773a47.83,47.83,0,0,0,.332,8.864c.364-.712.776-1.409,1.076-2.153,3.641-8.9,7.93-17.539,9.846-27.068.206-1.029.063-2.675,1.9-2.675,1.9,0,3.593.554,4.274,2.454a9.633,9.633,0,0,1,.776,4.464c-1,6.094-2.2,12.173-3.467,18.219-1.171,5.6-2.659,11.144-3.752,16.763a59.781,59.781,0,0,0-.776,8.928,3.412,3.412,0,0,0,1,2.5c2.96,2.279,6.078,4.385,9.133,6.553,1.963,1.393,3.894,1.235,6.047.269,4.955-2.232,9.925-4.464,15.022-6.3a12.456,12.456,0,0,1,12.742,2.248c2.881,2.374,2.564,4.543-.9,5.952-5.034,2.042-10.257,3.688-15.117,6.078a99.629,99.629,0,0,0-12.885,7.9,15.87,15.87,0,0,0-4.068,4.875c-3.831,6.316-8.279,11.856-15.2,15.212-1.615.776-2.96,3.213-3.4,5.113-2.628,11.334-6.094,22.715-8.31,34.143-1.884,9.687-2.675,19.438-3.941,29.221-1.076,8.342-20.641,113.7-21.164,122.106-.111,1.9-.633,2.469-2.533,2.453-12.188-.079-24.377-.032-36.565-.032-3.055,0-2.913-.063-2.77-3.118.855-17.824,30.044-131.129,36.106-147.623,3.783-10.257,7.867-38.607,9.308-42.058,1.9-4.543,1.852-9.26,2.074-13.977.222-4.891.491-9.8.665-14.689a5.018,5.018,0,0,0-.617-2.58c-3.419-5.635-2.738-11.777-2.279-17.871.174-2.279.934-4.5,1.235-6.759.443-3.356.633-3.641,4.021-4.084a6.14,6.14,0,0,0,1.029-.332Z" transform="translate(195.042 160.467)" fill="rgba(255,255,255,0.1)" fill-rule="evenodd"/><path d="M533.393,61.69c3.134-6.569-1.456-11.6-3.419-17.032C528,39.2,525.8,33.957,526.761,27.974c.443-2.754-.4-5.1-3.008-6.332-2.675-1.266-4.891-.032-6.743,1.931a13.388,13.388,0,0,0-1.361,2.074c-.364-.127-.728-.237-1.092-.364-.427-2.137-.887-4.29-1.282-6.427-.886-4.8-1.456-9.672-2.8-14.341A7.667,7.667,0,0,0,506.1.115c-1.393-.475-4.448.57-5.049,1.789-1.551,3.118-3.039,6.743-2.928,10.115.317,9.814,1.551,19.581,2.2,29.395a74.438,74.438,0,0,1-.523,13.866c-.57-1.124-1.219-2.2-1.694-3.356-5.683-13.914-12.426-27.448-15.4-42.359-.317-1.615-.095-4.179-2.976-4.195-2.976-.016-5.635.855-6.7,3.831-.791,2.216-1.567,4.765-1.2,6.981,1.567,9.545,3.435,19.042,5.414,28.508,1.836,8.769,4.163,17.444,5.873,26.245a91.33,91.33,0,0,1,1.2,13.961,5.344,5.344,0,0,1-1.567,3.926c-4.638,3.577-9.513,6.854-14.31,10.241-3.071,2.184-6.094,1.947-9.482.427-7.756-3.482-15.528-6.981-23.522-9.862a19.452,19.452,0,0,0-19.945,3.53c-4.5,3.72-4.021,7.123,1.409,9.308,7.883,3.2,16.067,5.778,23.665,9.513a154.991,154.991,0,0,1,20.166,12.363c2.628,1.836,4.654,4.812,6.363,7.63,6,9.893,12.964,18.568,23.775,23.807,2.517,1.219,4.622,5.018,5.319,8.01,4.131,17.744,8.025,35.552,11.508,53.439,2.944,15.164,5.683,30.424,7.661,45.73,1.694,13.059,50.305,311.3,51.128,324.451.19,2.96.981,3.862,3.957,3.847,19.074-.111,38.164-.048,57.238-.048,4.78,0,4.559-.095,4.321-4.891-1.346-27.891-78.813-397.043-83.879-413.411-1.725-5.6-2.976-11.413-5.224-16.811-2.976-7.107-2.913-14.484-3.245-21.892-.348-7.661-.776-15.338-1.029-23a7.737,7.737,0,0,1,.966-4.036c5.334-8.817,4.29-18.441,3.562-27.986-.269-3.562-1.472-7.028-1.931-10.59-.681-5.255-.981-5.7-6.3-6.411a11.5,11.5,0,0,1-1.6-.507Z" transform="translate(590.953 0.002)" fill="rgba(255,255,255,0.1)" fill-rule="evenodd"/><path d="M124.539,124.861c2.549-1.947,5.366-3.641,7.582-5.92,5.762-5.9,11.144-12.188,16.921-18.077a33.214,33.214,0,0,1,8.231-6.158c1.361-.712,4.068-.253,5.414.712,1.947,1.409.633,3.34-.6,4.986-5.572,7.345-11.349,14.547-16.526,22.161-7,10.273-12.378,21.2-12.98,34.064-.554,12.03-3.767,23.538-7.646,34.951-5.05,14.848-6.949,30.25-6.822,45.984.111,12.458-16.874,251.146-16.906,256.892-.016,3.087-1.393,3.91-4.179,3.862-6.965-.095-13.914-.032-20.879-.032-11.634,0-23.285.032-34.919.032-5.825,0-6.253-.633-5.9-6.458.886-14.927,29.062-202.867,31.12-215.024,2.39-14.167,4.812-28.366,6.142-42.66,1.029-11.049.427-22.24.491-33.368.016-3.657-2.074-6.284-4.685-8.516-4.733-4.052-9.244-8.421-14.341-11.967-8.785-6.094-15.259-14.12-20.641-23.111-3.451-5.746-8.659-8.659-14.753-10.606-1.868-.6-3.514-1.915-5.255-2.9,1.377-2.39,2.2-5.619,4.274-7a13.411,13.411,0,0,1,15.307.047,218.909,218.909,0,0,1,18.663,14.5c2.438,2.042,4.749,2.438,7.139.712,6.158-4.448,10.431-10.052,10.89-18.061.6-10.637-1.583-20.863-3.372-31.278-1.947-11.365-1.9-23.126-2.264-34.713-.111-3.467.744-7.234,4.432-9.308,3.783-2.121,7.487-.728,8.2,3.546a105.356,105.356,0,0,1,1.377,13.93c.3,9.387,1.187,18.663,4.4,27.543a25.119,25.119,0,0,0,3.609,6.537c1.488,1.979,3.213,1.472,3.736-.918a29.433,29.433,0,0,0,.633-4.986c.712-15.085,1.3-30.17,2.105-45.256.253-4.638,1.678-8.991,5.334-12.188,3.213-2.8,6.585-1.915,7.6,2.232a34.633,34.633,0,0,1,.586,8.88c-.111,6.237-.38,12.473-.728,18.694-.491,8.738-1.108,17.46-1.63,26.2-.142,2.39-.269,4.8-.19,7.186.063,2.311,1.235,3.846,3.7,4.052a3.834,3.834,0,0,0,4.511-3.15c3.7-13.613,7.3-27.242,11.286-40.776a38.97,38.97,0,0,1,5.239-10.447,5.807,5.807,0,0,1,7.408-2.042c2.913,1.266,2.137,3.894,1.741,6.268a251.641,251.641,0,0,1-10.859,43.8c-1.8,5.081-2.469,10.558-3.657,15.845.57.427,1.14.839,1.71,1.266Z" transform="translate(-13.402 68.467)" fill="rgba(255,255,255,0.1)" fill-rule="evenodd"/></g><g transform="translate(0 215.619)"><path d="M392.045,176.875c.871-4.226,1.63-7.582,2.232-10.97,1.2-6.838,2.343-13.692,3.467-20.546.364-2.248.459-4.559.966-6.775a40.587,40.587,0,0,1,2.263-7.772c1.694-3.72,4.7-5.192,7.836-4.4,2.612.665,4.606,3.894,4.29,7.63-.6,7.028-1.535,14.04-2.105,21.084a214.579,214.579,0,0,0-.744,23.332c1.409-3.941,2.881-7.851,4.226-11.809,2.833-8.342,5.588-16.716,8.421-25.058a15.311,15.311,0,0,1,1.757-3.482c1.615-2.454,4.084-2.77,6.664-2.121,2.58.633,3.4,2.8,3.134,5.081a122.431,122.431,0,0,1-2.074,12.188c-2.422,10.716-5,21.385-7.519,32.086-.222.95-.7,2.042-.427,2.865.538,1.615,1.187,3.53,2.422,4.448.649.475,3.1-.522,4-1.52,6.569-7.25,12.932-14.689,19.423-22a73.294,73.294,0,0,1,5.762-5.762c1.488-1.33,3.182-3.324,5.366-1.71a5.822,5.822,0,0,1,2.058,6.981c-2.406,7.123-6.458,13.249-11.286,18.932-2.169,2.564-4.242,5.224-6.173,7.978-4.195,6-5.794,12.9-7.6,19.913-2.865,11.144-6.585,22.082-10.511,32.909a38.1,38.1,0,0,0-2.169,17.9l7.931,65.105c2.818,23.111,5.841,46.205,5.746,69.553,0,2.992-.886,3.593-3.672,3.577q-27.092-.19-54.2.016c-3.087.032-3.862-.95-3.831-3.862.158-14.357.032-28.714.222-43.071.063-4.875,1.108-9.767,1.076-14.642-.079-13.471-.475-26.941-.807-40.412-.348-14.357-.633-28.714-1.25-43.071a28.534,28.534,0,0,0-2.374-10.606,74.1,74.1,0,0,0-8.437-14.294c-6.442-8.31-14.816-13.581-25.817-13.423a6.734,6.734,0,0,1-2.6-.079c-2.169-.981-5.54-1.82-5.983-3.4a8.718,8.718,0,0,1,1.979-7.234c1.947-1.963,5.144-3.134,7.994-3.657,6.632-1.219,12.917.855,19.09,3.1,2.042.744,4.147,1.3,6.237,1.9,2.548.712,4.337-.269,5.1-2.723,2.137-6.838,4.511-13.645,1.583-20.942-4.29-10.685-4.765-22.05-5.651-33.32-.364-4.765-.681-9.545-.712-14.325a9.32,9.32,0,0,1,3.72-7.994c3.736-2.723,7.091-1.567,8.12,2.913,2.074,8.991,4.036,18,6.047,27a40.065,40.065,0,0,0,6.775,14.468Z" transform="translate(502.17 -24.475)" fill="rgba(255,255,255,0.1)" fill-rule="evenodd"/><path d="M338.732,163.355c2.913-6.094-1.346-10.764-3.166-15.8-1.836-5.065-3.878-9.925-2.976-15.465.412-2.548-.364-4.733-2.786-5.873-2.485-1.171-4.543-.032-6.253,1.789a12.31,12.31,0,0,0-1.266,1.931c-.332-.111-.681-.222-1.013-.332-.4-1.994-.823-3.973-1.187-5.968-.823-4.448-1.346-8.975-2.6-13.3a7.146,7.146,0,0,0-4.052-4.084c-1.282-.443-4.131.522-4.685,1.662-1.44,2.9-2.833,6.253-2.723,9.387.3,9.1,1.44,18.172,2.042,27.258a70.542,70.542,0,0,1-.475,12.869c-.522-1.045-1.124-2.042-1.567-3.118-5.271-12.9-11.524-25.453-14.278-39.288-.3-1.5-.079-3.878-2.77-3.894-2.77-.016-5.224.791-6.205,3.562-.728,2.058-1.456,4.416-1.124,6.474,1.456,8.849,3.182,17.665,5.018,26.451,1.71,8.136,3.862,16.193,5.445,24.345a86.285,86.285,0,0,1,1.124,12.948,4.9,4.9,0,0,1-1.456,3.641c-4.305,3.324-8.833,6.363-13.281,9.513-2.849,2.026-5.651,1.8-8.785.4-7.186-3.229-14.4-6.474-21.813-9.149a18.068,18.068,0,0,0-18.5,3.261c-4.179,3.451-3.72,6.6,1.314,8.643,7.313,2.96,14.9,5.35,21.955,8.833a147.3,147.3,0,0,1,18.71,11.46c2.438,1.694,4.321,4.464,5.9,7.076,5.572,9.181,12.03,17.222,22.066,22.082,2.343,1.14,4.29,4.654,4.939,7.424,3.831,16.462,7.44,32.972,10.669,49.561,2.739,14.072,5.271,28.208,7.107,42.422,1.567,12.109,2.137,24.361,2.9,36.565.174,2.754.918,3.577,3.672,3.562,17.7-.111,35.394-.047,53.107-.047,4.432,0,4.226-.095,4.021-4.543-1.235-25.881-10.21-49.672-19.027-73.606-5.477-14.879-9.545-30.3-14.246-45.477-1.6-5.208-2.754-10.59-4.844-15.592-2.754-6.6-2.707-13.439-3.008-20.293-.332-7.107-.728-14.23-.966-21.338a7.159,7.159,0,0,1,.9-3.751c4.955-8.184,3.973-17.111,3.308-25.96-.253-3.292-1.361-6.522-1.789-9.83-.633-4.875-.918-5.287-5.841-5.936a9.471,9.471,0,0,1-1.488-.475Z" transform="translate(343.166 -54.849)" fill="rgba(255,255,255,0.1)" fill-rule="evenodd"/><path d="M77.435,150.612c1.108-5.414,2.089-9.7,2.865-14.04,1.551-8.754,2.992-17.523,4.432-26.292.475-2.881.6-5.841,1.235-8.674a49.656,49.656,0,0,1,2.913-9.957c2.153-4.765,6.015-6.648,10.036-5.635,3.34.839,5.888,4.986,5.493,9.767-.76,9.007-1.963,17.982-2.691,26.989a274.077,274.077,0,0,0-.95,29.87c1.8-5.034,3.7-10.052,5.414-15.117,3.625-10.685,7.139-21.4,10.78-32.07A19.572,19.572,0,0,1,119.209,101c2.074-3.134,5.224-3.546,8.532-2.723s4.353,3.577,4,6.506a148.748,148.748,0,0,1-2.659,15.608c-3.1,13.724-6.411,27.384-9.624,41.077-.285,1.219-.9,2.612-.554,3.672.681,2.074,1.52,4.527,3.1,5.7.839.617,3.973-.665,5.129-1.931,8.421-9.276,16.557-18.805,24.868-28.176a92.667,92.667,0,0,1,7.376-7.376c1.915-1.71,4.068-4.242,6.87-2.2,2.9,2.121,3.862,5.334,2.643,8.943-3.071,9.118-8.279,16.953-14.452,24.25-2.786,3.292-5.445,6.7-7.915,10.226-5.382,7.677-7.424,16.526-9.719,25.485-3.672,14.262-8.437,28.271-13.455,42.137a48.768,48.768,0,0,0-2.77,22.921q5.081,41.67,10.146,83.341c3.609,29.585,7.487,59.154,7.361,89.055-.016,3.831-1.124,4.606-4.717,4.575q-34.69-.237-69.4.016c-3.957.032-4.939-1.219-4.891-4.939.19-18.378.032-36.755.269-55.133.079-6.253,1.425-12.489,1.377-18.742-.111-17.238-.6-34.492-1.029-51.73-.443-18.378-.823-36.771-1.6-55.133a36.525,36.525,0,0,0-3.039-13.581,94.009,94.009,0,0,0-10.811-18.3c-8.263-10.653-18.963-17.38-33.051-17.19-1.108,0-2.39.332-3.308-.1-2.77-1.25-7.091-2.327-7.677-4.353-.776-2.738.491-7.2,2.533-9.26,2.5-2.517,6.6-4,10.226-4.685,8.5-1.567,16.526,1.092,24.44,3.973,2.612.95,5.3,1.678,7.994,2.422,3.261.918,5.556-.348,6.522-3.482,2.738-8.769,5.793-17.475,2.026-26.815-5.493-13.676-6.094-28.223-7.234-42.66-.475-6.094-.871-12.22-.918-18.33-.032-3.989,1.3-7.709,4.765-10.241,4.78-3.482,9.07-1.994,10.4,3.72,2.659,11.508,5.176,23.047,7.756,34.571,1.44,6.427,4.242,12.188,8.659,18.52Z" transform="translate(0.01 -85.747)" fill="rgba(255,255,255,0.1)" fill-rule="evenodd"/></g><g transform="translate(143.405 185.284)"><path d="M343.207,197.542c-2.928-2.248-6.173-4.195-8.722-6.807-6.632-6.791-12.806-14.009-19.454-20.784a38,38,0,0,0-9.466-7.091c-1.567-.823-4.686-.285-6.221.823-2.232,1.63-.728,3.846.7,5.73,6.411,8.437,13.043,16.731,19.011,25.485,8.041,11.809,14.246,24.393,14.927,39.193.633,13.851,4.337,27.068,8.8,40.19,5.809,17.08,7.994,34.793,7.835,52.885-.127,14.341,1.013,28.682,1.171,43.024.269,25.659.142,51.318.3,76.993.047,6.617.681,13.233.728,19.85.016,3.562,1.615,4.5,4.812,4.448,8.01-.111,16.019-.032,24.013-.032,13.392,0,26.783.048,40.159.032,6.7,0,7.2-.728,6.791-7.424-1.013-17.159-5.034-33.605-10.036-50.052-4.1-13.5-6.126-27.669-8.5-41.647-2.754-16.288-5.524-32.624-7.06-49.07-1.187-12.711-.507-25.58-.57-38.386-.032-4.21,2.374-7.234,5.382-9.8,5.445-4.654,10.637-9.687,16.494-13.756,10.1-7.012,17.539-16.241,23.744-26.577,3.957-6.617,9.957-9.957,16.969-12.188,2.153-.7,4.052-2.2,6.047-3.34-1.6-2.738-2.533-6.458-4.907-8.041a15.438,15.438,0,0,0-17.6.047,256.035,256.035,0,0,0-21.464,16.668c-2.8,2.343-5.461,2.8-8.2.823-7.076-5.113-12-11.571-12.521-20.768-.7-12.236,1.82-24,3.878-35.98,2.248-13.075,2.184-26.593,2.6-39.937.127-3.973-.855-8.326-5.081-10.7-4.353-2.454-8.611-.839-9.434,4.084a118.283,118.283,0,0,0-1.567,16.035c-.348,10.8-1.361,21.464-5.065,31.674a29.423,29.423,0,0,1-4.147,7.535c-1.71,2.279-3.688,1.71-4.305-1.061a33.157,33.157,0,0,1-.712-5.73c-.823-17.349-1.5-34.713-2.422-52.062-.285-5.334-1.931-10.336-6.142-14.009-3.7-3.229-7.582-2.216-8.738,2.58a40.634,40.634,0,0,0-.681,10.21c.142,7.171.443,14.341.839,21.5.554,10.052,1.266,20.087,1.884,30.123.158,2.754.3,5.509.222,8.263-.079,2.659-1.425,4.416-4.258,4.67-2.723.237-4.448-.9-5.192-3.625-4.258-15.655-8.389-31.342-12.98-46.9a45.8,45.8,0,0,0-6.015-12.03,6.668,6.668,0,0,0-8.516-2.343c-3.34,1.456-2.454,4.48-2.01,7.218a289.415,289.415,0,0,0,12.489,50.384c2.074,5.841,2.833,12.141,4.211,18.235-.649.491-1.314.966-1.963,1.456Z" transform="translate(308.258 -24.812)" fill="rgba(255,255,255,0.1)" fill-rule="evenodd"/><path d="M241.8,161.157c-3.308-8.2-6.886-16.288-9.862-24.614-3.372-9.387-6.11-18.979-9.308-28.429-1.171-3.467-3.213-6.838-7.55-5.968-4.448.9-5.414,4.654-4.97,8.643,2.074,18.805,5.239,37.278,12.964,54.864a83.856,83.856,0,0,1,6.949,38.2c-.142,2.8-2.074,5.509-3.2,8.263-2.248-1.456-4.7-2.659-6.68-4.4-7.044-6.142-13.74-12.679-20.926-18.615-3.894-3.229-8.849-3.34-13.613-1.694-3.625,1.251-3.7,2.723-1.5,5.73,8.848,12.125,18.947,23.649,25.722,36.866,4.353,8.484,10.21,13.993,17.064,19.612,7.6,6.221,14.832,12.885,21.844,19.771,1.915,1.868,2.9,5.081,3.451,7.851a93.608,93.608,0,0,1,1.947,15.528c.522,19.517,1.6,39.066.839,58.552A301.821,301.821,0,0,1,249.26,397.9c-4.986,25.168-4.306,50.463-3.926,75.79.111,7.25.475,7.25,7.788,7.25,21.987,0,43.973-.095,65.96.079,4.084.032,5.287-1.171,5.144-5.271-.317-8.294.048-16.6-.032-24.9-.364-33.336-1.377-66.578-5.778-99.74-3.308-24.994-6.854-49.878-11.619-74.635-1.314-6.807-.032-14.42,1.393-21.4,4.195-20.562,5.635-40.982,1.361-61.765-.95-4.638.095-10.131,1.63-14.769,3.942-11.951,8.864-23.585,12.948-35.489a25.082,25.082,0,0,0,.855-10.8c-.206-1.741-2.58-4.163-4.306-4.5-1.63-.317-4.685,1.251-5.429,2.8-3.451,7.171-6.221,14.658-9.387,21.971-2.374,5.493-4.717,11.033-7.614,16.241-1,1.789-3.672,2.643-5.572,3.926-1.251-1.9-3.292-3.7-3.577-5.73-.728-5.144-.7-10.4-.918-15.608-.617-13.645-1.108-27.305-1.884-40.934a19.921,19.921,0,0,0-2.074-6.981c-1.488-3.245-4.147-6.442-7.74-4.59-2.2,1.14-4.068,4.986-4.179,7.693-.348,7.5.412,15.038.554,22.557.142,7.535.095,15.069.111,22.6,0,1.994.3,4.116-.238,5.968-.681,2.343-2.058,4.464-3.15,6.68-2.137-1.488-5.145-2.517-6.205-4.575a53.7,53.7,0,0,1-4.511-12.948c-3.894-16.906-7.424-33.906-11.334-50.812a9.894,9.894,0,0,0-3.609-5.588c-1.947-1.314-5.144-2.5-6.965-1.741-1.8.76-3.672,4.036-3.609,6.142a161.038,161.038,0,0,0,2.121,22.43c2.374,13.613,5.334,27.115,8.025,40.665a15.9,15.9,0,0,1,.016,2.881c-.538.127-1.092.237-1.63.364Z" transform="translate(133.22 -51.316)" fill="rgba(255,255,255,0.1)" fill-rule="evenodd"/><path d="M178.938,162.408c3.008-1.741,6.268-3.166,8.959-5.3,7-5.54,13.645-11.539,20.657-17.064a35.972,35.972,0,0,1,9.687-5.477c1.567-.57,4.416.285,5.714,1.52,1.9,1.789.222,3.672-1.33,5.271-7,7.107-14.183,14.056-20.8,21.512C192.9,172.919,185.6,183.92,183.2,197.644c-2.264,12.837-7.3,24.757-13.043,36.455-7.487,15.243-11.65,31.516-13.676,48.421-1.6,13.391-4.4,26.641-6.252,40.016-3.324,23.918-6.3,47.883-9.529,71.817-.839,6.173-6.49,57.1-7.313,63.269-.443,3.324-2.042,4-5.034,3.577-7.456-1.061-17.919-2.343-25.39-3.292q-18.758-2.4-37.5-4.8c-6.253-.807-6.632-1.535-5.445-7.74,3.008-15.893,15.972-75.2,22.62-89.957,5.461-12.109,9.054-25.089,12.932-37.848,4.527-14.879,9.086-29.791,12.489-44.955,2.628-11.714,3.546-23.823,5.144-35.758.522-3.926-1.345-7.028-3.846-9.8-4.527-5-8.769-10.321-13.74-14.816-8.6-7.756-14.42-17.27-18.963-27.669-2.913-6.648-8.089-10.479-14.373-13.423-1.931-.9-3.514-2.533-5.255-3.846,1.82-2.374,3.15-5.73,5.54-6.917a14.542,14.542,0,0,1,16.431,2.153,237.753,237.753,0,0,1,18.029,18.14c2.343,2.533,4.765,3.277,7.551,1.757,7.218-3.91,12.584-9.355,14.183-17.887,2.121-11.334,1.187-22.62.7-34.033-.522-12.473,1.156-25.089,2.374-37.578.364-3.736,1.8-7.661,6.031-9.371,4.353-1.757,8.136.253,8.31,4.939a112.59,112.59,0,0,1-.459,15.149c-.981,10.115-1.3,20.2.918,30.17a27.983,27.983,0,0,0,2.96,7.519c1.314,2.327,3.245,2.026,4.147-.475a31.425,31.425,0,0,0,1.361-5.271c2.849-16.1,5.572-32.212,8.516-48.295.9-4.939,3.055-9.418,7.424-12.347,3.846-2.564,7.345-1.156,7.851,3.451a37.8,37.8,0,0,1-.6,9.608c-.981,6.68-2.137,13.328-3.356,19.961-1.725,9.308-3.593,18.583-5.382,27.891-.491,2.549-.95,5.113-1.2,7.677-.253,2.5.791,4.29,3.419,4.86a4.16,4.16,0,0,0,5.287-2.754c5.857-14.088,11.6-28.239,17.745-42.216a42.42,42.42,0,0,1,7.06-10.495,6.3,6.3,0,0,1,8.231-1.171c2.944,1.757,1.757,4.48,1,6.965a271.937,271.937,0,0,1-17.713,45.525c-2.643,5.192-4.116,10.985-6.11,16.51.554.538,1.108,1.061,1.662,1.6Z" transform="translate(-57.021 -73.684)" fill="rgba(255,255,255,0.1)" fill-rule="evenodd"/><path d="M488.964,181.819c-2.754-2.121-5.809-3.941-8.215-6.411-6.237-6.395-12.062-13.186-18.314-19.565a35.936,35.936,0,0,0-8.912-6.664c-1.472-.776-4.416-.269-5.857.776-2.105,1.535-.7,3.609.649,5.4,6.031,7.946,12.284,15.75,17.887,23.981,7.566,11.112,13.407,22.952,14.04,36.882.6,13.027,4.068,25.485,8.279,37.816C494,270.1,496.039,286.767,495.9,303.8c-.127,13.486.95,26.989,1.092,40.475.253,24.155.142,48.295.285,72.45.032,6.237.649,12.458.681,18.678.016,3.356,1.52,4.226,4.527,4.179,7.535-.111,15.069-.032,22.6-.032,12.6,0,25.2.032,37.8.032,6.3,0,6.775-.681,6.395-6.981-.966-16.146-4.733-31.627-9.45-47.092-3.862-12.711-5.762-26.039-7.994-39.193-2.6-15.338-5.208-30.709-6.648-46.174-1.108-11.951-.475-24.076-.538-36.122-.016-3.957,2.232-6.807,5.065-9.228,5.129-4.385,10-9.118,15.528-12.948,9.513-6.6,16.51-15.275,22.335-25.01,3.736-6.221,9.371-9.371,15.972-11.476,2.026-.649,3.8-2.074,5.7-3.134-1.5-2.58-2.39-6.078-4.622-7.566a14.532,14.532,0,0,0-16.573.047,237.706,237.706,0,0,0-20.2,15.687c-2.643,2.2-5.129,2.643-7.725.776-6.664-4.812-11.286-10.89-11.777-19.549-.649-11.524,1.71-22.572,3.641-33.843,2.121-12.315,2.058-25.026,2.438-37.579.111-3.752-.807-7.835-4.8-10.067-4.084-2.3-8.1-.791-8.88,3.831a114.553,114.553,0,0,0-1.488,15.085c-.317,10.162-1.282,20.2-4.765,29.806a27.559,27.559,0,0,1-3.894,7.076c-1.615,2.153-3.467,1.6-4.052-1a32.48,32.48,0,0,1-.681-5.4c-.775-16.32-1.409-32.671-2.279-48.991-.269-5.018-1.82-9.735-5.778-13.186-3.482-3.039-7.139-2.074-8.231,2.422a38.085,38.085,0,0,0-.633,9.608c.127,6.743.412,13.486.792,20.23.522,9.45,1.2,18.9,1.773,28.35.158,2.58.285,5.192.222,7.772-.063,2.5-1.345,4.163-4,4.385a4.166,4.166,0,0,1-4.891-3.4c-4-14.721-7.9-29.49-12.22-44.132a42.377,42.377,0,0,0-5.667-11.318,6.3,6.3,0,0,0-8.009-2.216c-3.15,1.377-2.311,4.211-1.884,6.791a270.633,270.633,0,0,0,11.761,47.408c1.963,5.493,2.675,11.429,3.957,17.159l-1.852,1.377Z" transform="translate(532.984 -40.494)" fill="rgba(255,255,255,0.1)" fill-rule="evenodd"/></g><g transform="translate(50.576 125.025)"><path d="M359.631,138.711c4.052-10.02,8.421-19.945,12.062-30.107,4.116-11.476,7.487-23.221,11.4-34.793,1.44-4.242,3.926-8.374,9.228-7.3,5.429,1.092,6.632,5.7,6.078,10.59-2.549,23.016-6.411,45.6-15.861,67.132a102.619,102.619,0,0,0-8.5,46.744c.174,3.419,2.548,6.743,3.91,10.1,2.739-1.773,5.746-3.261,8.184-5.382,8.611-7.5,16.811-15.513,25.612-22.778,4.765-3.941,10.827-4.084,16.668-2.074,4.432,1.52,4.527,3.324,1.852,7.012-10.827,14.832-23.174,28.936-31.468,45.113-5.319,10.384-12.489,17.127-20.879,24-9.292,7.6-18.156,15.766-26.736,24.187-2.327,2.3-3.546,6.221-4.211,9.608a114.97,114.97,0,0,0-2.374,18.995c-.649,23.87-1.947,47.8-1.029,71.643a369.63,369.63,0,0,0,6.981,57c6.094,30.788,5.271,61.734,4.8,92.743-.127,8.88-.586,8.864-9.513,8.864-26.91,0-53.819-.111-80.713.079-4.986.032-6.474-1.44-6.284-6.458.38-10.147-.063-20.309.047-30.471.443-40.776,1.678-81.457,7.06-122.043,4.052-30.582,8.389-61.021,14.215-91.318,1.6-8.342.032-17.649-1.709-26.181-5.129-25.153-6.886-50.147-1.662-75.568,1.171-5.683-.111-12.394-1.995-18.077-4.828-14.626-10.843-28.857-15.845-43.419a30.682,30.682,0,0,1-1.061-13.2c.253-2.121,3.15-5.1,5.271-5.509,2.01-.38,5.746,1.535,6.648,3.435,4.211,8.769,7.614,17.934,11.492,26.878,2.913,6.712,5.762,13.486,9.323,19.866,1.219,2.184,4.48,3.229,6.822,4.8,1.52-2.327,4.036-4.527,4.385-7.028.9-6.3.839-12.727,1.124-19.09.744-16.7,1.361-33.4,2.3-50.1a24.345,24.345,0,0,1,2.549-8.532c1.82-3.973,5.081-7.883,9.482-5.619,2.691,1.393,4.97,6.094,5.113,9.418.412,9.181-.491,18.394-.681,27.606-.174,9.213-.111,18.441-.127,27.654,0,2.454-.364,5.034.3,7.3.823,2.865,2.533,5.461,3.846,8.168,2.612-1.82,6.284-3.087,7.6-5.588a66.469,66.469,0,0,0,5.524-15.845c4.749-20.689,9.1-41.488,13.866-62.177a12.2,12.2,0,0,1,4.416-6.838c2.374-1.6,6.3-3.055,8.532-2.137,2.216.934,4.5,4.939,4.416,7.519a194.331,194.331,0,0,1-2.6,27.448c-2.9,16.652-6.538,33.178-9.814,49.767a18.747,18.747,0,0,0-.032,3.53C358.3,138.41,358.967,138.552,359.631,138.711Z" transform="translate(339.614 -49.719)" fill="rgba(255,255,255,0.1)" fill-rule="evenodd"/><path d="M120.769,216.384c4-9.893,8.31-19.691,11.919-29.727,4.068-11.334,7.392-22.936,11.255-34.349,1.425-4.195,3.878-8.263,9.118-7.2,5.366,1.076,6.537,5.619,6.015,10.447-2.517,22.715-6.316,45.034-15.655,66.277a101.343,101.343,0,0,0-8.389,46.142c.174,3.387,2.517,6.648,3.862,9.972,2.707-1.757,5.667-3.213,8.073-5.319,8.5-7.408,16.6-15.323,25.295-22.493,4.717-3.894,10.685-4.036,16.447-2.042,4.385,1.5,4.48,3.277,1.82,6.917-10.685,14.642-22.889,28.572-31.073,44.527-5.255,10.257-12.331,16.906-20.61,23.7-9.165,7.5-17.919,15.576-26.387,23.87-2.311,2.264-3.5,6.142-4.163,9.482a113.591,113.591,0,0,0-2.343,18.758c-.633,23.57-1.931,47.2-1.013,70.725a364.1,364.1,0,0,0,6.9,56.273c6.015,30.392,5.208,60.958,4.749,91.572-.127,8.753-.586,8.753-9.4,8.753-26.561,0-53.123-.111-79.684.079-4.923.032-6.395-1.425-6.205-6.363.38-10.02-.063-20.055.047-30.091.443-40.269,1.662-80.428,6.981-120.476,4-30.186,8.279-60.246,14.025-90.163,1.583-8.231.032-17.428-1.678-25.849-5.065-24.836-6.807-49.514-1.646-74.6,1.156-5.6-.111-12.236-1.963-17.839-4.765-14.436-10.7-28.477-15.655-42.865a30.394,30.394,0,0,1-1.045-13.027c.253-2.105,3.118-5.034,5.208-5.429,1.979-.38,5.667,1.52,6.569,3.387,4.163,8.659,7.519,17.713,11.35,26.545A212.928,212.928,0,0,0,52.7,225.581c1.2,2.153,4.432,3.182,6.727,4.733,1.5-2.3,3.973-4.464,4.321-6.933.886-6.221.839-12.553,1.108-18.853.744-16.494,1.345-32.972,2.264-49.45a23.725,23.725,0,0,1,2.517-8.421c1.8-3.91,5.018-7.788,9.355-5.556,2.659,1.361,4.907,6.015,5.05,9.292.412,9.054-.491,18.172-.665,27.258-.174,9.1-.111,18.2-.127,27.305,0,2.422-.364,4.97.285,7.2.807,2.818,2.5,5.382,3.8,8.073,2.58-1.8,6.205-3.055,7.5-5.524a65.707,65.707,0,0,0,5.461-15.639c4.7-20.435,8.975-40.95,13.692-61.386a11.946,11.946,0,0,1,4.353-6.743c2.343-1.583,6.221-3.023,8.421-2.105,2.184.918,4.448,4.875,4.369,7.424a191.939,191.939,0,0,1-2.564,27.1c-2.865,16.446-6.458,32.751-9.687,49.134a18.248,18.248,0,0,0-.032,3.482c.649.142,1.314.285,1.979.427Z" transform="translate(-20.104 69.665)" fill="rgba(255,255,255,0.1)" fill-rule="evenodd"/><path d="M503.561,177.94c3.372-2.6,7.123-4.828,10.067-7.835,7.646-7.82,14.769-16.146,22.43-23.95a43.9,43.9,0,0,1,10.906-8.168c1.8-.95,5.4-.332,7.171.95,2.58,1.884.839,4.432-.807,6.6-7.376,9.735-15.038,19.3-21.908,29.379-9.276,13.613-16.415,28.113-17.206,45.161-.728,15.956-4.986,31.2-10.146,46.332-6.712,19.691-9.213,40.1-9.039,60.958.143,16.526-1.171,33.051-1.345,49.577-.3,29.569-.174,59.154-.348,88.738-.048,7.63-.791,15.259-.839,22.889-.016,4.1-1.852,5.176-5.54,5.129-9.228-.127-18.457-.048-27.685-.032-15.433,0-30.867.047-46.285.032-7.725,0-8.294-.839-7.835-8.564,1.171-19.786,5.809-38.734,11.571-57.681,4.733-15.56,7.06-31.9,9.8-48.01,3.182-18.773,6.379-37.61,8.136-56.558,1.361-14.642.57-29.49.665-44.243.032-4.844-2.738-8.326-6.205-11.3-6.268-5.366-12.252-11.175-19.011-15.861-11.65-8.073-20.214-18.726-27.369-30.645-4.575-7.63-11.476-11.476-19.565-14.056-2.485-.791-4.654-2.533-6.981-3.847,1.836-3.166,2.928-7.44,5.651-9.276a17.824,17.824,0,0,1,20.293.047c8.674,5.778,16.716,12.521,24.741,19.217,3.245,2.707,6.284,3.229,9.45.95,8.152-5.888,13.835-13.328,14.436-23.934.807-14.1-2.089-27.654-4.464-41.457-2.6-15.085-2.517-30.645-2.992-46.031-.143-4.59,1-9.592,5.873-12.331,5-2.818,9.925-.966,10.875,4.7a139.052,139.052,0,0,1,1.82,18.473c.4,12.442,1.567,24.741,5.841,36.5a33.889,33.889,0,0,0,4.78,8.674c1.963,2.628,4.258,1.963,4.955-1.219a38.589,38.589,0,0,0,.823-6.617c.934-19.992,1.725-40,2.786-59.993.333-6.142,2.232-11.919,7.076-16.146,4.258-3.72,8.738-2.549,10.083,2.96.918,3.767.855,7.835.776,11.777-.158,8.263-.507,16.526-.966,24.773-.649,11.587-1.472,23.142-2.169,34.729-.19,3.166-.348,6.347-.269,9.529.079,3.071,1.646,5.1,4.923,5.382,3.15.269,5.129-1.029,5.984-4.179,4.907-18.045,9.672-36.122,14.959-54.057a52.433,52.433,0,0,1,6.933-13.866,7.72,7.72,0,0,1,9.814-2.707c3.847,1.678,2.833,5.16,2.311,8.31-3.245,19.739-7.661,39.161-14.389,58.077-2.39,6.727-3.277,13.993-4.844,21.005.76.554,1.5,1.124,2.264,1.678Z" transform="translate(488.904 -15.454)" fill="rgba(255,255,255,0.1)" fill-rule="evenodd"/><path d="M183.389,144.345c.681-6.379,1.33-11.444,1.741-16.541.807-10.289,1.5-20.578,2.184-30.883.222-3.387.032-6.807.443-10.162a59.334,59.334,0,0,1,2.248-11.824c1.963-5.746,6.205-8.358,10.97-7.63,3.957.6,7.376,5.1,7.44,10.669.127,10.495-.253,20.989-.079,31.484a318.079,318.079,0,0,0,2.248,34.618c1.535-6.015,3.15-12.014,4.575-18.061,2.992-12.743,5.857-25.532,8.864-38.275a22.84,22.84,0,0,1,2.089-5.4c2.042-3.862,5.635-4.67,9.545-4.1s5.429,3.641,5.366,7.06a172.842,172.842,0,0,1-1.33,18.33c-2.042,16.193-4.337,32.371-6.522,48.548-.19,1.44-.744,3.134-.237,4.306,1.013,2.327,2.264,5.065,4.226,6.237,1.045.617,4.511-1.2,5.714-2.818,8.69-11.666,17.016-23.57,25.58-35.331a106.061,106.061,0,0,1,7.709-9.355c2.01-2.184,4.226-5.366,7.693-3.308,3.577,2.121,5.049,5.73,4.052,10.036-2.533,10.89-7.661,20.515-13.977,29.632-2.849,4.116-5.54,8.342-7.994,12.7-5.35,9.466-6.727,19.913-8.389,30.55-2.644,16.89-6.585,33.621-10.827,50.194a56.276,56.276,0,0,0-.633,26.8q10.542,47.583,21.069,95.165c7.487,33.779,15.275,67.511,18.473,102.082.412,4.432-.791,5.445-4.939,5.825q-40.127,3.609-80.191,7.788c-4.575.491-5.841-.839-6.205-5.16-1.836-21.259-4.068-42.485-5.857-63.744-.6-7.234.237-14.595-.507-21.813-2.058-19.913-4.559-39.795-6.981-59.66-2.58-21.179-5.065-42.391-8.025-63.522a42.7,42.7,0,0,0-5.034-15.354,110.733,110.733,0,0,0-14.531-19.945c-10.732-11.381-23.855-17.966-40.127-16.162-1.282.142-2.723.649-3.846.269-3.34-1.14-8.453-1.9-9.355-4.179-1.2-3.071-.253-8.374,1.9-10.985,2.6-3.182,7.171-5.366,11.3-6.553,9.64-2.754,19.217-.586,28.682,1.852,3.118.807,6.316,1.33,9.5,1.9,3.862.7,6.379-1.029,7.155-4.765,2.184-10.431,4.733-20.847-.665-31.215-7.883-15.18-10.21-31.927-13.122-48.485-1.235-7-2.374-14.025-3.118-21.084-.475-4.622.633-9.054,4.353-12.363,5.129-4.559,10.257-3.324,12.426,3.134,4.353,13,8.564,26.039,12.822,39.066,2.374,7.266,6.268,13.613,12.093,20.435Z" transform="translate(100.15 -23.267)" fill="rgba(255,255,255,0.1)" fill-rule="evenodd"/></g><g transform="translate(325.362 232.875)"><path d="M420.951,187.626c-.3-7.281-4.464-13.85-9.323-19.28s-10.526-10.131-14.9-15.972-7.376-13.249-5.809-20.356a17.517,17.517,0,0,1,33.542-2.264,14.2,14.2,0,0,1,11.413-6.094,15.18,15.18,0,0,1,12.157,5.714c4.828,6.158,4.021,15.291.332,22.193-3.7,6.9-9.767,12.157-15.433,17.57-5.667,5.4-9.767,10.985-11.983,18.488Z" transform="translate(266.082 -53.717)" fill="rgba(255,255,255,0.1)"/><path d="M295.125,178.446c.206-16.019-1.14-23-5.952-33.51-4.828-10.511-10.827-20.673-13.122-31.991a24.439,24.439,0,0,1,0-11.619c1.092-3.752,3.831-7.2,7.582-8.326,4.448-1.33,9.387.886,12.363,4.448,6.063,7.25,6.094,18.172,6.253,27.115.823-9.2,4.211-19.074,11.524-24.725,3.055-2.359,7.456-3.941,10.7-1.852,3.356,2.153,3.641,6.917,2.976,10.843-2.184,12.869-10.463,23.712-17.9,34.428s-12.616,20.752-14.42,35.2Z" transform="translate(91.676 -92.61)" fill="rgba(255,255,255,0.1)"/><path d="M162.34,171.285c-1.155-6.363-4.923-11.872-9.339-16.6s-9.513-8.753-14.12-13.3a35.511,35.511,0,0,1-7.835-10.447c-1.789-4-2.327-8.722-.649-12.758a14.314,14.314,0,0,1,10.542-8.231,18.045,18.045,0,0,1,13.249,3.023,24.521,24.521,0,0,1,8.516,10.8c1.187-3.5,2.279-6.917,4.86-9.561,5.018-5.16,13.012-5.144,17.1,1.156,2.833,4.369,2.77,9.988,1.678,14.9-1.757,7.883-5.857,15.069-10.447,21.718S166.6,164.415,162.372,171.3Z" transform="translate(-129.384 -66.755)" fill="rgba(255,255,255,0.1)"/><path d="M232.467,176.208c-.855-5.888-4.97-10.891-9.26-15.038-6.569-6.363-21.322-18.71-13.724-28.382,6.791-8.643,15.639-2.327,20.4,3.91-.871-1.124,2.121-5.619,2.8-6.49a10.321,10.321,0,0,1,5.7-3.831c5.888-1.25,10.21,4.59,11.065,9.782,1.393,8.31-2.659,16.193-6.474,23.237-3.087,5.7-7.44,11.112-10.526,16.811Z" transform="translate(-11.286 -41.729)" fill="rgba(255,255,255,0.1)"/><path d="M351.983,195.755a25.371,25.371,0,0,1,3.324-13.724c2.327-4.195,5.24-8.073,7.139-12.473,1.884-4.4,2.644-9.624.491-13.914a12.317,12.317,0,0,0-13.091-6.237A13.55,13.55,0,0,0,339.557,159.9c.158-.823-2.865-2.865-3.482-3.229a10.582,10.582,0,0,0-4.559-1.456c-7.661-.617-14.04,5.54-12.252,13.36,1.5,6.537,6.363,11.9,11.27,16.209a46.2,46.2,0,0,0,10.621,6.949,44.074,44.074,0,0,0,6.063,2.359c.617.19,2.6,1.108,4.749,1.71v-.032Z" transform="translate(157.732 -6.919)" fill="rgba(255,255,255,0.1)"/></g></g></g></g></svg>