<svg xmlns="http://www.w3.org/2000/svg" xmlns:xlink="http://www.w3.org/1999/xlink" width="1100" height="435" viewBox="0 0 1100 435">
  <defs>
    <clipPath id="clip-path">
      <rect id="Rectangle_22" data-name="Rectangle 22" width="1100" height="435" transform="translate(133 2959)" fill="rgba(183,48,100,0)"/>
    </clipPath>
  </defs>
  <g id="better_future_in_ur_hands_bg" data-name="better future in ur hands bg" transform="translate(-133 -2959)">
    <rect id="Rectangle_23" data-name="Rectangle 23" width="1100" height="435" transform="translate(133 2959)" fill="#b73064"/>
    <g id="Mask_Group_4" data-name="Mask Group 4" clip-path="url(#clip-path)">
      <g id="OBJECTS" transform="translate(133.01 3077.948)">
        <g id="Group_37" data-name="Group 37" transform="translate(-0.01 -0.002)">
          <g id="Group_35" data-name="Group 35">
            <g id="Group_30" data-name="Group 30" transform="translate(137.901 66.551)">
              <path id="Path_27" data-name="Path 27" d="M132.443,80.069c-.885-4.282-1.655-7.665-2.265-11.09-1.219-6.91-2.366-13.834-3.5-20.758-.377-2.279-.479-4.6-.973-6.852a40.046,40.046,0,0,0-2.294-7.853c-1.7-3.76-4.747-5.255-7.926-4.442-2.642.668-4.66,3.934-4.34,7.708.61,7.113,1.553,14.2,2.119,21.31a214.957,214.957,0,0,1,.755,23.589c-1.437-3.977-2.918-7.94-4.282-11.932-2.86-8.434-5.647-16.9-8.507-25.331A15.348,15.348,0,0,0,99.462,40.9c-1.64-2.482-4.123-2.8-6.736-2.148s-3.44,2.831-3.165,5.139a122.01,122.01,0,0,0,2.09,12.324c2.453,10.829,5.066,21.629,7.607,32.444.232.958.711,2.061.436,2.9-.537,1.64-1.19,3.571-2.453,4.5-.668.479-3.136-.523-4.05-1.524-6.648-7.316-13.079-14.85-19.64-22.239a71.233,71.233,0,0,0-5.836-5.821c-1.51-1.35-3.208-3.353-5.429-1.727a5.907,5.907,0,0,0-2.09,7.069c2.424,7.2,6.532,13.384,11.41,19.147,2.192,2.6,4.3,5.284,6.242,8.071,4.253,6.053,5.865,13.036,7.679,20.134,2.889,11.265,6.663,22.326,10.626,33.271a38.465,38.465,0,0,1,2.192,18.1c-2.671,21.934-27.682,346.387-27.581,370,0,3.034.885,3.629,3.716,3.615,18.261-.116,36.537-.145,54.8.014,3.121.029,3.89-.958,3.861-3.9-.16-14.516,13.907-362.093,14.531-376.595a29.1,29.1,0,0,1,2.4-10.728A74.545,74.545,0,0,1,158.6,138.5c6.518-8.4,14.966-13.732,26.1-13.573a6.786,6.786,0,0,0,2.613-.073c2.177-.987,5.6-1.844,6.053-3.44a8.777,8.777,0,0,0-2-7.316c-1.974-1.989-5.211-3.165-8.086-3.7-6.707-1.234-13.05.856-19.307,3.136-2.061.755-4.2,1.321-6.315,1.916-2.569.726-4.384-.276-5.153-2.758-2.163-6.924-4.573-13.8-1.6-21.179,4.34-10.8,4.819-22.282,5.7-33.678.377-4.819.7-9.653.726-14.473a9.459,9.459,0,0,0-3.76-8.086c-3.774-2.744-7.171-1.582-8.2,2.932-2.1,9.087-4.094,18.2-6.126,27.291a40.563,40.563,0,0,1-6.837,14.632Z" transform="translate(-59.793 -28.858)" fill="rgba(255,255,255,0.1)" fill-rule="evenodd"/>
              <path id="Path_28" data-name="Path 28" d="M420.656,150.732c.886-4.282,1.655-7.665,2.264-11.09,1.219-6.91,2.366-13.834,3.5-20.758.378-2.279.479-4.6.973-6.852a40.039,40.039,0,0,1,2.294-7.853c1.7-3.76,4.747-5.255,7.926-4.442,2.642.668,4.66,3.934,4.34,7.708-.61,7.113-1.553,14.2-2.119,21.31a214.984,214.984,0,0,0-.755,23.589c1.437-3.977,2.918-7.94,4.282-11.932,2.86-8.434,5.647-16.9,8.507-25.331a15.341,15.341,0,0,1,1.771-3.513c1.64-2.482,4.123-2.8,6.736-2.148s3.44,2.831,3.165,5.139a122.006,122.006,0,0,1-2.09,12.324c-2.453,10.829-5.066,21.629-7.607,32.444-.232.958-.711,2.061-.435,2.9.537,1.64,1.19,3.571,2.453,4.5.668.479,3.135-.523,4.05-1.524,6.648-7.316,13.079-14.85,19.641-22.239a71.216,71.216,0,0,1,5.836-5.821c1.51-1.35,3.208-3.353,5.429-1.727a5.907,5.907,0,0,1,2.09,7.069c-2.424,7.2-6.532,13.384-11.41,19.147-2.192,2.6-4.3,5.284-6.242,8.071-4.253,6.053-5.864,13.036-7.679,20.134-2.889,11.265-6.663,22.326-10.626,33.271a38.464,38.464,0,0,0-2.192,18.1c2.671,21.934,27.683,346.386,27.581,370,0,3.034-.886,3.629-3.716,3.614-18.262-.116-36.537-.145-54.8.015-3.121.029-3.89-.958-3.861-3.9.16-14.516-13.907-362.093-14.531-376.595a29.092,29.092,0,0,0-2.4-10.727,74.545,74.545,0,0,0-8.536-14.458c-6.518-8.4-14.966-13.732-26.1-13.573a6.786,6.786,0,0,1-2.613-.073c-2.177-.987-5.6-1.844-6.053-3.44a8.777,8.777,0,0,1,2-7.316c1.974-1.989,5.211-3.165,8.071-3.7,6.707-1.234,13.05.856,19.307,3.135,2.061.755,4.2,1.321,6.314,1.916,2.57.726,4.384-.276,5.153-2.758,2.163-6.924,4.573-13.8,1.6-21.179-4.34-10.8-4.819-22.282-5.7-33.678-.377-4.819-.7-9.653-.726-14.473a9.459,9.459,0,0,1,3.76-8.086c3.774-2.744,7.171-1.582,8.2,2.932,2.1,9.087,4.094,18.2,6.126,27.291a40.563,40.563,0,0,0,6.837,14.632Z" transform="translate(331.674 63.424)" fill="rgba(255,255,255,0.1)" fill-rule="evenodd"/>
              <path id="Path_29" data-name="Path 29" d="M474.45,195.112c-.885-4.282-1.655-7.665-2.25-11.09-1.219-6.91-2.366-13.834-3.5-20.758-.377-2.279-.479-4.6-.972-6.852a40.041,40.041,0,0,0-2.294-7.853c-1.7-3.76-4.747-5.255-7.926-4.442-2.642.668-4.66,3.934-4.34,7.708.6,7.113,1.553,14.2,2.119,21.31a214.97,214.97,0,0,1,.755,23.589c-1.437-3.977-2.918-7.94-4.282-11.932-2.86-8.434-5.647-16.9-8.507-25.331a15.949,15.949,0,0,0-1.771-3.513c-1.64-2.482-4.123-2.8-6.736-2.148s-3.44,2.831-3.165,5.139a122.049,122.049,0,0,0,2.09,12.324c2.453,10.829,5.066,21.629,7.607,32.444.232.958.711,2.061.436,2.9-.537,1.64-1.19,3.571-2.453,4.5-.668.479-3.136-.523-4.05-1.524-6.648-7.316-13.079-14.85-19.64-22.239a73.6,73.6,0,0,0-5.836-5.821c-1.51-1.35-3.208-3.353-5.429-1.727a5.907,5.907,0,0,0-2.09,7.069c2.424,7.2,6.532,13.384,11.41,19.147,2.192,2.6,4.3,5.284,6.242,8.071,4.253,6.053,5.865,13.036,7.679,20.134,2.9,11.265,6.663,22.326,10.626,33.271a38.462,38.462,0,0,1,2.192,18.1q-4.007,32.9-8.013,65.817c-2.845,23.371-5.908,46.713-5.806,70.317,0,3.034.885,3.629,3.716,3.615,18.262-.116,36.537-.145,54.8.015,3.121.029,3.89-.958,3.861-3.9-.16-14.516-.029-29.033-.218-43.534-.058-4.936-1.118-9.871-1.089-14.792.087-13.616.479-27.232.813-40.849.348-14.516.639-29.033,1.263-43.534a29.093,29.093,0,0,1,2.4-10.727,74.553,74.553,0,0,1,8.536-14.458c6.518-8.4,14.981-13.732,26.1-13.573a6.786,6.786,0,0,0,2.613-.073c2.177-.987,5.6-1.844,6.053-3.44a8.777,8.777,0,0,0-2-7.316c-1.974-1.989-5.211-3.165-8.086-3.7-6.706-1.234-13.05.856-19.307,3.136-2.061.755-4.2,1.321-6.315,1.916-2.569.726-4.384-.276-5.153-2.758-2.163-6.924-4.573-13.8-1.6-21.179,4.34-10.8,4.819-22.282,5.7-33.678.378-4.819.7-9.653.726-14.473a9.459,9.459,0,0,0-3.76-8.086c-3.774-2.744-7.171-1.582-8.2,2.932-2.1,9.087-4.094,18.2-6.126,27.29a40.565,40.565,0,0,1-6.837,14.632Z" transform="translate(386.868 121.383)" fill="rgba(255,255,255,0.1)" fill-rule="evenodd"/>
              <path id="Path_30" data-name="Path 30" d="M172.151,204.958c-.885-4.282-1.655-7.665-2.25-11.09-1.219-6.91-2.366-13.834-3.5-20.758-.377-2.279-.479-4.6-.973-6.852a40.045,40.045,0,0,0-2.294-7.853c-1.7-3.76-4.747-5.255-7.926-4.442-2.642.668-4.66,3.934-4.34,7.708.6,7.113,1.553,14.2,2.119,21.31a214.957,214.957,0,0,1,.755,23.589c-1.437-3.977-2.918-7.94-4.282-11.932-2.86-8.434-5.647-16.9-8.506-25.331a15.956,15.956,0,0,0-1.771-3.513c-1.64-2.482-4.123-2.8-6.736-2.148s-3.44,2.831-3.165,5.139a122,122,0,0,0,2.09,12.324c2.453,10.829,5.066,21.629,7.607,32.444.232.958.711,2.061.435,2.9-.537,1.64-1.19,3.571-2.453,4.5-.668.479-3.136-.523-4.05-1.524-6.648-7.316-13.079-14.85-19.64-22.239a71.237,71.237,0,0,0-5.836-5.821c-1.51-1.35-3.208-3.353-5.429-1.727a5.912,5.912,0,0,0-2.09,7.069c2.424,7.2,6.532,13.384,11.41,19.147,2.192,2.6,4.3,5.284,6.242,8.071,4.253,6.053,5.865,13.036,7.679,20.134,2.9,11.265,6.663,22.326,10.626,33.271a38.465,38.465,0,0,1,2.192,18.1q-4.007,32.9-8.013,65.817c-2.845,23.371-5.908,46.713-5.807,70.317,0,3.034.886,3.629,3.716,3.615,18.261-.116,36.537-.145,54.8.015,3.121.029,3.89-.958,3.861-3.9-.16-14.516-.029-29.033-.218-43.534-.058-4.936-1.118-9.871-1.089-14.792.087-13.616.479-27.232.813-40.849.348-14.516.639-29.033,1.263-43.534a29.1,29.1,0,0,1,2.4-10.728,74.546,74.546,0,0,1,8.536-14.458c6.518-8.4,14.981-13.732,26.1-13.573a6.787,6.787,0,0,0,2.613-.073c2.177-.987,5.6-1.844,6.053-3.44a8.777,8.777,0,0,0-2-7.316c-1.974-1.989-5.211-3.164-8.086-3.7-6.706-1.234-13.05.856-19.307,3.136-2.061.755-4.2,1.321-6.315,1.916-2.569.726-4.384-.276-5.153-2.758-2.163-6.924-4.573-13.8-1.611-21.179,4.34-10.8,4.819-22.282,5.7-33.678.377-4.819.7-9.653.726-14.473a9.459,9.459,0,0,0-3.76-8.086c-3.774-2.744-7.171-1.582-8.2,2.932-2.1,9.087-4.094,18.189-6.126,27.291a40.564,40.564,0,0,1-6.837,14.632Z" transform="translate(-7.917 134.24)" fill="rgba(255,255,255,0.1)" fill-rule="evenodd"/>
              <path id="Path_31" data-name="Path 31" d="M280.512,164.246c2.061-4.224,4.282-8.4,6.14-12.687,2.09-4.834,3.8-9.784,5.806-14.661.726-1.785,2-3.527,4.7-3.077,2.773.465,3.368,2.4,3.106,4.456-1.292,9.7-3.266,19.219-8.071,28.278a36.7,36.7,0,0,0-4.326,19.7c.087,1.437,1.292,2.845,1.989,4.253a38.118,38.118,0,0,0,4.166-2.265c4.384-3.165,8.565-6.532,13.036-9.6,2.424-1.655,5.5-1.713,8.492-.871,2.265.639,2.308,1.394.944,2.947-5.516,6.257-11.8,12.194-16.026,19-2.715,4.384-6.358,7.215-10.626,10.118-4.732,3.208-9.247,6.648-13.6,10.19a7.518,7.518,0,0,0-2.148,4.05c-.624,2.627-4.6,28.147-4.123,38.192.377,8.042-12.919,191.179-13.166,204.229-.073,3.745-.3,3.731-4.848,3.731-13.7,0-27.392-.044-41.1.044-2.54.014-3.3-.61-3.194-2.715.189-4.268,26.028-188.3,28.771-205.4,2.061-12.89,3.658-45.915,2.773-49.515-2.613-10.6-3.513-21.136-.856-31.834.6-2.4-.058-5.226-1.016-7.621-2.453-6.169-5.516-12.15-8.071-18.29a10.819,10.819,0,0,1-.537-5.56,3.814,3.814,0,0,1,2.686-2.323,4.316,4.316,0,0,1,3.382,1.452c2.148,3.7,3.876,7.563,5.85,11.323a85.414,85.414,0,0,0,4.747,8.376c.624.915,2.279,1.365,3.469,2.018.769-.987,2.047-1.9,2.236-2.961a70.846,70.846,0,0,0,.581-8.042c.377-7.04.7-14.081,1.176-21.107a9.212,9.212,0,0,1,1.292-3.6c.929-1.669,2.584-3.324,4.819-2.366a5.245,5.245,0,0,1,2.613,3.963c.218,3.861-.247,7.752-.348,11.628s-.058,7.766-.073,11.657a9.454,9.454,0,0,0,.145,3.077,21.534,21.534,0,0,0,1.96,3.44c1.321-.769,3.193-1.306,3.861-2.352a25.145,25.145,0,0,0,2.816-6.677c2.424-8.724,4.631-17.478,7.055-26.2a5.1,5.1,0,0,1,2.25-2.874c1.2-.682,3.208-1.292,4.34-.9a3.943,3.943,0,0,1,2.25,3.165,69.233,69.233,0,0,1-1.321,11.569c-1.481,7.011-3.324,13.979-4.994,20.961a6.312,6.312,0,0,0,0,1.481c.334.058.682.116,1.016.189Z" transform="translate(133.314 98.974)" fill="rgba(255,255,255,0.1)" fill-rule="evenodd"/>
            </g>
            <g id="Group_31" data-name="Group 31" transform="translate(30.928)">
              <path id="Path_32" data-name="Path 32" d="M398.029,160.532c2.337-1.786,4.921-3.339,6.953-5.429,5.284-5.415,10.219-11.177,15.518-16.578a30.457,30.457,0,0,1,7.548-5.647c1.248-.653,3.731-.232,4.965.653,1.785,1.292.581,3.063-.552,4.573-5.11,6.736-10.408,13.34-15.155,20.323-6.416,9.421-11.352,19.437-11.9,31.239-.508,11.032-3.455,21.586-7.011,32.052-4.631,13.616-6.373,27.74-6.256,42.17.1,11.424-.813,22.863-.929,34.3-.2,20.453-.116,40.921-.247,61.375-.029,5.284-3.3,126.974-3.324,132.258-.015,2.831-1.277,3.586-3.832,3.542-6.387-.087-12.76-.029-19.147-.029-10.669,0-25.476.029-36.145.029-5.342,0-5.734-.581-5.415-5.923.813-13.689,19.771-178.39,21.658-189.539,2.192-12.992,4.413-26.013,5.632-39.121.944-10.132.406-20.4.45-30.6.015-3.353-1.9-5.763-4.3-7.81-4.34-3.716-8.478-7.723-13.152-10.974-8.057-5.589-13.994-12.948-18.929-21.194-3.165-5.269-7.94-7.94-13.529-9.726a28.018,28.018,0,0,1-4.819-2.656c1.263-2.192,2.018-5.153,3.919-6.416a12.3,12.3,0,0,1,14.037.044,200.781,200.781,0,0,1,17.115,13.3c2.236,1.873,4.355,2.235,6.547.653,5.647-4.079,9.566-9.218,9.987-16.563.552-9.755-1.452-19.132-3.092-28.684-1.786-10.423-1.742-21.208-2.076-31.834-.1-3.165.682-6.634,4.05-8.536,3.469-1.945,6.866-.668,7.519,3.252a96.61,96.61,0,0,1,1.263,12.774c.276,8.608,1.089,17.115,4.036,25.258a23.037,23.037,0,0,0,3.31,6c1.364,1.815,2.947,1.35,3.44-.842a27.01,27.01,0,0,0,.581-4.573c.653-13.834,1.19-27.668,1.931-41.5.232-4.253,1.539-8.245,4.892-11.178,2.947-2.569,6.039-1.756,6.968,2.047a31.762,31.762,0,0,1,.537,8.144q-.174,8.579-.668,17.144c-.45,8.013-1.016,16.011-1.5,24.024-.131,2.192-.247,4.4-.189,6.59a3.432,3.432,0,0,0,3.4,3.716,3.516,3.516,0,0,0,4.137-2.889c3.4-12.484,6.692-24.982,10.35-37.394a35.735,35.735,0,0,1,4.8-9.581,5.341,5.341,0,0,1,6.794-1.873c2.671,1.161,1.96,3.571,1.6,5.748a230.766,230.766,0,0,1-9.958,40.166c-1.655,4.66-2.264,9.682-3.353,14.531.523.392,1.045.769,1.568,1.161Z" transform="translate(355.799 114.251)" fill="rgba(255,255,255,0.1)" fill-rule="evenodd"/>
              <path id="Path_33" data-name="Path 33" d="M198.4,142.1c-1.844-3.847.856-6.794,2-9.973s2.453-6.271,1.887-9.769a3.2,3.2,0,0,1,1.756-3.716c1.568-.74,2.86-.014,3.948,1.132a7.674,7.674,0,0,1,.8,1.219c.218-.073.435-.145.639-.218.247-1.263.523-2.511.755-3.774.523-2.8.856-5.676,1.64-8.4a4.521,4.521,0,0,1,2.555-2.584,3.243,3.243,0,0,1,2.961,1.045,13.18,13.18,0,0,1,1.713,5.923c-.189,5.748-.915,11.468-1.292,17.216a43.862,43.862,0,0,0,.3,8.129c.334-.653.711-1.292.987-1.974,3.339-8.158,7.273-16.084,9.029-24.823.189-.944.058-2.453,1.742-2.453,1.742,0,3.3.508,3.919,2.25a8.834,8.834,0,0,1,.711,4.094c-.915,5.589-2.018,11.163-3.179,16.708-1.074,5.139-2.439,10.219-3.44,15.373a54.822,54.822,0,0,0-.711,8.187,3.129,3.129,0,0,0,.914,2.294c2.715,2.09,5.574,4.021,8.376,6.01,1.8,1.277,3.571,1.132,5.545.247,4.544-2.047,9.1-4.094,13.776-5.777a11.423,11.423,0,0,1,11.686,2.061c2.642,2.177,2.352,4.166-.827,5.458-4.616,1.873-9.407,3.382-13.863,5.574a91.366,91.366,0,0,0-11.816,7.244,14.553,14.553,0,0,0-3.731,4.471c-3.513,5.792-7.592,10.873-13.936,13.95-1.481.711-2.715,2.947-3.121,4.689-2.41,10.394-5.589,20.831-7.621,31.311-1.727,8.884-2.453,17.826-3.615,26.8-.987,7.65-18.929,104.27-19.408,111.978-.1,1.742-.581,2.265-2.323,2.25-11.178-.073-22.355-.029-33.533-.029-2.8,0-2.671-.058-2.54-2.86.784-16.345,27.552-120.253,33.112-135.378,3.469-9.406,7.215-35.405,8.536-38.57,1.742-4.166,1.7-8.492,1.9-12.818.2-4.486.45-8.986.61-13.471a4.6,4.6,0,0,0-.566-2.366c-3.136-5.168-2.511-10.8-2.09-16.389.16-2.09.856-4.123,1.132-6.2.406-3.077.581-3.339,3.687-3.745a5.632,5.632,0,0,0,.944-.3Z" transform="translate(166.337 138.37)" fill="rgba(255,255,255,0.1)" fill-rule="evenodd"/>
              <path id="Path_34" data-name="Path 34" d="M523.361,56.573c2.874-6.024-1.335-10.64-3.135-15.619-1.815-5.008-3.832-9.813-2.947-15.3.407-2.526-.363-4.674-2.758-5.806-2.453-1.161-4.486-.029-6.184,1.771a12.274,12.274,0,0,0-1.248,1.9c-.334-.116-.668-.218-1-.334-.392-1.96-.813-3.934-1.176-5.894-.813-4.4-1.335-8.869-2.569-13.152A7.031,7.031,0,0,0,498.335.1c-1.277-.435-4.079.523-4.631,1.64-1.423,2.86-2.787,6.184-2.685,9.276.29,9,1.423,17.957,2.018,26.957a68.26,68.26,0,0,1-.479,12.716c-.523-1.031-1.118-2.018-1.553-3.077-5.211-12.76-11.4-25.171-14.124-38.845-.29-1.481-.087-3.832-2.729-3.847-2.729-.015-5.168.784-6.14,3.513-.726,2.032-1.437,4.369-1.1,6.4,1.437,8.753,3.15,17.463,4.965,26.144,1.684,8.042,3.818,16,5.385,24.068a83.756,83.756,0,0,1,1.1,12.8,4.9,4.9,0,0,1-1.437,3.6c-4.253,3.281-8.724,6.286-13.123,9.392-2.816,2-5.589,1.785-8.7.392-7.113-3.194-14.24-6.4-21.571-9.044a17.839,17.839,0,0,0-18.29,3.237c-4.123,3.411-3.687,6.532,1.292,8.536,7.229,2.932,14.734,5.3,21.7,8.724a142.136,142.136,0,0,1,18.494,11.337c2.41,1.684,4.268,4.413,5.836,7,5.5,9.073,11.889,17.028,21.8,21.832,2.308,1.118,4.239,4.6,4.877,7.345,3.789,16.273,7.36,32.6,10.553,49.007,2.7,13.907,5.211,27.9,7.026,41.937,1.553,11.976,46.133,285.476,46.887,297.539.174,2.715.9,3.542,3.629,3.528,17.492-.1,35-.044,52.491-.044,4.384,0,4.181-.087,3.963-4.486-1.234-25.578-72.276-364.111-76.922-379.121-1.582-5.139-2.729-10.466-4.79-15.416-2.729-6.518-2.671-13.282-2.976-20.076-.319-7.026-.711-14.066-.944-21.092a7.1,7.1,0,0,1,.885-3.7c4.892-8.086,3.934-16.911,3.266-25.665-.247-3.266-1.35-6.445-1.771-9.711-.624-4.819-.9-5.226-5.777-5.879a10.545,10.545,0,0,1-1.466-.465Z" transform="translate(507.727 0.002)" fill="rgba(255,255,255,0.1)" fill-rule="evenodd"/>
              <path id="Path_35" data-name="Path 35" d="M115.321,118.254c2.337-1.785,4.921-3.339,6.953-5.429,5.284-5.415,10.219-11.177,15.518-16.578A30.459,30.459,0,0,1,145.34,90.6c1.248-.653,3.731-.232,4.965.653,1.786,1.292.581,3.063-.552,4.573-5.11,6.736-10.408,13.34-15.155,20.323-6.416,9.421-11.352,19.437-11.9,31.239-.508,11.032-3.455,21.586-7.011,32.052-4.631,13.616-6.373,27.741-6.257,42.17.1,11.424-15.474,230.315-15.5,235.584-.015,2.831-1.277,3.586-3.832,3.542-6.387-.087-12.76-.029-19.147-.029-10.669,0-21.353.029-32.023.029-5.342,0-5.734-.581-5.415-5.923.813-13.689,26.652-186.04,28.539-197.189,2.192-12.992,4.413-26.013,5.632-39.121.944-10.132.392-20.4.45-30.6.015-3.353-1.9-5.763-4.3-7.81-4.34-3.716-8.478-7.723-13.152-10.974-8.057-5.589-13.994-12.949-18.929-21.194-3.165-5.269-7.94-7.94-13.529-9.726a28.015,28.015,0,0,1-4.819-2.656c1.263-2.192,2.018-5.153,3.919-6.416a12.3,12.3,0,0,1,14.037.044,200.754,200.754,0,0,1,17.115,13.3c2.236,1.873,4.355,2.235,6.547.653,5.647-4.079,9.566-9.218,9.987-16.563.552-9.755-1.452-19.132-3.092-28.684C60.13,87.451,60.174,76.665,59.84,66.039c-.1-3.179.682-6.634,4.065-8.536,3.469-1.945,6.866-.668,7.519,3.252A96.618,96.618,0,0,1,72.687,73.53c.276,8.608,1.089,17.115,4.036,25.258a23.036,23.036,0,0,0,3.31,6c1.365,1.815,2.947,1.35,3.426-.842a26.991,26.991,0,0,0,.581-4.573c.653-13.834,1.19-27.668,1.931-41.5.232-4.253,1.539-8.245,4.892-11.178,2.947-2.569,6.039-1.756,6.968,2.047a31.76,31.76,0,0,1,.537,8.144c-.1,5.719-.348,11.439-.668,17.144-.45,8.013-1.016,16.011-1.5,24.024-.131,2.192-.247,4.4-.174,6.59a3.432,3.432,0,0,0,3.4,3.716,3.516,3.516,0,0,0,4.137-2.889c3.4-12.484,6.692-24.982,10.35-37.394a35.738,35.738,0,0,1,4.8-9.581,5.325,5.325,0,0,1,6.794-1.873c2.671,1.161,1.96,3.571,1.6,5.748a230.769,230.769,0,0,1-9.958,40.166c-1.655,4.66-2.265,9.682-3.353,14.531.523.392,1.045.769,1.568,1.161Z" transform="translate(-13.402 59.038)" fill="rgba(255,255,255,0.1)" fill-rule="evenodd"/>
            </g>
            <g id="Group_32" data-name="Group 32" transform="translate(0 197.734)">
              <path id="Path_36" data-name="Path 36" d="M387.028,172.672c.8-3.876,1.5-6.953,2.047-10.06,1.1-6.271,2.148-12.557,3.179-18.842.334-2.061.421-4.181.886-6.213a37.219,37.219,0,0,1,2.076-7.127c1.553-3.411,4.311-4.761,7.186-4.036,2.4.61,4.224,3.571,3.934,7-.552,6.445-1.408,12.876-1.931,19.336a196.779,196.779,0,0,0-.682,21.4c1.292-3.615,2.642-7.2,3.876-10.829,2.6-7.65,5.124-15.329,7.723-22.979a14.041,14.041,0,0,1,1.611-3.194c1.481-2.25,3.745-2.54,6.111-1.945s3.121,2.569,2.874,4.66a112.277,112.277,0,0,1-1.9,11.177c-2.221,9.827-4.587,19.611-6.9,29.424a5.563,5.563,0,0,0-.392,2.627c.494,1.481,1.089,3.237,2.221,4.079.6.435,2.845-.479,3.673-1.394,6.024-6.648,11.86-13.471,17.812-20.178a67.212,67.212,0,0,1,5.284-5.284c1.365-1.219,2.918-3.048,4.921-1.568a5.34,5.34,0,0,1,1.887,6.4,53.185,53.185,0,0,1-10.35,17.361c-1.989,2.352-3.89,4.79-5.661,7.316-3.847,5.5-5.313,11.831-6.968,18.261-2.627,10.219-6.039,20.25-9.639,30.179a34.935,34.935,0,0,0-1.989,16.418l7.273,59.705c2.584,21.194,5.357,42.373,5.269,63.784,0,2.744-.813,3.3-3.368,3.281q-24.844-.174-49.7.015c-2.831.029-3.542-.871-3.513-3.542.145-13.166.029-26.332.2-39.5.058-4.471,1.016-8.957.987-13.427-.073-12.353-.435-24.707-.74-37.06-.319-13.166-.581-26.332-1.147-39.5A26.167,26.167,0,0,0,371,238.692a67.953,67.953,0,0,0-7.737-13.108c-5.908-7.621-13.587-12.455-23.676-12.31a6.176,6.176,0,0,1-2.381-.073c-1.989-.9-5.081-1.669-5.487-3.121a8,8,0,0,1,1.815-6.634c1.785-1.8,4.718-2.874,7.331-3.353,6.082-1.118,11.845.784,17.507,2.845,1.873.682,3.8,1.19,5.719,1.742,2.337.653,3.977-.247,4.674-2.5,1.96-6.271,4.137-12.513,1.452-19.2-3.934-9.8-4.369-20.221-5.182-30.557-.334-4.369-.624-8.753-.653-13.137a8.547,8.547,0,0,1,3.411-7.331c3.426-2.5,6.5-1.437,7.447,2.671,1.9,8.245,3.7,16.5,5.545,24.765A36.742,36.742,0,0,0,387,172.658Z" transform="translate(433.018 -32.913)" fill="rgba(255,255,255,0.1)" fill-rule="evenodd"/>
              <path id="Path_37" data-name="Path 37" d="M329.429,158.61c2.671-5.589-1.234-9.871-2.9-14.487-1.684-4.645-3.557-9.1-2.729-14.182.378-2.337-.334-4.34-2.555-5.386-2.279-1.074-4.166-.029-5.734,1.64a11.289,11.289,0,0,0-1.161,1.771c-.3-.1-.624-.2-.929-.3-.363-1.829-.755-3.644-1.089-5.473-.755-4.079-1.234-8.231-2.381-12.194a6.554,6.554,0,0,0-3.716-3.745c-1.176-.406-3.789.479-4.3,1.524-1.321,2.656-2.6,5.734-2.5,8.608.276,8.347,1.321,16.665,1.873,25a64.69,64.69,0,0,1-.435,11.8c-.479-.958-1.031-1.873-1.437-2.86-4.834-11.831-10.568-23.342-13.094-36.029-.276-1.379-.073-3.556-2.54-3.571-2.54-.015-4.79.726-5.69,3.266-.668,1.887-1.336,4.05-1.031,5.937,1.336,8.115,2.918,16.2,4.6,24.257,1.568,7.461,3.542,14.85,4.994,22.326a79.128,79.128,0,0,1,1.031,11.874,4.5,4.5,0,0,1-1.336,3.339c-3.948,3.048-8.1,5.836-12.179,8.724-2.613,1.858-5.182,1.655-8.057.363-6.59-2.961-13.21-5.937-20-8.39a16.57,16.57,0,0,0-16.969,2.99c-3.832,3.164-3.411,6.053,1.2,7.926,6.706,2.715,13.66,4.906,20.134,8.1a135.08,135.08,0,0,1,17.158,10.51c2.236,1.553,3.963,4.094,5.415,6.489,5.11,8.419,11.032,15.794,20.236,20.25,2.148,1.045,3.934,4.268,4.529,6.808,3.513,15.1,6.823,30.237,9.784,45.45,2.511,12.9,4.834,25.868,6.518,38.9,1.437,11.1,1.96,22.34,2.656,33.533.16,2.526.842,3.281,3.368,3.266,16.229-.1,32.458-.044,48.7-.044,4.065,0,3.876-.087,3.687-4.166-1.132-23.734-9.363-45.552-17.448-67.5-5.023-13.645-8.753-27.784-13.065-41.705-1.466-4.776-2.526-9.711-4.442-14.3-2.526-6.053-2.482-12.324-2.758-18.61-.3-6.518-.668-13.05-.885-19.568a6.566,6.566,0,0,1,.827-3.44c4.544-7.5,3.644-15.692,3.034-23.807-.232-3.019-1.248-5.981-1.64-9.015-.581-4.471-.842-4.848-5.356-5.444a8.685,8.685,0,0,1-1.365-.435Z" transform="translate(295.91 -59.104)" fill="rgba(255,255,255,0.1)" fill-rule="evenodd"/>
              <path id="Path_38" data-name="Path 38" d="M71.012,145.232c1.016-4.965,1.916-8.9,2.627-12.876,1.423-8.027,2.744-16.07,4.065-24.111.435-2.642.552-5.357,1.132-7.955a45.537,45.537,0,0,1,2.671-9.131c1.974-4.369,5.516-6.1,9.2-5.168,3.063.769,5.4,4.573,5.037,8.957-.7,8.26-1.8,16.49-2.468,24.75a251.345,251.345,0,0,0-.871,27.392c1.655-4.616,3.4-9.218,4.965-13.863,3.324-9.8,6.547-19.626,9.886-29.41a17.948,17.948,0,0,1,2.061-4.079c1.9-2.874,4.79-3.252,7.824-2.5s3.992,3.281,3.673,5.966a136.414,136.414,0,0,1-2.439,14.313c-2.845,12.586-5.879,25.113-8.826,37.67-.261,1.118-.827,2.4-.508,3.368.624,1.9,1.394,4.152,2.845,5.226.769.566,3.644-.61,4.7-1.771,7.723-8.507,15.184-17.245,22.805-25.839a84.979,84.979,0,0,1,6.765-6.765c1.756-1.568,3.731-3.89,6.3-2.018a6.835,6.835,0,0,1,2.424,8.2c-2.816,8.361-7.592,15.547-13.253,22.239-2.555,3.019-4.994,6.14-7.258,9.377-4.936,7.04-6.808,15.155-8.913,23.371-3.368,13.079-7.737,25.926-12.339,38.642a44.723,44.723,0,0,0-2.54,21.02q4.66,38.214,9.3,76.428c3.31,27.131,6.866,54.247,6.75,81.668-.015,3.513-1.031,4.224-4.326,4.2q-31.812-.218-63.639.014c-3.629.029-4.529-1.118-4.486-4.529.174-16.853.029-33.707.247-50.56.073-5.734,1.306-11.453,1.263-17.187-.1-15.808-.552-31.631-.944-47.439-.406-16.853-.755-33.721-1.466-50.56A33.5,33.5,0,0,0,50.5,229.818a86.211,86.211,0,0,0-9.915-16.781c-7.577-9.769-17.39-15.939-30.31-15.765-1.016,0-2.192.3-3.034-.087-2.54-1.147-6.5-2.134-7.04-3.992-.711-2.511.45-6.6,2.323-8.492,2.294-2.308,6.053-3.673,9.377-4.3,7.8-1.437,15.155,1,22.413,3.644,2.4.871,4.863,1.539,7.331,2.221,2.99.842,5.1-.319,5.981-3.194,2.511-8.042,5.313-16.026,1.858-24.591C44.447,145.943,43.9,132.6,42.85,119.364c-.435-5.589-.8-11.207-.842-16.81a10.951,10.951,0,0,1,4.369-9.392c4.384-3.194,8.318-1.829,9.537,3.411,2.439,10.553,4.747,21.136,7.113,31.7,1.321,5.894,3.89,11.178,7.94,16.984Z" transform="translate(0.01 -85.747)" fill="rgba(255,255,255,0.1)" fill-rule="evenodd"/>
            </g>
            <g id="Group_33" data-name="Group 33" transform="translate(131.511 169.916)">
              <path id="Path_39" data-name="Path 39" d="M339.475,189.945c-2.686-2.061-5.661-3.847-8-6.242-6.082-6.227-11.744-12.847-17.841-19.06a34.849,34.849,0,0,0-8.681-6.5c-1.437-.755-4.3-.261-5.7.755-2.047,1.5-.668,3.527.639,5.255,5.879,7.737,11.961,15.344,17.434,23.371,7.374,10.829,13.065,22.37,13.689,35.942.581,12.7,3.977,24.823,8.071,36.857,5.328,15.663,7.331,31.907,7.186,48.5-.116,13.152.929,26.3,1.074,39.455.247,23.531.131,47.062.276,70.607.044,6.068.624,12.136.668,18.2.015,3.266,1.481,4.123,4.413,4.079,7.345-.1,14.69-.029,22.021-.029,12.281,0,24.561.044,36.828.029,6.14,0,6.6-.668,6.227-6.808-.929-15.736-4.616-30.818-9.2-45.9-3.76-12.382-5.618-25.374-7.8-38.192-2.526-14.937-5.066-29.918-6.474-45-1.089-11.657-.465-23.458-.523-35.2-.029-3.861,2.177-6.634,4.936-8.986,4.994-4.268,9.755-8.884,15.126-12.615,9.261-6.431,16.084-14.894,21.774-24.373,3.629-6.068,9.131-9.131,15.561-11.178,1.974-.639,3.716-2.018,5.545-3.063-1.466-2.511-2.322-5.923-4.5-7.374a14.157,14.157,0,0,0-16.142.043A234.806,234.806,0,0,0,416.4,217.8c-2.569,2.148-5.008,2.569-7.52.755-6.489-4.689-11-10.611-11.482-19.045-.639-11.221,1.669-22.007,3.557-33,2.061-11.99,2-24.387,2.381-36.624.116-3.644-.784-7.636-4.66-9.813-3.992-2.25-7.9-.769-8.652,3.745a108.472,108.472,0,0,0-1.437,14.7c-.319,9.9-1.248,19.684-4.645,29.047a26.981,26.981,0,0,1-3.8,6.91c-1.568,2.09-3.382,1.568-3.948-.973a30.407,30.407,0,0,1-.653-5.255c-.755-15.91-1.379-31.834-2.221-47.744-.261-4.892-1.771-9.479-5.632-12.847-3.4-2.961-6.953-2.032-8.013,2.366a37.263,37.263,0,0,0-.624,9.363c.131,6.576.407,13.152.769,19.713.508,9.218,1.161,18.421,1.727,27.624.145,2.526.276,5.052.2,7.577-.073,2.439-1.307,4.05-3.9,4.282a4.055,4.055,0,0,1-4.761-3.324c-3.9-14.357-7.694-28.742-11.9-43.012a42,42,0,0,0-5.516-11.032,6.115,6.115,0,0,0-7.81-2.148c-3.063,1.335-2.25,4.108-1.844,6.619A265.412,265.412,0,0,0,337.457,171.9c1.9,5.357,2.6,11.134,3.861,16.723-.6.45-1.2.886-1.8,1.335Z" transform="translate(257.955 -31.542)" fill="rgba(255,255,255,0.1)" fill-rule="evenodd"/>
              <path id="Path_40" data-name="Path 40" d="M236.9,155.127c-3.034-7.519-6.315-14.937-9.044-22.573-3.092-8.608-5.6-17.4-8.536-26.071-1.074-3.179-2.947-6.271-6.924-5.473-4.079.827-4.965,4.268-4.558,7.926,1.9,17.245,4.8,34.186,11.889,50.313a76.9,76.9,0,0,1,6.373,35.028c-.131,2.569-1.9,5.052-2.932,7.577a50.732,50.732,0,0,1-6.126-4.036c-6.46-5.632-12.6-11.628-19.191-17.071-3.571-2.961-8.115-3.063-12.484-1.553-3.324,1.147-3.4,2.5-1.379,5.255,8.115,11.119,17.376,21.687,23.589,33.808,3.992,7.781,9.363,12.832,15.649,17.986,6.968,5.7,13.6,11.816,20.032,18.131,1.756,1.713,2.656,4.66,3.165,7.2a85.843,85.843,0,0,1,1.786,14.24c.479,17.9,1.466,35.826.769,53.7a276.787,276.787,0,0,1-5.24,42.721c-4.573,23.081-3.948,46.278-3.6,69.5.1,6.648.435,6.648,7.142,6.648,20.163,0,40.326-.087,60.489.073,3.745.029,4.848-1.074,4.718-4.834-.29-7.606.044-15.228-.029-22.834-.334-30.571-1.263-61.055-5.3-91.467-3.034-22.921-6.286-45.741-10.655-68.444-1.2-6.242-.029-13.224,1.278-19.626,3.847-18.857,5.168-37.583,1.248-56.642-.871-4.253.087-9.29,1.5-13.544,3.615-10.96,8.129-21.629,11.874-32.545a23,23,0,0,0,.784-9.9,6.073,6.073,0,0,0-3.948-4.123,5.877,5.877,0,0,0-4.979,2.569c-3.165,6.576-5.7,13.442-8.608,20.149-2.177,5.037-4.326,10.118-6.982,14.894-.915,1.64-3.368,2.424-5.11,3.6-1.147-1.742-3.019-3.4-3.281-5.255-.668-4.718-.639-9.537-.842-14.313-.566-12.513-1.016-25.041-1.727-37.539a18.269,18.269,0,0,0-1.9-6.4c-1.365-2.976-3.8-5.908-7.1-4.21-2.018,1.045-3.731,4.573-3.832,7.055-.319,6.881.377,13.79.508,20.686s.087,13.819.1,20.729c0,1.829.276,3.774-.218,5.473a39.189,39.189,0,0,1-2.889,6.126c-1.96-1.365-4.718-2.308-5.69-4.2a49.242,49.242,0,0,1-4.137-11.874c-3.571-15.5-6.808-31.094-10.394-46.6a9.073,9.073,0,0,0-3.31-5.124c-1.786-1.2-4.718-2.294-6.387-1.6s-3.368,3.7-3.31,5.632a147.681,147.681,0,0,0,1.945,20.57c2.177,12.484,4.892,24.866,7.36,37.292a14.579,14.579,0,0,1,.015,2.642c-.494.116-1,.218-1.5.334Z" transform="translate(107.022 -54.396)" fill="rgba(255,255,255,0.1)" fill-rule="evenodd"/>
              <path id="Path_41" data-name="Path 41" d="M168.825,155.049c2.758-1.6,5.748-2.9,8.216-4.863,6.416-5.081,12.513-10.582,18.944-15.649a32.988,32.988,0,0,1,8.884-5.023c1.437-.523,4.05.261,5.24,1.394,1.742,1.64.2,3.368-1.219,4.834-6.416,6.518-13.007,12.89-19.074,19.728-8.187,9.218-14.879,19.307-17.086,31.892-2.076,11.773-6.692,22.7-11.961,33.431-6.866,13.979-10.684,28.9-12.542,44.405-1.466,12.281-4.036,24.431-5.734,36.7-3.048,21.934-5.777,43.912-8.739,65.86-.769,5.661-5.952,52.36-6.706,58.021-.406,3.048-1.873,3.673-4.616,3.281-6.837-.973-16.432-2.148-23.284-3.019q-17.2-2.2-34.389-4.4c-5.734-.74-6.082-1.408-4.994-7.1,2.758-14.574,14.647-68.967,20.744-82.5,5.008-11.1,8.3-23.008,11.86-34.708,4.152-13.645,8.332-27.32,11.453-41.226,2.41-10.742,3.252-21.847,4.718-32.792.479-3.6-1.234-6.445-3.527-8.986-4.152-4.587-8.042-9.465-12.6-13.587-7.882-7.113-13.224-15.837-17.39-25.374-2.671-6.1-7.418-9.61-13.181-12.31-1.771-.827-3.223-2.323-4.819-3.527,1.669-2.177,2.889-5.255,5.081-6.344a13.336,13.336,0,0,1,15.068,1.974A218.035,218.035,0,0,1,93.7,171.8c2.148,2.323,4.369,3,6.924,1.611,6.619-3.586,11.54-8.579,13.007-16.4,1.945-10.394,1.089-20.744.639-31.21-.479-11.439,1.06-23.008,2.177-34.462.334-3.426,1.655-7.026,5.531-8.594,3.992-1.611,7.461.232,7.621,4.529a103.252,103.252,0,0,1-.421,13.892c-.9,9.276-1.19,18.523.842,27.668a25.662,25.662,0,0,0,2.715,6.9c1.2,2.134,2.976,1.858,3.8-.435a28.819,28.819,0,0,0,1.248-4.834c2.613-14.763,5.11-29.541,7.81-44.289.827-4.529,2.8-8.637,6.808-11.323,3.527-2.352,6.736-1.06,7.2,3.165a34.668,34.668,0,0,1-.552,8.811c-.9,6.126-1.96,12.223-3.077,18.3-1.582,8.536-3.3,17.042-4.936,25.578-.45,2.337-.871,4.689-1.1,7.04-.232,2.294.726,3.934,3.135,4.457a3.815,3.815,0,0,0,4.848-2.526c5.371-12.919,10.64-25.9,16.273-38.715a38.9,38.9,0,0,1,6.474-9.624,5.777,5.777,0,0,1,7.548-1.074c2.7,1.611,1.611,4.108.915,6.387A249.382,249.382,0,0,1,172.89,138.4c-2.424,4.761-3.774,10.074-5.6,15.14.508.494,1.016.973,1.524,1.466Z" transform="translate(-57.021 -73.684)" fill="rgba(255,255,255,0.1)" fill-rule="evenodd"/>
              <path id="Path_42" data-name="Path 42" d="M485.449,174.668c-2.526-1.945-5.327-3.615-7.534-5.879-5.719-5.865-11.061-12.092-16.8-17.942a32.955,32.955,0,0,0-8.173-6.111c-1.35-.711-4.05-.247-5.371.711-1.931,1.408-.639,3.31.6,4.95,5.531,7.287,11.265,14.444,16.4,21.992,6.939,10.19,12.3,21.049,12.876,33.823.552,11.947,3.731,23.371,7.592,34.679,5.023,14.734,6.9,30.02,6.765,45.639-.116,12.368.871,24.75,1,37.118.232,22.152.131,44.289.261,66.441.029,5.719.6,11.424.624,17.129.014,3.077,1.394,3.876,4.152,3.832,6.91-.1,13.819-.029,20.729-.029,11.555,0,23.11.029,34.665.029,5.778,0,6.213-.624,5.865-6.4-.885-14.807-4.34-29-8.666-43.186-3.542-11.657-5.284-23.879-7.331-35.942-2.381-14.066-4.776-28.162-6.1-42.344-1.016-10.96-.435-22.079-.493-33.126-.015-3.629,2.047-6.242,4.645-8.463,4.7-4.021,9.174-8.361,14.24-11.874,8.724-6.053,15.14-14.008,20.482-22.936,3.426-5.7,8.594-8.594,14.647-10.524,1.858-.6,3.484-1.9,5.226-2.874-1.379-2.366-2.192-5.574-4.239-6.939a13.327,13.327,0,0,0-15.2.044A217.992,217.992,0,0,0,557.8,200.87c-2.424,2.018-4.7,2.424-7.084.711-6.111-4.413-10.35-9.987-10.8-17.928-.6-10.568,1.568-20.7,3.339-31.036,1.945-11.294,1.887-22.95,2.236-34.462.1-3.44-.74-7.186-4.4-9.232-3.745-2.1-7.432-.726-8.144,3.513a105.047,105.047,0,0,0-1.365,13.834c-.29,9.319-1.176,18.523-4.369,27.334a25.275,25.275,0,0,1-3.571,6.489c-1.481,1.974-3.179,1.466-3.716-.915a29.782,29.782,0,0,1-.624-4.95c-.711-14.966-1.292-29.962-2.09-44.928-.247-4.6-1.669-8.927-5.3-12.092-3.194-2.787-6.547-1.9-7.549,2.221a34.927,34.927,0,0,0-.581,8.811c.116,6.184.377,12.368.726,18.552.479,8.666,1.1,17.332,1.626,26,.145,2.366.261,4.761.2,7.127-.058,2.294-1.234,3.818-3.673,4.021a3.82,3.82,0,0,1-4.486-3.121c-3.673-13.5-7.244-27.044-11.206-40.471a38.864,38.864,0,0,0-5.2-10.379,5.78,5.78,0,0,0-7.345-2.032c-2.889,1.263-2.12,3.861-1.728,6.227a248.188,248.188,0,0,0,10.785,43.476c1.8,5.037,2.453,10.481,3.629,15.736l-1.7,1.263Z" transform="translate(451.734 -45.065)" fill="rgba(255,255,255,0.1)" fill-rule="evenodd"/>
            </g>
            <g id="Group_34" data-name="Group 34" transform="translate(46.381 114.655)">
              <path id="Path_43" data-name="Path 43" d="M351.17,131.329c3.716-9.189,7.723-18.29,11.061-27.61,3.774-10.524,6.866-21.3,10.452-31.907,1.321-3.89,3.6-7.679,8.463-6.692,4.979,1,6.082,5.226,5.574,9.711-2.337,21.107-5.879,41.821-14.545,61.563a94.108,94.108,0,0,0-7.8,42.866c.16,3.135,2.337,6.184,3.585,9.261,2.511-1.626,5.269-2.99,7.5-4.936,7.9-6.881,15.416-14.226,23.487-20.889,4.369-3.615,9.929-3.745,15.286-1.9,4.064,1.394,4.152,3.048,1.7,6.431-9.929,13.6-21.252,26.536-28.858,41.371-4.877,9.523-11.453,15.707-19.147,22.007-8.521,6.968-16.65,14.458-24.518,22.181-2.134,2.1-3.252,5.7-3.861,8.811a105.434,105.434,0,0,0-2.177,17.419c-.6,21.891-1.786,43.839-.944,65.7a338.971,338.971,0,0,0,6.4,52.273c5.589,28.234,4.834,56.613,4.4,85.051-.116,8.144-.537,8.129-8.724,8.129-24.678,0-49.355-.1-74.018.073-4.573.029-5.937-1.321-5.763-5.923.348-9.3-.058-18.624.043-27.944.406-37.394,1.539-74.7,6.474-111.92,3.716-28.045,7.694-55.96,13.036-83.744,1.466-7.65.029-16.186-1.568-24.01-4.7-23.066-6.315-45.987-1.524-69.3,1.074-5.211-.1-11.366-1.829-16.578-4.427-13.413-9.944-26.463-14.531-39.818A28.137,28.137,0,0,1,257.86,98.9c.232-1.945,2.889-4.674,4.834-5.052,1.844-.348,5.269,1.408,6.1,3.15,3.861,8.042,6.982,16.447,10.539,24.649,2.671,6.155,5.284,12.368,8.55,18.218,1.118,2,4.108,2.961,6.257,4.4,1.394-2.134,3.7-4.152,4.021-6.445.827-5.777.769-11.671,1.031-17.507.682-15.315,1.248-30.629,2.1-45.944a22.326,22.326,0,0,1,2.337-7.824c1.669-3.644,4.66-7.229,8.7-5.153,2.468,1.277,4.558,5.589,4.689,8.637.377,8.419-.45,16.868-.624,25.316s-.1,16.911-.116,25.36c0,2.25-.334,4.616.276,6.692.755,2.627,2.323,5.008,3.527,7.49,2.4-1.669,5.763-2.831,6.968-5.124a60.955,60.955,0,0,0,5.066-14.531c4.355-18.973,8.347-38.047,12.716-57.02a11.184,11.184,0,0,1,4.05-6.271c2.177-1.466,5.777-2.8,7.824-1.96s4.123,4.529,4.05,6.9a178.211,178.211,0,0,1-2.381,25.171c-2.656,15.271-6,30.426-9,45.639a17.192,17.192,0,0,0-.029,3.237C349.951,131.054,350.56,131.184,351.17,131.329Z" transform="translate(290.077 -49.719)" fill="rgba(255,255,255,0.1)" fill-rule="evenodd"/>
              <path id="Path_44" data-name="Path 44" d="M112.419,209.1c3.673-9.073,7.621-18.058,10.931-27.261,3.731-10.394,6.779-21.034,10.321-31.5,1.306-3.847,3.556-7.577,8.361-6.6,4.921.987,6,5.153,5.516,9.581-2.308,20.831-5.792,41.3-14.357,60.779a92.938,92.938,0,0,0-7.694,42.315c.16,3.107,2.308,6.1,3.542,9.145,2.482-1.611,5.2-2.947,7.4-4.877,7.8-6.794,15.228-14.052,23.2-20.628,4.326-3.571,9.8-3.7,15.082-1.873,4.021,1.379,4.108,3,1.669,6.344-9.8,13.428-20.99,26.2-28.5,40.834-4.819,9.406-11.308,15.5-18.9,21.731-8.4,6.881-16.432,14.284-24.2,21.89-2.119,2.076-3.208,5.632-3.818,8.7a104.169,104.169,0,0,0-2.148,17.2c-.581,21.615-1.771,43.287-.929,64.859a333.9,333.9,0,0,0,6.329,51.605c5.516,27.871,4.776,55.9,4.355,83.976-.116,8.027-.537,8.027-8.623,8.027-24.358,0-48.717-.1-73.075.073-4.515.029-5.865-1.307-5.69-5.836.348-9.189-.058-18.392.044-27.6.406-36.929,1.524-73.757,6.4-110.483,3.673-27.682,7.592-55.249,12.861-82.684,1.452-7.548.029-15.982-1.539-23.705-4.645-22.776-6.242-45.407-1.51-68.415,1.06-5.139-.1-11.221-1.8-16.36-4.369-13.239-9.813-26.115-14.357-39.31a27.873,27.873,0,0,1-.958-11.947c.232-1.931,2.86-4.616,4.776-4.979,1.815-.348,5.2,1.394,6.024,3.107,3.818,7.94,6.9,16.244,10.408,24.344A195.264,195.264,0,0,0,50,217.532c1.1,1.974,4.065,2.918,6.169,4.34,1.379-2.1,3.644-4.094,3.963-6.358.813-5.7.769-11.511,1.016-17.289.682-15.126,1.234-30.237,2.076-45.349a21.757,21.757,0,0,1,2.308-7.723c1.655-3.585,4.6-7.142,8.579-5.1,2.439,1.248,4.5,5.516,4.631,8.521.377,8.3-.45,16.665-.61,25s-.1,16.694-.116,25.041c0,2.221-.334,4.558.261,6.6.74,2.584,2.294,4.936,3.484,7.4,2.366-1.655,5.69-2.8,6.881-5.066a60.257,60.257,0,0,0,5.008-14.342c4.311-18.74,8.231-37.553,12.557-56.294a10.955,10.955,0,0,1,3.992-6.184c2.148-1.452,5.7-2.773,7.723-1.931s4.079,4.471,4.006,6.808a176.019,176.019,0,0,1-2.352,24.852c-2.627,15.082-5.923,30.034-8.884,45.058a16.734,16.734,0,0,0-.029,3.194c.6.131,1.2.261,1.815.392Z" transform="translate(-20.104 53.225)" fill="rgba(255,255,255,0.1)" fill-rule="evenodd"/>
              <path id="Path_45" data-name="Path 45" d="M491.338,169.182c3.092-2.381,6.532-4.427,9.232-7.186,7.011-7.171,13.544-14.807,20.569-21.963a40.255,40.255,0,0,1,10-7.49c1.655-.871,4.95-.3,6.576.871,2.366,1.727.769,4.065-.74,6.053-6.765,8.927-13.791,17.7-20.091,26.942-8.507,12.484-15.053,25.781-15.779,41.415-.668,14.632-4.573,28.611-9.3,42.489-6.155,18.058-8.448,36.77-8.289,55.9.131,15.155-1.074,30.31-1.234,45.465-.276,27.116-.16,54.247-.319,81.378-.044,7-.726,13.994-.769,20.99-.014,3.76-1.7,4.747-5.081,4.7-8.463-.116-16.926-.044-25.389-.029-14.153,0-28.307.044-42.445.029-7.084,0-7.607-.769-7.186-7.853,1.074-18.145,5.327-35.521,10.611-52.9,4.34-14.269,6.474-29.25,8.986-44.028,2.918-17.216,5.85-34.491,7.461-51.866,1.248-13.428.523-27.044.61-40.573.029-4.442-2.511-7.635-5.69-10.365-5.748-4.921-11.236-10.248-17.434-14.545-10.684-7.4-18.537-17.173-25.1-28.1-4.2-7-10.524-10.524-17.942-12.89-2.279-.726-4.268-2.323-6.4-3.527,1.684-2.9,2.686-6.823,5.182-8.506a16.345,16.345,0,0,1,18.61.044c7.955,5.3,15.329,11.482,22.689,17.623,2.976,2.482,5.763,2.961,8.666.871,7.476-5.4,12.687-12.223,13.239-21.949.74-12.934-1.916-25.36-4.094-38.018-2.381-13.834-2.308-28.1-2.744-42.213-.131-4.21.915-8.8,5.386-11.308,4.587-2.584,9.1-.885,9.973,4.311a127.518,127.518,0,0,1,1.669,16.94c.363,11.41,1.437,22.689,5.356,33.474a31.078,31.078,0,0,0,4.384,7.955c1.8,2.41,3.9,1.8,4.544-1.118a35.387,35.387,0,0,0,.755-6.068c.857-18.334,1.582-36.683,2.555-55.017.3-5.632,2.047-10.931,6.489-14.807,3.9-3.411,8.013-2.337,9.247,2.715a42.473,42.473,0,0,1,.711,10.8c-.145,7.577-.464,15.155-.885,22.718-.6,10.626-1.35,21.223-1.989,31.849-.174,2.9-.319,5.821-.247,8.739.073,2.816,1.51,4.674,4.514,4.936,2.889.247,4.7-.944,5.487-3.832,4.5-16.548,8.869-33.126,13.718-49.573a48.085,48.085,0,0,1,6.358-12.716,7.079,7.079,0,0,1,9-2.482c3.528,1.539,2.6,4.732,2.119,7.621-2.976,18.1-7.026,35.913-13.2,53.26-2.192,6.169-3,12.832-4.442,19.263.7.508,1.379,1.031,2.076,1.539Z" transform="translate(418.808 -20.172)" fill="rgba(255,255,255,0.1)" fill-rule="evenodd"/>
              <path id="Path_46" data-name="Path 46" d="M176.431,137.945c.624-5.85,1.219-10.5,1.6-15.169.74-9.436,1.379-18.871,2-28.321.2-3.106.029-6.242.406-9.319A54.412,54.412,0,0,1,182.5,74.291c1.8-5.269,5.69-7.665,10.06-7,3.629.552,6.765,4.674,6.823,9.784.116,9.624-.232,19.249-.073,28.873A291.7,291.7,0,0,0,201.37,137.7c1.408-5.516,2.889-11.018,4.2-16.563,2.744-11.686,5.371-23.415,8.129-35.1a20.946,20.946,0,0,1,1.916-4.95c1.873-3.542,5.168-4.282,8.753-3.76s4.979,3.339,4.921,6.474a158.5,158.5,0,0,1-1.219,16.81c-1.873,14.85-3.977,29.686-5.981,44.521-.174,1.321-.682,2.874-.218,3.948.929,2.134,2.076,4.645,3.876,5.719.958.566,4.137-1.1,5.24-2.584,7.969-10.7,15.6-21.615,23.458-32.4a97.269,97.269,0,0,1,7.069-8.579c1.844-2,3.876-4.921,7.055-3.034,3.281,1.945,4.631,5.255,3.716,9.2-2.323,9.987-7.026,18.813-12.818,27.174-2.613,3.774-5.081,7.65-7.331,11.642-4.907,8.681-6.169,18.261-7.694,28.016-2.424,15.489-6.039,30.833-9.929,46.031a51.608,51.608,0,0,0-.581,24.576q9.668,43.636,19.321,87.272c6.866,30.978,14.008,61.912,16.94,93.615.377,4.065-.726,4.994-4.529,5.342q-36.8,3.31-73.539,7.142c-4.2.45-5.357-.769-5.69-4.732-1.684-19.5-3.731-38.962-5.371-58.457-.552-6.634.218-13.384-.465-20-1.887-18.261-4.181-36.494-6.4-54.712-2.366-19.423-4.645-38.874-7.36-58.254a39.155,39.155,0,0,0-4.616-14.081,101.548,101.548,0,0,0-13.326-18.29c-9.842-10.437-21.876-16.476-36.8-14.821-1.176.131-2.5.6-3.527.247-3.063-1.045-7.752-1.742-8.579-3.832-1.1-2.816-.232-7.679,1.742-10.074,2.381-2.918,6.576-4.921,10.365-6.01,8.84-2.526,17.623-.537,26.3,1.7,2.86.74,5.792,1.219,8.71,1.742,3.542.639,5.85-.944,6.561-4.369,2-9.566,4.34-19.118-.61-28.626-7.229-13.921-9.363-29.279-12.034-44.463-1.132-6.416-2.177-12.861-2.86-19.336-.436-4.239.581-8.3,3.992-11.337,4.7-4.181,9.407-3.048,11.4,2.874,3.992,11.918,7.853,23.879,11.758,35.826,2.177,6.663,5.748,12.484,11.09,18.74Z" transform="translate(83.59 -26.91)" fill="rgba(255,255,255,0.1)" fill-rule="evenodd"/>
            </g>
          </g>
          <g id="Group_36" data-name="Group 36" transform="translate(298.375 213.559)">
            <path id="Path_47" data-name="Path 47" d="M418.426,181.875c-.276-6.677-4.094-12.7-8.55-17.681s-9.653-9.29-13.66-14.647-6.765-12.15-5.327-18.668a16.064,16.064,0,0,1,30.76-2.076,13.025,13.025,0,0,1,10.466-5.589,13.921,13.921,0,0,1,11.149,5.24c4.427,5.647,3.687,14.023.3,20.352s-8.957,11.148-14.153,16.113-8.957,10.074-10.989,16.955Z" transform="translate(211.623 -59.073)" fill="rgba(255,255,255,0.1)"/>
            <path id="Path_48" data-name="Path 48" d="M293.485,171.326c.189-14.69-1.045-21.092-5.458-30.731s-9.929-18.958-12.034-29.337a22.412,22.412,0,0,1,0-10.655c1-3.44,3.513-6.6,6.953-7.636,4.079-1.219,8.608.813,11.337,4.079,5.56,6.648,5.589,16.665,5.734,24.866.755-8.434,3.861-17.492,10.568-22.674,2.8-2.163,6.837-3.615,9.813-1.7,3.078,1.974,3.339,6.344,2.729,9.944-2,11.8-9.6,21.745-16.418,31.573s-11.569,19.031-13.224,32.284Z" transform="translate(61.234 -92.61)" fill="rgba(255,255,255,0.1)"/>
            <path id="Path_49" data-name="Path 49" d="M159.607,166.175c-1.06-5.836-4.515-10.887-8.565-15.228s-8.724-8.027-12.948-12.194a32.565,32.565,0,0,1-7.186-9.581,15,15,0,0,1-.6-11.7,13.127,13.127,0,0,1,9.668-7.548,16.548,16.548,0,0,1,12.15,2.773,22.487,22.487,0,0,1,7.81,9.9c1.089-3.208,2.09-6.344,4.456-8.768,4.6-4.732,11.932-4.718,15.678,1.06,2.6,4.006,2.54,9.16,1.539,13.66-1.611,7.229-5.371,13.819-9.581,19.916s-8.521,11.41-12.4,17.724Z" transform="translate(-129.384 -70.315)" fill="rgba(255,255,255,0.1)"/>
            <path id="Path_50" data-name="Path 50" d="M230.385,172.06c-.784-5.4-4.558-9.987-8.492-13.79-6.024-5.836-19.553-17.158-12.586-26.028,6.227-7.926,14.342-2.134,18.711,3.586-.8-1.031,1.945-5.153,2.569-5.952a9.465,9.465,0,0,1,5.226-3.513c5.4-1.147,9.363,4.21,10.147,8.971,1.277,7.621-2.439,14.85-5.937,21.31-2.831,5.226-6.823,10.19-9.653,15.416Z" transform="translate(-27.55 -48.736)" fill="rgba(255,255,255,0.1)"/>
            <path id="Path_51" data-name="Path 51" d="M349.244,191.893a23.266,23.266,0,0,1,3.048-12.586c2.134-3.847,4.8-7.4,6.547-11.439s2.424-8.826.45-12.76a11.3,11.3,0,0,0-12-5.719,12.426,12.426,0,0,0-9.436,9.624c.145-.755-2.627-2.627-3.194-2.961a9.7,9.7,0,0,0-4.181-1.335c-7.026-.566-12.876,5.081-11.236,12.252,1.379,6,5.835,10.916,10.336,14.865a42.369,42.369,0,0,0,9.74,6.373,40.418,40.418,0,0,0,5.56,2.163c.566.174,2.381,1.016,4.355,1.568v-.029Z" transform="translate(118.193 -18.719)" fill="rgba(255,255,255,0.1)"/>
          </g>
        </g>
      </g>
    </g>
  </g>
</svg>
