<svg xmlns="http://www.w3.org/2000/svg" width="1100.001" height="160" viewBox="0 0 1100.001 160"><g transform="translate(-133 -1701)"><path d="M1119,166H93a85.469,85.469,0,0,0,16.611-1.63,83.473,83.473,0,0,0,29.5-12.052,82.824,82.824,0,0,0,12.219-9.777A81.4,81.4,0,0,0,161.415,130.7a79.364,79.364,0,0,0,7.618-13.588A77.441,77.441,0,0,0,175.529,86c0-44.112-37.022-80-82.528-80H1119V166h0Z" transform="translate(114 1695)" fill="#f4f4f4"/><g transform="translate(133 1701)" fill="none" stroke="#b73064" stroke-width="1"><ellipse cx="78.5" cy="80" rx="78.5" ry="80" stroke="none"/><ellipse cx="78.5" cy="80" rx="78" ry="79.5" fill="none"/></g></g></svg>