<svg xmlns="http://www.w3.org/2000/svg" width="20" height="20" viewBox="0 0 20 20">
  <path id="coins" d="M7.5,3.333C7.5,1.492,10.3,0,13.75,0S20,1.492,20,3.333s-2.8,3.333-6.25,3.333S7.5,5.174,7.5,3.333Zm6.25,5a11.019,11.019,0,0,1-2.409-.262,8.754,8.754,0,0,0-5.091-1.4C2.8,6.667,0,8.159,0,10s2.8,3.333,6.25,3.333S12.5,11.841,12.5,10c0-.024-.006-.048-.007-.072H12.5v1.738C12.5,13.507,9.7,15,6.25,15S0,13.507,0,11.667v1.667c0,1.841,2.8,3.333,6.25,3.333s6.25-1.493,6.25-3.333V15c0,1.841-2.8,3.333-6.25,3.333S0,16.841,0,15v1.667C0,18.507,2.8,20,6.25,20s6.25-1.493,6.25-3.333V16.6a11.728,11.728,0,0,0,1.25.067c3.452,0,6.25-1.493,6.25-3.333V11.667c0,1.766-2.577,3.207-5.833,3.323V13.322C17.423,13.207,20,11.767,20,10V8.333c0,1.766-2.577,3.208-5.833,3.322V9.989C17.423,9.874,20,8.433,20,6.667V5C20,6.841,17.2,8.333,13.75,8.333Z" fill="#fff"/>
</svg>
