<svg id="user-add" xmlns="http://www.w3.org/2000/svg" width="29" height="29" viewBox="0 0 29 29">
  <path id="Path_54" data-name="Path 54" d="M349.792,174.292h-2.417v-2.417a1.208,1.208,0,1,0-2.417,0v2.417h-2.417a1.208,1.208,0,0,0,0,2.417h2.417v2.417a1.208,1.208,0,1,0,2.417,0v-2.417h2.417a1.208,1.208,0,0,0,0-2.417Z" transform="translate(-322.001 -161)" fill="#fff"/>
  <ellipse id="Ellipse_6" data-name="Ellipse 6" cx="7" cy="7.5" rx="7" ry="7.5" transform="translate(4)" fill="#fff"/>
  <path id="Path_55" data-name="Path 55" d="M10.875,298.667A10.887,10.887,0,0,0,0,309.542a1.208,1.208,0,0,0,1.208,1.208H20.542a1.208,1.208,0,0,0,1.208-1.208A10.887,10.887,0,0,0,10.875,298.667Z" transform="translate(0 -281.75)" fill="#fff"/>
</svg>
