<svg xmlns="http://www.w3.org/2000/svg" width="16.646" height="15.259" viewBox="0 0 16.646 15.259">
  <g id="envelope" transform="translate(0 -1)">
    <path id="Path_52" data-name="Path 52" d="M16.615,5.542l-5.839,5.839a3.473,3.473,0,0,1-4.905,0L.032,5.542C.022,5.652,0,5.751,0,5.86v8.323a3.472,3.472,0,0,0,3.468,3.468h9.71a3.472,3.472,0,0,0,3.468-3.468V5.86C16.646,5.751,16.624,5.652,16.615,5.542Z" transform="translate(0 -1.392)" fill="#fff"/>
    <path id="Path_53" data-name="Path 53" d="M10.023,9.008l6.335-6.336A3.458,3.458,0,0,0,13.406,1H3.7A3.458,3.458,0,0,0,.744,2.672L7.079,9.008a2.086,2.086,0,0,0,2.944,0Z" transform="translate(-0.228)" fill="#fff"/>
  </g>
</svg>
