<svg xmlns="http://www.w3.org/2000/svg" width="19.998" height="20" viewBox="0 0 19.998 20">
  <g id="exit_1_" data-name="exit (1)" transform="translate(-0.032)">
    <path id="Path_69" data-name="Path 69" d="M6.7,17.5H2.873a.342.342,0,0,1-.341-.341V2.841A.342.342,0,0,1,2.873,2.5H6.7A1.25,1.25,0,0,0,6.7,0H2.873A2.844,2.844,0,0,0,.032,2.841V17.159A2.844,2.844,0,0,0,2.873,20H6.7a1.25,1.25,0,1,0,0-2.5Z" fill="#fff"/>
    <path id="Path_70" data-name="Path 70" d="M121.433,99.6,118.2,96.363a1.25,1.25,0,1,0-1.768,1.768l2.843,2.842L107.948,101a1.25,1.25,0,0,0,0,2.5h0l11.372-.021-2.889,2.889a1.25,1.25,0,0,0,1.768,1.766l3.232-3.232a3.75,3.75,0,0,0,0-5.3h0Z" transform="translate(-102.499 -92.247)" fill="#fff"/>
  </g>
</svg>
