<svg xmlns="http://www.w3.org/2000/svg" width="31" height="31" viewBox="0 0 31 31"><g transform="translate(-0.179 -0.179)"><g transform="translate(0.179 0.179)" fill="none" stroke="#b73064" stroke-width="1"><rect width="31" height="31" stroke="none"/><rect x="0.5" y="0.5" width="30" height="30" fill="none"/></g><path d="M21.168,13.356h0a2.453,2.453,0,0,0-.724-1.717L15.184,6.366a1.227,1.227,0,1,0-1.729,1.741l4.035,4.022H5.226a1.226,1.226,0,1,0,0,2.453H17.489l-4.035,4.035a1.227,1.227,0,1,0,1.729,1.741l5.261-5.273A2.453,2.453,0,0,0,21.168,13.356Z" transform="translate(3.206 2.026)" fill="#b73064"/></g></svg>