<svg xmlns="http://www.w3.org/2000/svg" width="94.505" height="75.336" viewBox="0 0 94.505 75.336">
  <g id="Graphic_Elements" data-name="Graphic Elements" transform="translate(0 0)">
    <g id="Group_49" data-name="Group 49" transform="translate(0 0)">
      <g id="Group_47" data-name="Group 47" transform="translate(0 22.784)">
        <path id="Path_58" data-name="Path 58" d="M12.011,183.654s-2.956-5.91-4.854-7.492-1.056-3.8,2.428-3.271,8.232,6.753,10.553,9.6a7.857,7.857,0,0,0,4.96,3.061c8.548,1.266,11.057,1.872,15.735,9.258,6.013,9.5,1.477,13.929-4.854,13.508a16.492,16.492,0,0,1-9.709-3.587s-8.982-5.671-12.464-7.253S2.621,179.752.827,175.425.4,155.692,2.937,155.8s3.9,1.582,3.9,7.176A47.147,47.147,0,0,0,7.37,171.2" transform="translate(-0.011 -155.796)" fill="#b73064"/>
        <path id="Path_59" data-name="Path 59" d="M379.451,183.654s2.954-5.91,4.854-7.492,1.056-3.8-2.427-3.271-8.232,6.753-10.553,9.6a7.857,7.857,0,0,1-4.96,3.061c-8.548,1.266-11.057,1.872-15.735,9.258-6.013,9.5-1.477,13.929,4.854,13.508a16.492,16.492,0,0,0,9.709-3.587s8.982-5.671,12.464-7.253,11.186-17.729,12.98-22.056.423-19.734-2.11-19.628-3.9,1.582-3.9,7.176a47.152,47.152,0,0,1-.528,8.232" transform="translate(-296.946 -155.796)" fill="#b73064"/>
      </g>
      <g id="Group_48" data-name="Group 48" transform="translate(11.772)">
        <path id="Path_60" data-name="Path 60" d="M212.91,135.85,191,143.28a1.942,1.942,0,0,1-.624.1,1.9,1.9,0,0,1-.626-.1l-21.911-7.43v18.376h.023l-.05.253c0,2.186,10.1,7.068,22.552,7.068s22.524-4.882,22.524-7.068l-.051-.253h.078V135.85Z" transform="translate(-155.043 -115.983)" fill="#b73064"/>
        <path id="Path_61" data-name="Path 61" d="M93.3,16.235l22.538,7.642,22.537-7.642,9.805-3.325,1.955-.662,1.031-.35L115.84,0,80.51,11.9Z" transform="translate(-80.51)" fill="#b73064"/>
      </g>
    </g>
  </g>
</svg>
