<svg xmlns="http://www.w3.org/2000/svg" width="92.43" height="77.191" viewBox="0 0 92.43 77.191">
  <g id="OBJECTS" transform="translate(-0.006 0.004)">
    <g id="Group_22" data-name="Group 22" transform="translate(0.006 -0.004)">
      <path id="Path_22" data-name="Path 22" d="M92.436,19.084a4.247,4.247,0,0,1-2.5,1.926Q68.865,28.464,47.814,35.977a4.44,4.44,0,0,1-3.148-.012q-21.1-7.527-42.212-15C1.145,20.5.111,19.835.014,18.305a2.675,2.675,0,0,1,1.959-2.892c2.056-.762,4.131-1.473,6.2-2.2Q26.534,6.735,44.892.25a3.755,3.755,0,0,1,2.63-.031q21.33,7.538,42.673,15.042A3.971,3.971,0,0,1,92.434,17.1v1.984Z" transform="translate(-0.006 0.004)" fill="#13bb86"/>
      <path id="Path_23" data-name="Path 23" d="M133.124,141.426c0,1.685-.019,3.367,0,5.052a5.132,5.132,0,0,1-1.61,3.88,15.885,15.885,0,0,1-5.888,3.406A53.838,53.838,0,0,1,112.1,156.67a63.348,63.348,0,0,1-22.077-1.661,26.984,26.984,0,0,1-8.387-3.437,6.23,6.23,0,0,1-3.109-5.8c.128-3.242.029-6.493.031-9.74,0-1.111.065-1.147,1.13-.769,7.672,2.731,15.351,5.442,23.015,8.2a8.912,8.912,0,0,0,6.25.012q11.5-4.125,23.017-8.2c1.1-.393,1.147-.371,1.15.827q0,2.661,0,5.322Z" transform="translate(-59.6 -102.5)" fill="#13bb86"/>
      <path id="Path_24" data-name="Path 24" d="M330.661,128.518c0,3.577.012,7.153-.012,10.728a1.655,1.655,0,0,0,.687,1.444,5.476,5.476,0,0,1,.026,8.561,1.752,1.752,0,0,0-.718,1.518q.036,6.132,0,12.261a2.694,2.694,0,0,1-2.295,2.724,2.841,2.841,0,0,1-2.984-1.545,3.217,3.217,0,0,1-.251-1.494c0-4-.01-7.995.012-11.991a1.663,1.663,0,0,0-.685-1.441,5.466,5.466,0,0,1,.027-8.612,1.648,1.648,0,0,0,.656-1.458c-.014-6.522.01-13.042-.029-19.564a1.335,1.335,0,0,1,1.1-1.535c1.208-.357,2.391-.805,3.569-1.253.694-.263.9-.048.9.66-.019,3.666-.01,7.332-.007,11Z" transform="translate(-244.664 -88.611)" fill="#13bb86"/>
    </g>
  </g>
</svg>
