<svg xmlns="http://www.w3.org/2000/svg" width="57.058" height="45.485" viewBox="0 0 57.058 45.485">
  <g id="Graphic_Elements" data-name="Graphic Elements" transform="translate(0 0)">
    <g id="Group_49" data-name="Group 49" transform="translate(0 0)">
      <g id="Group_47" data-name="Group 47" transform="translate(0 13.756)">
        <path id="Path_58" data-name="Path 58" d="M7.256,172.616s-1.784-3.568-2.93-4.523-.637-2.294,1.466-1.975,4.97,4.077,6.371,5.8a4.744,4.744,0,0,0,2.995,1.848c5.161.765,6.676,1.13,9.5,5.59,3.631,5.733.892,8.41-2.93,8.156a9.957,9.957,0,0,1-5.862-2.166s-5.423-3.424-7.525-4.379S1.587,170.26.5,167.647.248,155.733,1.778,155.8s2.357.955,2.357,4.333a28.465,28.465,0,0,0,.319,4.97" transform="translate(-0.011 -155.796)" fill="#fff"/>
        <path id="Path_59" data-name="Path 59" d="M366.913,172.616s1.784-3.568,2.93-4.523.638-2.294-1.466-1.975-4.97,4.077-6.371,5.8a4.744,4.744,0,0,1-2.995,1.848c-5.161.765-6.676,1.13-9.5,5.59-3.631,5.733-.892,8.41,2.93,8.156a9.957,9.957,0,0,0,5.862-2.166s5.423-3.424,7.525-4.379,6.754-10.7,7.837-13.316.255-11.914-1.274-11.851-2.357.955-2.357,4.333a28.469,28.469,0,0,1-.319,4.97" transform="translate(-317.1 -155.796)" fill="#fff"/>
      </g>
      <g id="Group_48" data-name="Group 48" transform="translate(7.108)">
        <path id="Path_60" data-name="Path 60" d="M195.04,135.85l-13.23,4.486a1.173,1.173,0,0,1-.377.063,1.15,1.15,0,0,1-.378-.063l-13.229-4.486v11.095h.014l-.03.153c0,1.32,6.1,4.267,13.616,4.267s13.6-2.947,13.6-4.267l-.031-.153h.047V135.85Z" transform="translate(-160.102 -123.855)" fill="#fff"/>
        <path id="Path_61" data-name="Path 61" d="M88.233,9.8l13.608,4.614L115.448,9.8l5.92-2.008,1.18-.4.622-.211L101.841,0,80.51,7.184Z" transform="translate(-80.51)" fill="#fff"/>
      </g>
    </g>
  </g>
</svg>
