<?xml version="1.0" encoding="UTF-8"?>
<svg id="Layer_2" data-name="Layer 2" xmlns="http://www.w3.org/2000/svg" viewBox="0 0 180.79 114.33">
  <defs>
    <style>
      .cls-1 {
        fill: #fff;
      }
    </style>
  </defs>
  <g id="Layer_1-2" data-name="Layer 1">
    <g>
      <path class="cls-1" d="m21.55,82.15c.48-3.15,2.71-7.46,6.69-12.94,5.28-7.03,15.32-15.32,30.11-24.87.29-.48.29-1.04,0-1.67-.19-.48-.44-.97-.73-1.45-.15-.58.39-1.77,1.6-3.56,2.08-2.47,5.45-6.01,10.11-10.62l1.24.51c2.76,1.89,6.74,5.02,11.93,9.38.97,1.65,1.11,2.98.44,4-3.98,5.14-8.29,8.12-12.94,8.94-14.3,2.57-26.18,9.07-35.63,19.49l-.29.29c-.49.82-.53,1.43-.15,1.82,1.79,1.89,4.22,3.18,7.27,3.85.82.1,3.66.39,8.51.87,6.35.53,11.51.9,15.49,1.09,5.67.29,12.77.44,21.31.44,19.92,0,41.21-.61,63.85-1.82,11.25-.58,18.2-.73,20.87-.44.39.39.48.82.29,1.31-7.32,6.06-19.97,10.18-37.96,12.36l-23.05,2.84-49.01,1.82c-6.16.19-10.08.29-11.78.29-8.34,0-15.3-1.24-20.87-3.71-4.85-2.18-7.27-4.92-7.27-8.22Z"/>
      <path class="cls-1" d="m133.78,114.19c-3.49-1.7-7.51-4.53-12.07-8.51l-7.42,8.65c-6.06-1.41-10.4-4.58-13.02-9.53,5.77-7.37,9.07-11.25,9.89-11.64,3.34,2.96,7.25,5.94,11.71,8.94l9.09-9.38c5.58,4.56,9.79,7.88,12.65,9.96-4.94,5.28-8.56,9.11-10.83,11.49Zm-1.13-35.5c-2.57,5.43-5.5,8.56-8.8,9.38-3.39,1.07-6.42.51-9.09-1.67-1.79-1.07-3.37-3.73-4.73-8-.83-2.42-1.33-9.53-1.53-21.31-.1-2.47-.1-7.2,0-14.18l.73-26.18c.1-2.28.8-5.07,2.11-8.36,1.99-5.04,2.98-7.73,2.98-8.07l.29-.15c.1-.1.19-.15.29-.15.73.29,1.33.61,1.82.95-1.89,14.59-2.45,31.08-1.67,49.45.1,2.57.61,6.38,1.53,11.42,1.36,4.46,3.88,7.1,7.56,7.93.58.19,1.14.29,1.67.29,2.18,0,4.51-1.7,6.98-5.09.39-.97.92-2.5,1.6-4.58.34-.29.8-.8,1.38-1.53.78.19,1.26.99,1.45,2.4.19,4.75-1.33,10.57-4.58,17.45Z"/>
      <path class="cls-1" d="m142.71,4.38c-.34,1.79-.7,4.44-1.09,7.93-.39,4.46-.63,10.62-.73,18.47,0,9.02-.1,15.32-.29,18.91-.39,7.66-2.47,15.66-6.25,24-.73,1.55-1.38,2.33-1.96,2.33-.29,0-.58-.1-.87-.29-.68-.39-.92-1.28-.73-2.69.78-2.67,1.41-9.36,1.89-20.07-.68-8.63-.92-18.3-.73-29.02,1.6-5.38,4.39-12.05,8.36-20,.97-.58,1.77-.44,2.4.44Z"/>
      <path class="cls-1" d="m180.07,44.29c.48,1.99.73,4.02.73,6.11,0,4.07-1.04,8.63-3.13,13.67-.19.39-2.28,4.7-6.25,12.94-.49,1.12-1.62,2.52-3.42,4.22-4.65,1.45-11.8,3.32-21.45,5.6-.68.44-1.16.1-1.45-1.02.19-.29,1.92-1.57,5.16-3.85,2.08-1.5,5.72-3.64,10.91-6.4,4.65-2.37,8.17-4.56,10.54-6.54,1.6-1.79,1.96-4.48,1.09-8.07-1.12-4.27-4.56-7.78-10.33-10.54-.39-.53-.39-1.14,0-1.82.29-.58.61-1.19.95-1.82,1.07-3.73,2.5-8.24,4.29-13.53,2.67.19,5.19,1.43,7.56,3.71,2.08,2.08,3.68,4.53,4.8,7.34Z"/>
      <g>
        <path class="cls-1" d="m16.64,49.36c-.07.01-.14.01-.21-.01-.26-.08-.43-.39-.37-.69.55-3.09,3.43-4.98,3.55-5.06.23-.15.52-.04.66.23.14.27.07.61-.15.76-.03.02-2.65,1.75-3.12,4.37-.04.22-.18.37-.36.4Z"/>
        <g>
          <path class="cls-1" d="m31.81,51.78c-3.43-1.63-5.31-5.95-5.31-5.95,0,0,3.68-1.68,7.11-.06,3.43,1.63,5.31,5.95,5.31,5.95,0,0-3.68,1.68-7.11.06Z"/>
          <path class="cls-1" d="m37.2,52.83c-1.41.29-3.51.43-5.55-.54-3.57-1.69-5.5-6.05-5.58-6.24-.06-.14-.07-.3-.03-.44.04-.14.13-.25.25-.31.03-.01.78-.35,1.92-.59,1.41-.29,3.51-.43,5.55.54,3.57,1.69,5.5,6.05,5.58,6.24.06.14.07.3.03.44-.04.14-.13.25-.25.31-.03.01-.78.35-1.92.59Zm-10.01-6.67c.62,1.18,2.28,3.92,4.77,5.1,1.82.86,3.73.73,5.01.47.51-.1.94-.23,1.24-.34-.62-1.18-2.28-3.92-4.77-5.1-1.82-.86-3.73-.73-5.01-.47-.51.1-.94.23-1.24.34Z"/>
        </g>
        <g>
          <path class="cls-1" d="m29.06,47.4c1.73-.14,4.25.12,7.75,3.34,0,0-5.09-3.23-7.75-3.34Z"/>
          <path class="cls-1" d="m31.56,48.02s2.31,1.53,2.78,2.97c-.56-1.95-1.75-2.74-1.75-2.74l-1.03-.23Z"/>
        </g>
        <path class="cls-1" d="m12.82,53.67c-.15.03-.31-.02-.44-.16-.2-.22-.21-.58-.03-.79.16-.19,3.86-4.6,8.84-3.67.26.05.46.34.43.64-.02.31-.26.51-.52.46-4.49-.84-8,3.33-8.04,3.37-.07.08-.15.13-.24.15Z"/>
        <g>
          <path class="cls-1" d="m19.78,39.85c2.03-2.45,5.4-2.48,5.4-2.48,0,0,.07,3.94-1.96,6.39-2.03,2.45-5.4,2.48-5.4,2.48,0,0-.07-3.94,1.96-6.39Z"/>
          <path class="cls-1" d="m19.21,46.63c-.79.16-1.33.17-1.36.17-.13,0-.26-.06-.36-.17-.1-.11-.15-.26-.16-.41,0-.17-.05-4.19,2.08-6.77,1.3-1.57,3.09-2.21,4.37-2.47.79-.16,1.33-.17,1.35-.17.13,0,.26.06.36.17.1.11.15.26.16.41,0,.17.05,4.19-2.08,6.77-1.3,1.57-3.09,2.21-4.37,2.47Zm-.89-1c.19-.02.41-.06.66-.11,1.14-.23,2.74-.8,3.88-2.17,1.41-1.7,1.74-4.22,1.81-5.38-.19.02-.41.06-.66.11-1.14.23-2.74.8-3.88,2.17-1.41,1.7-1.74,4.22-1.81,5.38Z"/>
        </g>
        <g>
          <path class="cls-1" d="m31.96,47.93c-2.44.21-4.68-1.83-4.68-1.83,0,0,1.72-2.38,4.16-2.58,2.44-.21,4.68,1.83,4.68,1.83,0,0-1.72,2.38-4.16,2.58Z"/>
          <path class="cls-1" d="m32.56,48.41c-.18.04-.35.06-.53.08-2.6.22-4.93-1.87-5.03-1.95-.11-.1-.18-.24-.2-.39-.02-.15.02-.3.1-.42.07-.09,1.62-2.21,3.94-2.69.18-.04.35-.06.53-.08,2.6-.22,4.93,1.87,5.03,1.95.11.1.18.24.2.39.02.15-.02.3-.1.42-.07.09-1.62,2.21-3.94,2.69Zm-4.53-2.38c.74.54,2.28,1.47,3.87,1.33.14-.01.29-.03.44-.06,1.39-.28,2.49-1.3,3.04-1.9-.74-.54-2.28-1.47-3.87-1.33-.14.01-.29.03-.44.06-1.4.29-2.5,1.3-3.04,1.9Z"/>
        </g>
        <path class="cls-1" d="m22.21,46.79c-.2.04-.42-.07-.53-.3-.13-.28-.06-.61.17-.75,1.11-.68,1.6-1.49,2.07-2.28.64-1.07,1.31-2.18,3.36-2.66.26-.06.52.14.59.44.07.3-.09.6-.34.66-1.7.39-2.19,1.21-2.8,2.24-.51.85-1.08,1.81-2.39,2.6-.04.03-.09.04-.13.05Z"/>
        <path class="cls-1" d="m9.75,65.56s-.05.01-.08.01c-.26.05-.52-.16-.58-.47-.06-.3.1-.59.36-.64,0,0,0,0,0,0,1.93-.37,2.61-1.85,3.39-3.56.69-1.51,1.41-3.07,3.05-3.83.24-.11.53.03.64.32.11.29,0,.61-.24.72-1.34.62-1.95,1.95-2.6,3.36-.77,1.69-1.65,3.61-3.96,4.08Z"/>
        <path class="cls-1" d="m10.75,58.38c-.23.05-.47-.11-.56-.38-.1-.29.02-.61.26-.71.04-.02,2.18-.9,2.68-3.14.37-1.65-.21-3.66-1.73-5.97-.17-.25-.13-.6.07-.78.21-.18.51-.12.68.14,1.72,2.62,2.36,4.97,1.9,6.97-.63,2.78-3.14,3.8-3.25,3.84-.02,0-.04.02-.07.02Z"/>
        <g>
          <path class="cls-1" d="m28.76,41.95c-1.77,1.87-4.52,1.7-4.52,1.7,0,0,.11-3.2,1.87-5.06,1.77-1.87,4.52-1.7,4.52-1.7,0,0-.11,3.2-1.87,5.06Z"/>
          <path class="cls-1" d="m25.92,44.06c-.93.19-1.64.15-1.67.15-.13,0-.26-.08-.35-.2-.09-.12-.14-.27-.14-.42,0-.14.14-3.44,2.02-5.43,1-1.06,2.28-1.5,3.18-1.68s1.64-.15,1.67-.15c.13,0,.26.08.35.2.09.12.14.27.14.42,0,.14-.14,3.44-2.02,5.43-1,1.06-2.28,1.5-3.18,1.68Zm-1.14-.98c.25-.02.56-.05.91-.12.78-.16,1.89-.54,2.73-1.43,1.15-1.22,1.54-3.09,1.67-4.07-.25.02-.56.05-.91.12-.78.16-1.89.54-2.73,1.43-1.16,1.22-1.54,3.1-1.67,4.07Z"/>
        </g>
        <g>
          <path class="cls-1" d="m10.82,48.93c-.3-3.23,1.57-5.95,1.57-5.95,0,0,2.36,2.51,2.66,5.74.3,3.23-1.57,5.95-1.57,5.95,0,0-2.36-2.51-2.66-5.74Z"/>
          <path class="cls-1" d="m13.59,55.22s-.04,0-.06,0c-.13,0-.26-.05-.36-.16-.1-.11-2.51-2.7-2.83-6.11-.32-3.41,1.58-6.22,1.67-6.34.08-.12.2-.19.33-.19.13,0,.26.05.36.16.1.11,2.51,2.7,2.83,6.11.32,3.41-1.58,6.22-1.67,6.34-.07.1-.16.16-.27.18Zm-1.12-11.36c-.49.9-1.38,2.87-1.17,5.05.2,2.18,1.45,4.05,2.1,4.88.49-.9,1.38-2.87,1.17-5.05-.2-2.18-1.45-4.04-2.1-4.88Z"/>
        </g>
        <path class="cls-1" d="m12.33,75.95s-.09.01-.14,0c-.27-.03-.47-.31-.46-.62h0s.09-2.68-.78-5.49c-1.14-3.68-3.33-5.88-6.51-6.56-.26-.06-.45-.35-.42-.65.03-.3.27-.51.53-.45,3.52.75,6.05,3.31,7.31,7.38.93,3.02.84,5.79.83,5.9,0,.25-.16.45-.37.49Z"/>
        <path class="cls-1" d="m9.13,65.6c-.16.03-.34-.04-.47-.2-2.8-3.72-2.11-8.75-2.08-8.96.04-.3.29-.49.55-.42.26.07.44.37.39.68,0,.07-.64,4.71,1.83,7.99.18.24.17.59-.02.79-.06.06-.14.1-.21.12Z"/>
        <path class="cls-1" d="m23.72,86.82c-.18.04-.52-.31-.64-.5-.02-.04-1.37-2.21-3.75-4.14-3.14-2.55-6.31-3.07-9.4-1.56-.24.12-.53-.02-.64-.31-.12-.29-.02-.61.22-.73,3.37-1.64,6.96-1.05,10.36,1.72,2.54,2.06,4.06,4.57,4.12,4.68.16.26.11.61-.1.77-.05.04-.11.07-.17.08Z"/>
        <path class="cls-1" d="m18.66,81.48c-.1.02-.21,0-.31-.05-2.65-1.55-4.41-5.08-4.2-8.39.02-.31.25-.52.52-.48.26.04.46.33.44.63-.19,2.86,1.34,5.9,3.62,7.24.24.14.35.48.25.76-.06.16-.19.27-.33.3Z"/>
        <g>
          <path class="cls-1" d="m10.54,54.39c-.27,4.19-3.27,7.12-3.27,7.12,0,0-2.56-3.85-2.29-8.04.27-4.19,3.27-7.12,3.27-7.12,0,0,2.56,3.85,2.29,8.04Z"/>
          <path class="cls-1" d="m7.38,62.07s-.1.01-.15,0c-.13-.02-.25-.11-.34-.23-.11-.16-2.68-4.09-2.39-8.44.28-4.36,3.3-7.36,3.43-7.48.1-.1.23-.14.36-.12.13.02.25.11.34.23.11.16,2.68,4.09,2.39,8.45-.28,4.36-3.3,7.36-3.43,7.48-.06.06-.13.1-.21.11Zm.82-14.86c-.79.93-2.54,3.31-2.74,6.35-.2,3.04,1.21,5.94,1.86,7.1.79-.93,2.54-3.31,2.74-6.35.2-3.04-1.21-5.94-1.86-7.1Z"/>
        </g>
        <g>
          <path class="cls-1" d="m3.78,64.94c-2.01-.68-3.3-3-3.3-3,0,0,1.97-1.23,3.99-.55,2.01.68,3.3,3,3.3,3,0,0-1.97,1.23-3.99.55Z"/>
          <path class="cls-1" d="m6.16,65.6c-.88.18-1.72.14-2.48-.11-2.17-.73-3.54-3.15-3.59-3.25-.07-.13-.1-.29-.07-.44.03-.15.11-.27.22-.34.03-.02.79-.49,1.86-.71.88-.18,1.72-.14,2.48.11,2.17.73,3.54,3.15,3.59,3.25.07.13.1.29.07.44-.03.15-.11.27-.22.34-.03.02-.79.49-1.86.71Zm-4.93-3.4c.48.67,1.43,1.8,2.66,2.21.62.21,1.31.24,2.05.09.44-.09.82-.23,1.09-.35-.48-.67-1.43-1.8-2.66-2.21-.62-.21-1.31-.24-2.04-.09-.44.09-.81.23-1.09.35Z"/>
        </g>
        <g>
          <path class="cls-1" d="m17.15,70.94c-.07,3.01-2.11,5.23-2.11,5.23,0,0-1.94-2.65-1.87-5.66.07-3.01,2.11-5.23,2.11-5.23,0,0,1.94,2.65,1.87,5.66Z"/>
          <path class="cls-1" d="m15.15,76.72s-.08.01-.13,0c-.13-.01-.26-.09-.34-.21-.08-.12-2.06-2.87-1.99-6.06.07-3.2,2.16-5.51,2.25-5.61.09-.1.22-.15.35-.14.13.01.26.09.34.21.08.12,2.06,2.87,1.99,6.06-.07,3.2-2.16,5.51-2.25,5.6-.06.07-.14.11-.23.13Zm.11-10.57c-.56.76-1.57,2.42-1.61,4.41-.04,2,.89,3.86,1.41,4.74.56-.76,1.57-2.42,1.61-4.41.04-1.99-.89-3.86-1.41-4.74Z"/>
        </g>
        <g>
          <path class="cls-1" d="m12.9,83.23c-2.49.64-5.06-1.11-5.06-1.11,0,0,1.47-2.79,3.95-3.43,2.49-.64,5.06,1.11,5.06,1.11,0,0-1.47,2.79-3.95,3.43Z"/>
          <path class="cls-1" d="m12.8,83.83c-2.57.53-5.08-1.16-5.18-1.23-.12-.08-.2-.21-.24-.36-.04-.15-.02-.31.05-.43.06-.12,1.59-2.98,4.24-3.67,2.64-.68,5.3,1.1,5.41,1.18.12.08.2.21.24.36.04.15.02.31-.05.43-.06.12-1.59,2.98-4.24,3.67-.08.02-.15.04-.23.05Zm-4.24-1.9c.83.44,2.55,1.17,4.2.75,1.65-.42,2.83-1.91,3.36-2.7-.83-.44-2.55-1.17-4.2-.75-1.66.43-2.84,1.91-3.36,2.7Z"/>
        </g>
        <g>
          <g>
            <path class="cls-1" d="m23.2,55.72c-3.43-1.63-5.31-5.95-5.31-5.95,0,0,3.68-1.68,7.11-.06,3.43,1.63,5.31,5.95,5.31,5.95,0,0-3.68,1.68-7.11.06Z"/>
            <path class="cls-1" d="m28.6,56.77c-1.41.29-3.51.43-5.55-.54-3.57-1.69-5.5-6.05-5.58-6.24-.06-.14-.07-.3-.03-.44.04-.14.13-.25.25-.31.03-.01.78-.35,1.92-.59,1.41-.29,3.51-.43,5.55.54,3.57,1.69,5.5,6.05,5.58,6.24.06.14.07.3.03.44-.04.14-.13.25-.25.31-.03.01-.78.35-1.92.59Zm-10.01-6.67c.62,1.18,2.28,3.92,4.77,5.1,1.82.86,3.73.73,5.01.47.51-.1.94-.23,1.24-.34-.62-1.18-2.28-3.92-4.77-5.1-1.82-.86-3.73-.73-5.01-.47-.51.1-.94.23-1.24.34Z"/>
          </g>
          <g>
            <path class="cls-1" d="m18.81,50.21c1.51,1.66,3.95,3.66,8.92,3.82,0,0-6.43-1.57-8.92-3.82Z"/>
            <path class="cls-1" d="m21.42,51.86s2.95.65,4.17-.25c-1.58,1.28-3.1.95-3.1.95l-1.06-.7Z"/>
          </g>
        </g>
        <g>
          <path class="cls-1" d="m7.21,59.3c.97-1.94,1.96-4.99.74-10.63,0,0,.45,7.49-.74,10.63Z"/>
          <path class="cls-1" d="m7.87,56.1s-.26-3.42-1.34-4.67c1.49,1.6,1.63,3.37,1.63,3.37l-.29,1.3Z"/>
        </g>
        <g>
          <g>
            <path class="cls-1" d="m17.51,60.24c-1.82,2.59-5.1,2.93-5.1,2.93,0,0-.33-3.87,1.49-6.46,1.82-2.59,5.1-2.93,5.1-2.93,0,0,.33,3.87-1.49,6.46Z"/>
            <path class="cls-1" d="m13,63.64c-.31.06-.51.08-.52.09-.13.01-.26-.04-.37-.14-.1-.1-.17-.25-.18-.4-.01-.17-.33-4.12,1.59-6.85,1.5-2.14,3.92-2.83,4.89-3.03.31-.06.51-.08.52-.09.13-.01.26.04.37.14.1.1.17.25.18.4.01.17.33,4.12-1.59,6.85-1.5,2.14-3.92,2.83-4.89,3.03Zm5.54-9.21c-.93.2-2.99.84-4.26,2.65-1.26,1.8-1.41,4.28-1.41,5.44.93-.2,2.99-.84,4.26-2.65,1.26-1.79,1.41-4.28,1.41-5.44Z"/>
          </g>
          <g>
            <path class="cls-1" d="m13.21,62.02c1.38-.81,3.17-2.34,4.29-6.64,0,0-2.33,5.15-4.29,6.64Z"/>
            <path class="cls-1" d="m14.81,60.23s1.02-2.38.7-3.72c.5,1.77-.03,3.01-.03,3.01l-.67.72Z"/>
          </g>
        </g>
        <g>
          <g>
            <path class="cls-1" d="m9.15,68.67c2.31,2.36,2.73,6.22,2.73,6.22,0,0-3.31.04-5.61-2.32-2.31-2.36-2.73-6.22-2.73-6.22,0,0,3.31-.04,5.61,2.32Z"/>
            <path class="cls-1" d="m12.26,74.24c.07.37.09.6.1.61.02.15-.02.3-.1.42-.08.11-.2.18-.34.18-.14,0-3.53.02-5.95-2.47-1.9-1.94-2.6-4.83-2.81-5.99-.07-.37-.09-.6-.1-.61-.02-.15.02-.3.1-.42.08-.11.2-.18.34-.18.14,0,3.53-.01,5.95,2.47,1.9,1.94,2.6,4.83,2.81,5.99Zm-8.15-7.3c.21,1.1.85,3.58,2.46,5.22,1.6,1.63,3.74,2.04,4.73,2.13-.21-1.1-.85-3.58-2.46-5.22-1.6-1.63-3.74-2.04-4.73-2.13Z"/>
          </g>
          <g>
            <path class="cls-1" d="m10.86,73.85c-.76-1.69-2.15-3.91-5.89-5.61,0,0,4.52,3.18,5.89,5.61Z"/>
            <path class="cls-1" d="m9.25,71.82s-2.09-1.41-3.23-1.15c1.5-.42,2.58.3,2.58.3l.65.85Z"/>
          </g>
        </g>
        <g>
          <path class="cls-1" d="m15.82,80.09c-1.43-.33-3.5-.43-6.38,1.8,0,0,4.19-2.03,6.38-1.8Z"/>
          <path class="cls-1" d="m13.76,80.28s-1.9.97-2.28,2.1c.46-1.53,1.44-2.04,1.44-2.04l.85-.06Z"/>
        </g>
        <g>
          <path class="cls-1" d="m25.12,42.73c1.18-.54,2.73-1.62,3.91-5,0,0-2.22,3.96-3.91,5Z"/>
          <path class="cls-1" d="m26.54,41.42s.98-1.84.8-2.95c.3,1.47-.21,2.42-.21,2.42l-.59.52Z"/>
        </g>
        <g>
          <path class="cls-1" d="m13.54,52.84c-.79-1.42-1.65-3.64-1.07-7.6,0,0,.06,5.32,1.07,7.6Z"/>
          <path class="cls-1" d="m12.9,50.54s.01-2.43.72-3.27c-.98,1.08-.99,2.33-.99,2.33l.27.94Z"/>
        </g>
        <g>
          <path class="cls-1" d="m19.05,45.03c.49-1.81,1.55-4.24,5.14-6.3,0,0-4.15,3.67-5.14,6.3Z"/>
          <path class="cls-1" d="m20.37,42.79s1.93-1.63,3.16-1.45c-1.64-.32-2.63.51-2.63.51l-.52.93Z"/>
        </g>
        <g>
          <path class="cls-1" d="m6.2,63.99c-.73-.73-1.91-1.58-4.21-1.5,0,0,3,.53,4.21,1.5Z"/>
          <path class="cls-1" d="m4.96,63.31s-1.37-.21-1.92.25c.7-.64,1.41-.54,1.41-.54l.51.29Z"/>
        </g>
        <g>
          <path class="cls-1" d="m28.68,45.87c1.11-.71,2.83-1.43,5.98-.42,0,0-4.2-.45-5.98.42Z"/>
          <path class="cls-1" d="m30.49,45.41s1.92.25,2.61,1.09c-.88-1.16-1.87-1.29-1.87-1.29l-.74.2Z"/>
        </g>
        <g>
          <path class="cls-1" d="m15.07,74.36c-.49-1.44-.92-3.6.25-7,0,0-.81,4.74-.25,7Z"/>
          <path class="cls-1" d="m14.86,72.17s.41-2.16,1.19-2.75c-1.07.74-1.29,1.86-1.29,1.86l.1.9Z"/>
        </g>
      </g>
    </g>
  </g>
</svg>