<svg id="OBJECTS" xmlns="http://www.w3.org/2000/svg" width="23.58" height="19.692" viewBox="0 0 23.58 19.692">
  <g id="Group_22" data-name="Group 22">
    <path id="Path_22" data-name="Path 22" d="M23.586,4.866a1.083,1.083,0,0,1-.637.491Q17.573,7.259,12.2,9.175a1.133,1.133,0,0,1-.8,0Q6.018,7.252.63,5.344C.3,5.226.033,5.057.008,4.667a.682.682,0,0,1,.5-.738c.524-.194,1.054-.376,1.582-.562Q6.774,1.715,11.457.061a.958.958,0,0,1,.671-.008Q17.569,1.976,23.014,3.89a1.013,1.013,0,0,1,.571.469v.506Z" transform="translate(-0.006 0.004)" fill="#ef5d5e"/>
    <path id="Path_23" data-name="Path 23" d="M92.453,136.677c0,.43,0,.859,0,1.289a1.309,1.309,0,0,1-.411.99,4.052,4.052,0,0,1-1.5.869,13.735,13.735,0,0,1-3.451.742,16.16,16.16,0,0,1-5.632-.424,6.883,6.883,0,0,1-2.14-.877,1.589,1.589,0,0,1-.793-1.479c.033-.827.007-1.656.008-2.485,0-.283.017-.293.288-.2,1.957.7,3.916,1.388,5.871,2.091a2.273,2.273,0,0,0,1.594,0q2.934-1.052,5.872-2.091c.282-.1.293-.095.293.211q0,.679,0,1.358Z" transform="translate(-73.696 -126.747)" fill="#ef5d5e"/>
    <path id="Path_24" data-name="Path 24" d="M324.476,119.753c0,.912,0,1.825,0,2.737a.422.422,0,0,0,.175.368,1.4,1.4,0,0,1,.007,2.184.447.447,0,0,0-.183.387q.009,1.564,0,3.128a.687.687,0,0,1-.585.695.725.725,0,0,1-.761-.394.821.821,0,0,1-.064-.381c0-1.019,0-2.04,0-3.059a.424.424,0,0,0-.175-.368,1.4,1.4,0,0,1,.007-2.2.42.42,0,0,0,.167-.372c0-1.664,0-3.327-.007-4.991a.341.341,0,0,1,.282-.392c.308-.091.61-.205.911-.32.177-.067.229-.012.229.168,0,.935,0,1.87,0,2.806Z" transform="translate(-302.537 -109.573)" fill="#ef5d5e"/>
  </g>
</svg>
