<svg xmlns="http://www.w3.org/2000/svg" width="77" height="66.168" viewBox="0 0 77 66.168">
  <g id="OBJECTS" transform="translate(0 0.001)">
    <g id="Group_27" data-name="Group 27" transform="translate(0 -0.001)">
      <path id="Path_25" data-name="Path 25" d="M0,30.224a35.4,35.4,0,0,1,1.182-6.177C5.31,11.236,13.923,3.367,27.118.565a38.224,38.224,0,0,1,4.99-.558c.689-.054.994.147.986.9q-.048,4.694,0,9.389c.006.695-.247.887-.921.9A21.96,21.96,0,0,0,11.46,29.024a18.072,18.072,0,0,0-.325,2.9c-.014,1.1-.026,1.1,1.038,1.1H31.928a1.025,1.025,0,0,1,1.154,1.16V65.059c0,1.09-.006,1.1-1.082,1.1H.677c-.225,0-.45-.012-.674-.02V30.222Z" transform="translate(0 0.001)" fill="#dedfdf"/>
      <path id="Path_26" data-name="Path 26" d="M234.678,66.192H219.207c-1.03,0-1.048-.018-1.048-1.056,0-10.639-.2-21.284.048-31.918.331-14.232,7.172-24.424,20.052-30.478A30.941,30.941,0,0,1,250.2.052c1.072-.046,1.1-.012,1.1,1.052,0,3.079-.012,6.159.012,9.238,0,.626-.155.871-.835.9a21.944,21.944,0,0,0-20.947,19.044c-.086.668-.1,1.347-.177,2.017-.066.6.179.777.767.773,4.105-.02,8.212-.01,12.317-.01,2.654,0,5.308.016,7.961-.012.66-.008.917.161.915.875q-.03,15.7,0,31.394c0,.729-.287.883-.931.881-5.231-.016-10.465-.008-15.7-.008Z" transform="translate(-174.305 -0.031)" fill="#dedfdf"/>
    </g>
  </g>
</svg>
