<?xml version="1.0" encoding="UTF-8"?>
<svg id="Layer_2" data-name="Layer 2" xmlns="http://www.w3.org/2000/svg" viewBox="0 0 380.05 383.52">
  <defs>
    <style>
      .cls-1 {
        fill: #b73064;
      }
    </style>
  </defs>
  <g id="Layer_1-2" data-name="Layer 1">
    <g>
      <path class="cls-1" d="m203.23,0c5.49,2.84,8.99,7.03,9.16,13.48.04,1.56,1.07,2.16,2.32,2.54,4.79,1.47,9.38,3.39,13.77,5.78,1.56.85,2.63.58,4.01-.5,7.19-5.6,13.55-5.2,19.95,1.13,3.73,3.68,7.45,7.37,11.11,11.12,5.73,5.86,6.18,12.78,1.05,19.14-1.4,1.73-1.65,3.03-.56,4.96,2.21,3.92,3.95,8.07,5.21,12.39.59,2.02,1.52,3,3.81,3.29,8.56,1.08,12.73,6,12.76,14.6.02,5.36.02,10.73,0,16.09-.04,8.1-4.33,13.24-12.32,14.24-2.54.32-3.69,1.28-4.36,3.63-1.19,4.21-2.94,8.23-5.08,12.04-1.06,1.89-.97,3.2.47,4.97,5.18,6.35,4.77,13.29-.93,19.13-3.92,4.02-7.88,8-11.91,11.9-5.55,5.35-12.63,5.78-18.57.9-2.01-1.65-3.49-1.71-5.62-.51-3.92,2.21-8.1,3.87-12.42,5.14-1.74.51-2.54,1.45-2.81,3.4-1.28,9.09-5.94,13.02-15.11,13.04-5.24.01-10.48.02-15.72,0-7.9-.04-13.16-4.32-14.09-12.04-.35-2.89-1.49-4.07-4.12-4.79-4.09-1.12-7.97-2.89-11.68-4.97-1.72-.96-2.96-1.03-4.67.33-6.87,5.46-13.51,5.03-19.69-1.07-3.82-3.77-7.62-7.55-11.37-11.38-5.62-5.75-6.08-12.64-1.07-18.83,1.47-1.81,1.83-3.2.64-5.28-2.23-3.9-3.96-8.06-5.18-12.4-.59-2.11-1.72-2.87-3.93-3.15-8.32-1.07-12.58-6.05-12.61-14.36-.02-5.49-.03-10.98,0-16.46.04-8.05,4.38-13.11,12.46-14.12,2.36-.29,3.52-1.12,4.15-3.38,1.21-4.33,3.03-8.46,5.2-12.39.96-1.74.98-2.97-.37-4.66-5.48-6.84-5.03-13.44,1.12-19.66,3.77-3.81,7.55-7.62,11.38-11.37,5.74-5.61,12.63-6.06,18.83-1.05,1.81,1.47,3.19,1.84,5.27.63,3.89-2.25,8.08-3.89,12.39-5.22,1.45-.44,2.95-.81,3-2.78.17-6.45,3.7-10.63,9.17-13.47h26.95Zm27.44,95.12c.04-23.02-19.18-42.43-42.05-42.46-23.49-.03-42.56,18.95-42.76,42.55-.19,22.73,19.38,42.29,42.28,42.26,23.31-.03,42.49-19.14,42.53-42.35Z"/>
      <path class="cls-1" d="m212.74,278.69c10.55,3.31,19.99,7.75,28.29,14.31,22.31,17.62,33.28,40.76,33.4,69.1.01,3.1-.34,6.23-.82,9.3-1.12,7.26-6.64,12.08-13.94,12.09-46.63.04-93.27.04-139.9,0-7.4,0-12.95-5.13-13.95-12.53-5.05-37.15,16.36-74.28,51.13-88.64,3.08-1.27,6.23-2.4,9.82-3.78-12.65-9.54-19.24-21.86-18.24-37.48.72-11.3,5.64-20.76,14.2-28.32,16.5-14.58,42.52-13.06,57.4,3.11,14.82,16.1,16.53,44.63-7.38,62.86Z"/>
      <path class="cls-1" d="m284.86,292.41c-21.26-18.23-16.32-43.59-3.72-55.7,13.99-13.45,36.47-13.55,50.5-.28,12.66,11.97,18.07,37.45-3.14,55.74.52,1.05,1.63,1.04,2.52,1.37,30.87,11.49,50.04,39.92,48.99,72.75-.12,3.61-.39,7.25-2.36,10.46-2.6,4.23-6.34,6.72-11.37,6.73-26.69.05-53.38.05-80.07.01-4.38,0-6.38-2.37-5.58-6.32,4.86-24.05.05-46.27-12.78-66.93-3.98-6.42-3.71-7.63,2.67-11.46,4.47-2.68,9.41-4.32,14.34-6.37Z"/>
      <path class="cls-1" d="m51.92,292.34c-20.7-17.37-17.38-42.6-3.83-55.62,14.3-13.75,37.7-13.65,51.24.46,13.63,14.22,15.63,38.36-4.34,55.01,3.6,1.55,7.08,3.01,10.52,4.56,1.59.71,3.13,1.55,4.64,2.42,4.8,2.77,5.41,5.1,2.4,9.67-7.23,10.98-12.16,22.87-14.25,35.87-1.71,10.65-1.99,21.31.45,31.93,1,4.33-.84,6.83-5.29,6.83-26.56.05-53.12.07-79.67-.02-7.53-.03-13.02-5.77-13.58-13.71-2.46-35.04,16.73-64.64,49.63-76.57.57-.21,1.13-.46,2.08-.85Z"/>
      <path class="cls-1" d="m20.1,101.09c.03-11.87,2.38-22.12,7.55-31.6,1.4-2.57,1.14-3.92-1.49-5.22-3.08-1.52-4.55-4.24-4.21-7.68.35-3.5,2.59-5.52,5.79-6.61,8.96-3.05,17.9-6.17,26.89-9.12,6.34-2.08,10.26.17,11.59,6.59,1.88,9.02,3.63,18.06,5.37,27.11.69,3.6.48,7.01-2.96,9.33-2.94,1.99-5.93,1.73-8.76-.13-2.52-1.66-3.75-.77-4.66,1.78-5.04,14.13-3.16,26.99,7.13,38.17,6.77,7.36,6.86,11.4-.14,18.41-2.11,2.12-4.17,4.29-6.37,6.32-4.47,4.15-9.63,4.37-14.08.27-12.83-11.82-20.06-26.44-21.4-43.9-.12-1.61-.22-3.23-.25-3.74Z"/>
      <path class="cls-1" d="m359.22,91.8c.34,10.73-2.31,20.77-7.27,30.2-1.26,2.4-1.57,3.93,1.29,5.28,3.09,1.46,4.63,4.17,4.34,7.62-.3,3.51-2.48,5.6-5.69,6.7-9.08,3.11-18.15,6.28-27.28,9.25-6.07,1.97-10-.37-11.3-6.62-1.88-9.03-3.64-18.08-5.38-27.14-.66-3.44-.57-6.77,2.62-9.14,3.13-2.34,6.31-1.97,9.4.04,2.19,1.43,3.38.67,4.2-1.56,5.08-13.62,3.45-26.17-5.94-37.49-1.27-1.53-2.8-2.86-4.01-4.44-2.71-3.54-2.82-7.97-.07-11.44,3.18-4.01,6.85-7.62,10.77-10.89,4.13-3.43,9.1-2.89,13.5,1.24,10.61,9.97,17.19,22.17,19.97,36.45.77,3.95.87,7.92.85,11.91Z"/>
    </g>
  </g>
</svg>