<svg xmlns="http://www.w3.org/2000/svg" xmlns:xlink="http://www.w3.org/1999/xlink" width="40.182" height="69.1" viewBox="0 0 40.182 69.1"><defs><clipPath id="a"><rect width="40.182" height="69.1" fill="#b73064"/></clipPath></defs><g clip-path="url(#a)"><path d="M106.848,17.943a2.969,2.969,0,0,1,.4,1.6c-.058.553.2.742.712.686.7.064,1.056-.335,1.332-.916q4.218-8.876,8.453-17.744c.514-1.079.2-1.555-1.029-1.557-2.794-.005-5.588.018-8.382-.015a1.4,1.4,0,0,0-1.473.92c-1.232,2.647-2.5,5.278-3.777,7.9a1.332,1.332,0,0,0,.01,1.287c1.264,2.6,2.5,5.222,3.753,7.831" transform="translate(-81.984 -0.001)" fill="#b73064"/><path d="M20.067,142.229a20.081,20.081,0,0,0,.012,40.161,20.081,20.081,0,1,0-.012-40.161m.062,35.507A15.4,15.4,0,1,1,35.493,162.29a15.325,15.325,0,0,1-15.364,15.446" transform="translate(0 -113.293)" fill="#b73064"/><path d="M29.257,19.333a1.437,1.437,0,0,0,1.48.943c1.4-.032,2.8.01,4.195-.017.568-.011.77.2.744.76a21.316,21.316,0,0,0,0,2.211c.036.62-.221.782-.8.774-2.008-.026-4.017-.016-6.026-.007a2.4,2.4,0,0,0-2.6,2.546c-.025.838-.008,1.678-.007,2.517,0,1.184.009,1.182,1.048.688a21.262,21.262,0,0,1,12.173-1.87,20.624,20.624,0,0,1,6.455,1.983c.311.154.77.506.781-.239a29.872,29.872,0,0,0-.061-3.5A2.244,2.244,0,0,0,44.2,24c-1.7-.013-3.407,0-5.111,0-1.8,0-1.8,0-1.8-1.817,0-1.853,0-1.853,1.866-1.912h.076c1.036-.049,1.382-.578.937-1.514Q35.9,9.763,31.61.782A1.168,1.168,0,0,0,30.417.033c-1.449.023-2.9.008-4.348.008-1.424,0-2.848-.007-4.272,0-1.176.006-1.5.483-1,1.529q4.225,8.883,8.458,17.763" transform="translate(-16.388 -0.026)" fill="#b73064"/><path d="M43.477,171.548a14.121,14.121,0,1,0,14.1,14.18,14.085,14.085,0,0,0-14.1-14.18" transform="translate(-23.394 -136.647)" fill="#b73064"/><path d="M76.777,218.159q2.284-2.45,3.416-3.749a16.028,16.028,0,0,0,1.692-2.243,3.429,3.429,0,0,0,.561-1.713,1.5,1.5,0,0,0-.426-1.122,1.523,1.523,0,0,0-1.111-.415,3.039,3.039,0,0,0-2.409,1.557l-2.139-1.516a6.537,6.537,0,0,1,2.191-2.077,5.415,5.415,0,0,1,2.669-.685,4.856,4.856,0,0,1,2.16.467,3.6,3.6,0,0,1,1.506,1.35,3.825,3.825,0,0,1,.55,2.066,6.033,6.033,0,0,1-1.132,3.344,29.343,29.343,0,0,1-3.686,4.237h4.839l-.228,2.679H76.777Z" transform="translate(-60.826 -164.246)" fill="#fff"/></g></svg>