<svg xmlns="http://www.w3.org/2000/svg" width="21.205" height="29" viewBox="0 0 21.205 29">
  <g id="OBJECTS" transform="translate(0.002 0.001)">
    <g id="Group_38" data-name="Group 38" transform="translate(-0.002 -0.002)">
      <path id="Path_56" data-name="Path 56" d="M6.989,87.976a8.474,8.474,0,0,1-4.877-3.851A12.249,12.249,0,0,1,.064,78.292a5.677,5.677,0,0,1,.1-2.271A3.628,3.628,0,0,1,3.63,73.473c.753,0,.649-.106.656.661.005.565,0,1.132,0,1.7a.594.594,0,0,0,.3.568c.132.074.24.079.234-.122,0-.085,0-.17,0-.255q0-5.163,0-10.325A1.85,1.85,0,0,1,6.806,63.8a1.888,1.888,0,0,1,1.714,2q.006,4.144,0,8.288c0,.1,0,.208.007.311a.254.254,0,0,0,.5.055,1.09,1.09,0,0,0,.032-.306c0-.82,0-1.64,0-2.461a1.829,1.829,0,1,1,3.659,0c0,.811,0,1.621,0,2.433a1.353,1.353,0,0,0,.008.254c.03.161.107.293.3.274.173-.017.232-.141.233-.3,0-.462-.005-.924,0-1.386A1.883,1.883,0,0,1,15,71.045a1.854,1.854,0,0,1,1.953,1.779c.014.481,0,.962,0,1.442,0,.2.036.385.272.381s.274-.2.263-.389a1.853,1.853,0,1,1,3.7-.058c.01,1.151,0,2.3,0,3.451,0,1.4.02,2.792,0,4.186a6.031,6.031,0,0,1-3.159,5.42,6.456,6.456,0,0,1-2.16.717H6.988Z" transform="translate(0.002 -58.976)" fill="#fff"/>
      <path id="Path_57" data-name="Path 57" d="M17.852,7.75c0,.452,0,.9,0,1.357,0,.107.055.259-.059.312s-.188-.094-.262-.169a5.411,5.411,0,0,1-.453-7.084,5.458,5.458,0,0,1,9.768,2.56,5.324,5.324,0,0,1-1.155,4.127c-.052.067-.113.126-.167.192a.309.309,0,0,1-.362.069c-.15-.041-.14-.159-.14-.272,0-.707.008-1.414,0-2.12A3.442,3.442,0,0,0,22.888,3.4a3.406,3.406,0,0,0-3.928.674,3.3,3.3,0,0,0-1.1,2.43c-.009.414,0,.829,0,1.244h0Z" transform="translate(-14.76 0.002)" fill="#fff"/>
    </g>
  </g>
</svg>
