<svg xmlns="http://www.w3.org/2000/svg" width="28.996" height="29" viewBox="0 0 28.996 29">
  <path id="hand-holding-heart" d="M19.333,3.323c0,2.614-3.407,5.862-5.105,7.223a1.5,1.5,0,0,1-1.873,0c-1.7-1.363-5.105-4.61-5.105-7.223A3.183,3.183,0,0,1,10.271,0a3.183,3.183,0,0,1,3.021,3.323A3.183,3.183,0,0,1,16.312,0a3.183,3.183,0,0,1,3.021,3.323Zm8.867,11.6L18.9,25.084A12.083,12.083,0,0,1,9.983,29H4.833A4.833,4.833,0,0,1,0,24.167V18.125a4.833,4.833,0,0,1,4.833-4.833h9.409a2.68,2.68,0,0,1,2.615,3.244,2.755,2.755,0,0,1-2.344,2.093l-5.03.7A1.208,1.208,0,0,0,8.458,20.7h0a1.208,1.208,0,0,0,1.367,1.026L14.963,21a5.116,5.116,0,0,0,4.371-5.035,4.931,4.931,0,0,0-.079-.771l4.28-4.516A3.151,3.151,0,0,1,28.2,14.917Z" fill="#fff"/>
</svg>
