<svg xmlns="http://www.w3.org/2000/svg" width="87.142" height="76.983" viewBox="0 0 87.142 76.983">
  <g id="OBJECTS" transform="translate(0 0)">
    <g id="Group_9" data-name="Group 9" transform="translate(0 0)">
      <path id="Path_16" data-name="Path 16" d="M135.217,32.264a24.96,24.96,0,0,1-2,6.821,21.545,21.545,0,0,1-4.558,6.3c-1.706,1.62-3.458,3.188-5.165,4.81-.5.47-.832.5-1.327-.016q-2.427-2.505-4.926-4.935a8.364,8.364,0,0,0-13.274,1.545,7.083,7.083,0,0,0-1.041,3.2c-.041.65-.245.979-1,1.057a8.182,8.182,0,0,0-7.335,7.4c-.066.62-.3.841-.938.923a8.325,8.325,0,0,0-5.131,14.042c1.329,1.4,2.7,2.747,4.085,4.09.477.464.491.791-.018,1.236-1.068.932-2.079,1.927-3.145,2.861a6.33,6.33,0,0,1-8.4.284,6.412,6.412,0,0,1-1.468-8.148c.077-.145.155-.291.3-.568-3.129,1.2-5.9.913-8.014-1.686-1.979-2.434-1.909-5.092-.182-7.9a6.582,6.582,0,0,1-5.172.5,6.158,6.158,0,0,1-2.468-10.254q8.838-8.841,17.678-17.678c.793-.793.793-.788,1.579-.011,1.493,1.472,2.9,3.042,4.5,4.4a11.2,11.2,0,0,0,18.366-6.378,10.568,10.568,0,0,0-2.62-9.632c-2.222-2.42-4.585-4.713-6.923-7.023-.554-.548-.593-.882.023-1.4,2.293-1.936,4.444-4.035,7.155-5.435a21.58,21.58,0,0,1,31.3,16.169c.023.166.077.329.116.493v4.933Z" transform="translate(-48.076 -6.366)" fill="#b73064"/>
      <path id="Path_17" data-name="Path 17" d="M0,21.577A21.408,21.408,0,0,1,19.089.159,20.533,20.533,0,0,1,36.374,5.967c5.137,4.96,10.134,10.066,15.151,15.147a6.1,6.1,0,0,1,1.413,6.835A6.068,6.068,0,0,1,47.262,32a5.937,5.937,0,0,1-4.678-1.861c-2.484-2.486-4.985-4.953-7.439-7.469-.525-.536-.8-.541-1.334-.007Q23.828,32.7,13.8,42.7c-.82.82-.834.832-1.638,0C9.648,40.086,6.873,37.721,4.6,34.878A20.738,20.738,0,0,1,0,21.577Z" transform="translate(0 0)" fill="#b73064"/>
      <path id="Path_18" data-name="Path 18" d="M262.7,184.606a3.261,3.261,0,0,1,1.986-3.1,3.085,3.085,0,0,1,3.638.539q3.879,3.753,7.637,7.632a3.352,3.352,0,0,1-.159,4.628,3.276,3.276,0,0,1-4.547.232c-2.661-2.547-5.237-5.183-7.821-7.81a2.764,2.764,0,0,1-.736-2.122Z" transform="translate(-203.004 -139.987)" fill="#b73064"/>
      <path id="Path_19" data-name="Path 19" d="M203.354,265.261a3.212,3.212,0,0,1-1.979,3.1,3.089,3.089,0,0,1-3.638-.541q-3.851-3.722-7.58-7.571a3.348,3.348,0,0,1,.168-4.751,3.314,3.314,0,0,1,4.683-.009c2.515,2.456,4.983,4.958,7.462,7.451a3.038,3.038,0,0,1,.886,2.32Z" transform="translate(-146.247 -196.692)" fill="#b73064"/>
      <path id="Path_20" data-name="Path 20" d="M240.02,228.581a3.246,3.246,0,0,1-1.981,3.1,3.092,3.092,0,0,1-3.638-.541q-3.851-3.722-7.58-7.571a3.35,3.35,0,0,1,.168-4.751,3.31,3.31,0,0,1,4.683-.011c2.515,2.454,4.983,4.958,7.462,7.448a3.037,3.037,0,0,1,.888,2.32Z" transform="translate(-174.58 -168.344)" fill="#b73064"/>
    </g>
  </g>
</svg>
