<?xml version="1.0" encoding="UTF-8"?>
<svg id="Layer_2" data-name="Layer 2" xmlns="http://www.w3.org/2000/svg" viewBox="0 0 379.42 368.53">
  <defs>
    <style>
      .cls-1 {
        fill: #b73064;
      }
    </style>
  </defs>
  <g id="Layer_1-2" data-name="Layer 1">
    <g>
      <path class="cls-1" d="m0,256.16c11.8-12.84,24.54-24.74,36.73-37.2,1.39-1.42,2.51-1.11,3.75.16,3.03,3.09,6.09,6.15,9.18,9.17,24.24,23.72,63.97,14.62,75.31-17.34,1.06-2.99,2.54-4.54,5.55-5.6,14.2-5,23.67-14.86,28.52-29.07.76-2.22,1.81-3.46,4.06-4.23,14.65-4.94,24.63-14.73,29.61-29.41.79-2.33,1.98-3.61,4.36-4.42,32.92-11.3,42.31-51.23,17.93-76.04-2.77-2.82-5.53-5.66-8.4-8.38-1.65-1.56-2.02-2.8-.19-4.58,6.81-6.65,13.34-13.6,20.3-20.08,10.63-9.88,26.15-11.38,38.51-4.09,12.56,7.4,18.6,21.57,15.01,35.98-.7,2.8-.3,4.04,2.28,5.47,12.92,7.15,18.96,21.01,15.67,36-.65,2.96-.09,4.35,2.55,5.86,12.64,7.27,18.67,21.18,15.39,35.47-.68,2.96-.38,4.53,2.46,6.24,18.9,11.34,22.06,35.74,6.53,51.43-25.22,25.48-50.57,50.83-76.06,76.03-13.18,13.03-29.43,19.15-47.87,19.54-5.07.11-10.14.15-15.2-.03-2.83-.1-4.87.85-6.85,2.84-20.84,20.94-41.75,41.82-62.64,62.7-7.9,7.89-13.62,7.9-21.48.03-29.98-29.98-59.97-59.96-89.94-89.95-1.74-1.74-3.37-3.6-5.06-5.4,0-3.71,0-7.42,0-11.13Z"/>
      <path class="cls-1" d="m74.92,155.67c-1.85-1.79-3.74-3.53-5.54-5.37-8.51-8.71-10.15-20.52-4.22-30.22,6.05-9.89,17.35-13.89,29.04-10.27.57.18,1.15.34,1.72.51.24-.26.49-.52.73-.78-1.86-1.67-3.81-3.24-5.56-5.02-7.36-7.51-9.63-16.38-5.88-26.22,3.76-9.86,11.52-14.85,21.91-15.64,3.84-.29,7.53.87,12.05,2.75-3.87-4.22-6.3-8.14-7.29-12.79-2.26-10.57,2.35-21.09,11.51-26.31,9.72-5.55,21.05-4.19,29.35,3.91,10.96,10.71,21.71,21.64,32.54,32.47,4.98,4.98,10.06,9.87,14.91,14.98,6.81,7.16,8.86,15.64,5.7,25-3.18,9.41-10.14,14.61-19.86,16.22-5.44.9-10.42-.82-15.96-3.2,5.57,11.09,4.76,21.13-3.38,29.63-8.35,8.71-18.6,9.18-29.97,4.3,4.75,11.18,4.47,21.44-4.15,29.83-8.55,8.32-18.69,9.13-29.88,3.63,2.72,6.05,4.38,11.62,2.91,17.72-2.18,9-7.37,15.37-16.24,18.16-8.77,2.76-17,1.21-23.8-5.12-6.42-5.97-12.59-12.23-18.65-18.57-8.25-8.61-9.36-20.75-3.05-30.32,6.31-9.56,17.78-13.21,29.05-9.26.54.19,1.08.37,1.62.55.13-.18.26-.37.38-.55Z"/>
      <path class="cls-1" d="m272.63,368.39c-3.41.05-6.27-1.29-8.63-3.65-14.96-14.92-29.88-29.87-44.84-44.79-1.89-1.88-1.92-2.95.95-3.55,19.82-4.13,35.7-14.76,49.7-29.11,21.99-22.55,44.51-44.59,66.7-66.95,2.46-2.48,3.92-2.72,6.48-.09,10.43,10.71,21.1,21.18,31.65,31.77,6.41,6.43,6.4,12.87-.08,19.36-30.74,30.76-61.5,61.5-92.23,92.26-2.71,2.71-5.66,4.78-9.69,4.75Z"/>
      <path class="cls-1" d="m200.87.02c4.22.02,13,5.92,14.22,9.33.39,1.1-.31,1.58-.91,2.18-7.64,7.55-15.31,15.08-22.9,22.69-1.6,1.61-2.77,1.51-4.31-.06-5.54-5.64-11.12-11.24-16.77-16.77-1.82-1.78-1.42-2.75.69-3.78,8.42-4.14,16.8-8.37,25.21-12.55,1.57-.78,3.26-1.15,4.79-1.04Z"/>
    </g>
  </g>
</svg>