<svg xmlns="http://www.w3.org/2000/svg" xmlns:xlink="http://www.w3.org/1999/xlink" width="40.182" height="69.1" viewBox="0 0 40.182 69.1"><defs><clipPath id="a"><rect width="40.182" height="69.1" fill="#b73064"/></clipPath></defs><g clip-path="url(#a)"><path d="M106.848,17.943a2.969,2.969,0,0,1,.4,1.6c-.058.553.2.742.712.686.7.064,1.056-.335,1.332-.916q4.218-8.876,8.453-17.744c.514-1.079.2-1.555-1.029-1.557-2.794-.005-5.588.018-8.382-.015a1.4,1.4,0,0,0-1.473.92c-1.232,2.647-2.5,5.278-3.777,7.9a1.332,1.332,0,0,0,.01,1.287c1.264,2.6,2.5,5.222,3.753,7.831" transform="translate(-81.984 -0.001)" fill="#b73064"/><path d="M20.067,142.229a20.08,20.08,0,0,0,.012,40.161,20.08,20.08,0,1,0-.012-40.161m.062,35.507A15.4,15.4,0,1,1,35.493,162.29a15.325,15.325,0,0,1-15.364,15.446" transform="translate(0 -113.293)" fill="#b73064"/><path d="M29.257,19.333a1.437,1.437,0,0,0,1.48.943c1.4-.032,2.8.01,4.195-.017.568-.011.77.2.744.76a21.317,21.317,0,0,0,0,2.211c.036.62-.221.782-.8.774-2.008-.026-4.017-.016-6.026-.007a2.4,2.4,0,0,0-2.6,2.546c-.025.838-.008,1.678-.007,2.517,0,1.184.009,1.182,1.048.688a21.262,21.262,0,0,1,12.173-1.87,20.623,20.623,0,0,1,6.455,1.983c.311.154.77.506.781-.239a29.871,29.871,0,0,0-.061-3.5A2.244,2.244,0,0,0,44.2,24c-1.7-.013-3.407,0-5.111,0-1.8,0-1.8,0-1.8-1.817,0-1.853,0-1.853,1.866-1.912h.076c1.036-.049,1.382-.578.937-1.514Q35.9,9.763,31.61.782A1.168,1.168,0,0,0,30.417.033c-1.449.023-2.9.008-4.348.008-1.424,0-2.848-.007-4.272,0-1.176.006-1.5.483-1,1.529q4.225,8.883,8.458,17.763" transform="translate(-16.388 -0.026)" fill="#b73064"/><path d="M43.477,171.548a14.121,14.121,0,1,0,14.1,14.18,14.085,14.085,0,0,0-14.1-14.18" transform="translate(-23.394 -136.647)" fill="#b73064"/><path d="M76.414,219.7l.374-2.575a12.475,12.475,0,0,0,2.077.208,4.513,4.513,0,0,0,2.658-.706,2.169,2.169,0,0,0,1-1.849,1.544,1.544,0,0,0-.415-1.142,1.573,1.573,0,0,0-1.163-.415,3.641,3.641,0,0,0-1.142.208l-.415-1.994A5.015,5.015,0,0,0,81.2,210.4a1.983,1.983,0,0,0,.82-1.443.906.906,0,0,0-.343-.737,1.417,1.417,0,0,0-.924-.28,2.619,2.619,0,0,0-1.2.322,4.265,4.265,0,0,0-1.163.9l-1.745-1.911a6.562,6.562,0,0,1,2-1.34A5.9,5.9,0,0,1,81,205.431a4.737,4.737,0,0,1,2.015.4,3.191,3.191,0,0,1,1.35,1.122,2.838,2.838,0,0,1,.478,1.609,3.813,3.813,0,0,1-1.35,2.783,3.3,3.3,0,0,1,1.485,1.319,3.791,3.791,0,0,1,.509,1.963,4.5,4.5,0,0,1-.862,2.679,5.706,5.706,0,0,1-2.44,1.89,8.939,8.939,0,0,1-3.593.685,13.269,13.269,0,0,1-2.181-.187" transform="translate(-60.868 -163.636)" fill="#fff"/></g></svg>