<svg xmlns="http://www.w3.org/2000/svg" width="52.219" height="76.983" viewBox="0 0 52.219 76.983">
  <g id="OBJECTS" transform="translate(-0.008)">
    <g id="Group_8" data-name="Group 8" transform="translate(0.008)">
      <path id="Path_13" data-name="Path 13" d="M89,0a15.641,15.641,0,0,1,7.11,3.017,14.594,14.594,0,0,1,5.847,11.811,50.445,50.445,0,0,1-.138,6.974,15.194,15.194,0,0,1-13.1,12.686A14.96,14.96,0,0,1,72.236,21.672c-.5-3.755-.695-7.628.554-11.311A14.709,14.709,0,0,1,84.664.108C84.809.08,84.953.037,85.1,0Z" transform="translate(-60.735)" fill="#b73064"/>
      <path id="Path_14" data-name="Path 14" d="M26.389,281.1q1.448-5.86,2.9-11.722,2.428-9.836,4.852-19.672c.328-1.326.789-1.569,2.042-1.041q6.608,2.783,13.206,5.589a4.257,4.257,0,0,1,2.841,4.312c-.053,8.863-.022,17.726-.023,26.589,0,1.564-.231,1.8-1.761,1.8H1.773c-1.442,0-1.762-.317-1.762-1.762q0-13.482,0-26.963A4.49,4.49,0,0,1,3.2,253.643l12.974-4.958c1.4-.535,1.82-.322,2.188,1.145L26.042,280.4c.06.238.13.474.195.712l.153-.012Z" transform="translate(-0.008 -209.967)" fill="#b73064"/>
      <path id="Path_15" data-name="Path 15" d="M144.058,240.661a13.3,13.3,0,0,1,2.333.1,2.76,2.76,0,0,1,1.855,4.04,4.633,4.633,0,0,1-.535.815,5.424,5.424,0,0,0-1.1,4.786c.252,1.425.373,2.875.548,4.314a3.281,3.281,0,0,1-.206,1.617c-.514,1.331-.978,2.68-1.473,4.017a1.713,1.713,0,0,1-1.693,1.338,1.742,1.742,0,0,1-1.668-1.377c-.518-1.408-1.031-2.821-1.553-4.227a2.46,2.46,0,0,1-.138-1.171c.19-1.69.3-3.387.508-5.074a5.755,5.755,0,0,0-1.233-4.5,2.705,2.705,0,0,1-.645-2.166,2.861,2.861,0,0,1,2.917-2.513c.624-.033,1.252,0,2.089,0Z" transform="translate(-117.511 -203.412)" fill="#b73064"/>
    </g>
  </g>
</svg>
