<?xml version="1.0" encoding="UTF-8"?>
<svg id="Layer_2" data-name="Layer 2" xmlns="http://www.w3.org/2000/svg" viewBox="0 0 383.63 383.51">
  <defs>
    <style>
      .cls-1 {
        fill: #b73064;
      }
    </style>
  </defs>
  <g id="Layer_1-2" data-name="Layer 1">
    <g>
      <path class="cls-1" d="m0,334.11c20.63-20.61,41.3-41.19,61.86-61.88,2.45-2.47,5.02-3.25,8.45-3.71,10.12-1.36,17.49,2.17,23.92,9.95,5.53,6.7,12.17,12.48,18.39,18.6,1.52,1.5,2.22,3.1,2.26,5.26q.28,15.33-10.5,26.15c-18.33,18.34-36.65,36.68-54.97,55.02h-19.46c-9.98-9.98-19.96-19.96-29.94-29.94,0-6.49,0-12.97,0-19.46Z"/>
      <path class="cls-1" d="m246.27,0c75.33-.55,137.5,61.81,137.36,137.66-.14,72.33-58.06,137.23-137.6,137.16-76.47-.07-137.31-60.92-137.36-137.4C108.63,58.05,173.55-.68,246.27,0Zm-1.03,213.43c17.61-.42,32.91-5.69,47.12-14.27,22.77-13.74,40.23-32.93,55.11-54.63,6.07-8.84,5.95-5.58.04-14.26-15.32-22.49-33.48-42.18-57.26-56.06-13.37-7.8-27.8-12.63-43.28-12.88-13.65-.22-26.63,3.5-38.82,9.7-28.82,14.66-49.33,37.97-66.88,64.37-.99,1.49-.83,2.67.11,4.08,15.36,23.21,33.33,43.9,57.16,58.86,14.52,9.11,30.27,14.53,46.7,15.09Z"/>
      <path class="cls-1" d="m130.49,283.86c-1.37-.04-1.97-.91-2.66-1.59-8.91-8.88-17.76-17.81-26.72-26.64-1.78-1.75-1.6-2.97.08-4.61,5.26-5.13,10.46-10.32,15.58-15.59,1.81-1.87,2.98-1.51,4.44.39,7.71,10.02,16.61,18.87,26.62,26.59,1.74,1.35,2.16,2.46.42,4.17-5.43,5.31-10.76,10.73-16.15,16.08-.51.51-1.17.87-1.61,1.2Z"/>
      <path class="cls-1" d="m244.19,83c16.61-.06,28.78,5.83,40.28,13.31,15.75,10.24,28.55,23.64,39.88,38.51,1.17,1.53,1.7,2.86.32,4.64-14.36,18.46-30.32,35.12-51.66,45.63-18.18,8.95-36.36,9.32-54.47-.48-20.33-11-36.69-26.45-50.64-44.67-1.18-1.54-1.66-2.87-.29-4.65,12.86-16.73,27.3-31.77,45.68-42.54,10.25-6,21.16-10.03,30.9-9.75Zm1.94,87.7c18.35-.02,33.63-15.24,33.45-33.31-.18-18.53-15.56-33.76-33.77-33.46-18.38.3-33.08,15.33-33,33.75.07,18.03,15.22,33.04,33.32,33.02Z"/>
      <path class="cls-1" d="m257.72,137.48c-.08,6.4-5.52,11.8-11.72,11.63-6.38-.18-11.83-5.7-11.66-11.81.18-6.42,5.48-11.56,11.87-11.51,6.53.04,11.58,5.18,11.51,11.7Z"/>
    </g>
  </g>
</svg>